{"accessors":[{"name":"Node-Mesh_0_positions","componentType":5126,"count":80,"min":[-0.39935800433158875,0.23537099361419678,-0.16988299787044525],"max":[0.39924100041389465,0.24909499287605286,0.13251300156116486],"type":"VEC3","bufferView":0,"byteOffset":0},{"name":"Node-Mesh_0_normals","componentType":5126,"count":80,"min":[-1,-1,-1],"max":[1,1,1],"type":"VEC3","bufferView":1,"byteOffset":0},{"name":"Node-Mesh_0_indices","componentType":5123,"count":324,"min":[0],"max":[79],"type":"SCALAR","bufferView":3,"byteOffset":0},{"name":"Node-Mesh_1_positions","componentType":5126,"count":280,"min":[-0.4288780093193054,-0.0000154013996507274,-0.19591400027275085],"max":[0.4288780093193054,0.3700000047683716,0.1995909959077835],"type":"VEC3","bufferView":0,"byteOffset":960},{"name":"Node-Mesh_1_normals","componentType":5126,"count":280,"min":[-1,-1,-1],"max":[1,1,1],"type":"VEC3","bufferView":1,"byteOffset":960},{"name":"Node-Mesh_1_indices","componentType":5123,"count":1068,"min":[0],"max":[279],"type":"SCALAR","bufferView":3,"byteOffset":648},{"name":"Node-Mesh_2_positions","componentType":5126,"count":705,"min":[-0.9017459750175476,0.10151000320911407,-0.20000000298023224],"max":[0.9014790058135986,0.4000000059604645,0.20000000298023224],"type":"VEC3","bufferView":0,"byteOffset":4320},{"name":"Node-Mesh_2_normals","componentType":5126,"count":705,"min":[-1,-1,-1],"max":[1,1,1],"type":"VEC3","bufferView":1,"byteOffset":4320},{"name":"Node-Mesh_2_texcoords","componentType":5126,"count":705,"min":[-0.2679559886455536,-0.9444800019264221],"max":[1.2679599523544312,2.6123499870300293],"type":"VEC2","bufferView":2,"byteOffset":0},{"name":"Node-Mesh_2_indices","componentType":5123,"count":2280,"min":[0],"max":[704],"type":"SCALAR","bufferView":3,"byteOffset":2784}],"asset":{"generator":"obj2gltf","version":"2.0"},"buffers":[{"name":"116","byteLength":55432,"uri":"data:application/octet-stream;base64,"}],"bufferViews":[{"name":"bufferView_0","buffer":0,"byteLength":12780,"byteOffset":0,"byteStride":12,"target":34962},{"name":"bufferView_1","buffer":0,"byteLength":12780,"byteOffset":12780,"byteStride":12,"target":34962},{"name":"bufferView_2","buffer":0,"byteLength":5640,"byteOffset":25560,"byteStride":8,"target":34962},{"name":"bufferView_3","buffer":0,"byteLength":7344,"byteOffset":31200,"target":34963},{"buffer":0,"byteOffset":38544,"byteLength":16885}],"images":[{"name":"wood_5","mimeType":"image/jpeg","bufferView":4}],"materials":[{"name":"material_0","pbrMetallicRoughness":{"baseColorFactor":[0.528052,0.748738,0.8,0.5],"metallicFactor":0,"roughnessFactor":0.9},"emissiveFactor":[0,0,0],"alphaMode":"BLEND","doubleSided":true},{"name":"material_1","pbrMetallicRoughness":{"baseColorFactor":[0.45,0.45,0.45,1],"metallicFactor":0,"roughnessFactor":0.8},"emissiveFactor":[0,0,0],"alphaMode":"OPAQUE","doubleSided":false},{"name":"material_2","pbrMetallicRoughness":{"baseColorTexture":{"index":0},"baseColorFactor":[1,1,1,1],"metallicFactor":0,"roughnessFactor":0.96},"emissiveFactor":[0,0,0],"alphaMode":"OPAQUE","doubleSided":false}],"meshes":[{"name":"Node-Mesh","primitives":[{"attributes":{"POSITION":0,"NORMAL":1},"indices":2,"material":0,"mode":4},{"attributes":{"POSITION":3,"NORMAL":4},"indices":5,"material":1,"mode":4},{"attributes":{"POSITION":6,"NORMAL":7,"TEXCOORD_0":8},"indices":9,"material":2,"mode":4}]}],"nodes":[{"name":"Node","mesh":0}],"samplers":[{"magFilter":9729,"minFilter":9986,"wrapS":10497,"wrapT":10497}],"scene":0,"scenes":[{"nodes":[0]}],"textures":[{"name":"wood_5","sampler":0,"source":0}]}