{"accessors":[{"name":"Node-Mesh_0_positions","componentType":5126,"count":1140,"min":[-0.4650000035762787,-2.017010025667787e-8,-0.4650000035762787],"max":[0.4650000035762787,0.5601279735565186,0.4650000035762787],"type":"VEC3","bufferView":0,"byteOffset":0},{"name":"Node-Mesh_0_normals","componentType":5126,"count":1140,"min":[-1,-1,-1],"max":[1,1,1],"type":"VEC3","bufferView":1,"byteOffset":0},{"name":"Node-Mesh_0_texcoords","componentType":5126,"count":1140,"min":[-3.0996599197387695,-6.949629783630371],"max":[4.154890060424805,1.0030909776687622],"type":"VEC2","bufferView":2,"byteOffset":0},{"name":"Node-Mesh_0_indices","componentType":5123,"count":3072,"min":[0],"max":[1139],"type":"SCALAR","bufferView":3,"byteOffset":0}],"asset":{"generator":"obj2gltf","version":"2.0"},"buffers":[{"name":"119","byteLength":46928,"uri":"data:application/octet-stream;base64,"}],"bufferViews":[{"name":"bufferView_0","buffer":0,"byteLength":13680,"byteOffset":0,"byteStride":12,"target":34962},{"name":"bufferView_1","buffer":0,"byteLength":13680,"byteOffset":13680,"byteStride":12,"target":34962},{"name":"bufferView_2","buffer":0,"byteLength":9120,"byteOffset":27360,"byteStride":8,"target":34962},{"name":"bufferView_3","buffer":0,"byteLength":6144,"byteOffset":36480,"target":34963},{"buffer":0,"byteOffset":42624,"byteLength":4304}],"images":[{"name":"wood_9","mimeType":"image/jpeg","bufferView":4}],"materials":[{"name":"material_0","pbrMetallicRoughness":{"baseColorTexture":{"index":0},"baseColorFactor":[1,1,1,1],"metallicFactor":0,"roughnessFactor":0.6},"emissiveFactor":[0,0,0],"alphaMode":"OPAQUE","doubleSided":false}],"meshes":[{"name":"Node-Mesh","primitives":[{"attributes":{"POSITION":0,"NORMAL":1,"TEXCOORD_0":2},"indices":3,"material":0,"mode":4}]}],"nodes":[{"name":"Node","mesh":0}],"samplers":[{"magFilter":9729,"minFilter":9986,"wrapS":10497,"wrapT":10497}],"scene":0,"scenes":[{"nodes":[0]}],"textures":[{"name":"wood_9","sampler":0,"source":0}]}