{"accessors":[{"name":"Node-Mesh_0_positions","componentType":5126,"count":49,"min":[-0.13609400391578674,0.010572999715805054,-0.08213630318641663],"max":[0.13609400391578674,0.018695499747991562,0.08653920143842697],"type":"VEC3","bufferView":0,"byteOffset":0},{"name":"Node-Mesh_0_normals","componentType":5126,"count":49,"min":[-0.09924880415201187,0.9731962084770203,-0.208537757396698],"max":[0.09924880415201187,0.9989064335823059,0.18561924993991852],"type":"VEC3","bufferView":1,"byteOffset":0},{"name":"Node-Mesh_0_indices","componentType":5123,"count":147,"min":[0],"max":[48],"type":"SCALAR","bufferView":3,"byteOffset":0},{"name":"Node-Mesh_1_positions","componentType":5126,"count":4,"min":[-0.1476300060749054,0.030589399859309196,-0.1084119975566864],"max":[0.1476300060749054,0.22953100502490997,-0.1084119975566864],"type":"VEC3","bufferView":0,"byteOffset":588},{"name":"Node-Mesh_1_normals","componentType":5126,"count":4,"min":[0,0,1],"max":[0,0,1],"type":"VEC3","bufferView":1,"byteOffset":588},{"name":"Node-Mesh_1_texcoords","componentType":5126,"count":4,"min":[0.00008199999865610152,0],"max":[0.9999179840087891,0.9999179840087891],"type":"VEC2","bufferView":2,"byteOffset":0},{"name":"Node-Mesh_1_indices","componentType":5123,"count":6,"min":[0],"max":[3],"type":"SCALAR","bufferView":3,"byteOffset":296},{"name":"Node-Mesh_2_positions","componentType":5126,"count":1540,"min":[-0.1340939998626709,0.014293099753558636,-0.08013629913330078],"max":[0.1340939998626709,0.021138399839401245,0.009899389930069447],"type":"VEC3","bufferView":0,"byteOffset":636},{"name":"Node-Mesh_2_normals","componentType":5126,"count":1540,"min":[-0.9284810423851013,0.3247845470905304,-0.9093078374862671],"max":[0.9284810423851013,0.9989064335823059,0.9457880258560181],"type":"VEC3","bufferView":1,"byteOffset":636},{"name":"Node-Mesh_2_indices","componentType":5123,"count":2310,"min":[0],"max":[1539],"type":"SCALAR","bufferView":3,"byteOffset":308},{"name":"Node-Mesh_3_positions","componentType":5126,"count":465,"min":[-0.1599999964237213,-4.720829949178551e-9,-0.11597300320863724],"max":[0.1599999964237213,0.2400600016117096,0.10999999940395355],"type":"VEC3","bufferView":0,"byteOffset":19116},{"name":"Node-Mesh_3_normals","componentType":5126,"count":465,"min":[-0.9807879328727722,-1,-1],"max":[0.9807879328727722,0.9992629885673523,1],"type":"VEC3","bufferView":1,"byteOffset":19116},{"name":"Node-Mesh_3_indices","componentType":5123,"count":2694,"min":[0],"max":[464],"type":"SCALAR","bufferView":3,"byteOffset":4928}],"asset":{"generator":"obj2gltf","version":"2.0"},"buffers":[{"name":"120","byteLength":59740,"uri":"data:application/octet-stream;base64,"}],"bufferViews":[{"name":"bufferView_0","buffer":0,"byteLength":24696,"byteOffset":0,"byteStride":12,"target":34962},{"name":"bufferView_1","buffer":0,"byteLength":24696,"byteOffset":24696,"byteStride":12,"target":34962},{"name":"bufferView_2","buffer":0,"byteLength":32,"byteOffset":49392,"byteStride":8,"target":34962},{"name":"bufferView_3","buffer":0,"byteLength":10316,"byteOffset":49424,"target":34963}],"materials":[{"name":"material_0","pbrMetallicRoughness":{"baseColorFactor":[0.55,0.55,0.55,1],"metallicFactor":0,"roughnessFactor":0.85},"emissiveFactor":[0,0,0],"alphaMode":"OPAQUE","doubleSided":false},{"name":"material_1","pbrMetallicRoughness":{"baseColorFactor":[0.05,0.05,0.05,1],"metallicFactor":0,"roughnessFactor":0.95},"emissiveFactor":[0,0,0],"alphaMode":"OPAQUE","doubleSided":false},{"name":"material_2","pbrMetallicRoughness":{"baseColorFactor":[0.05,0.05,0.05,1],"metallicFactor":0,"roughnessFactor":0.985},"emissiveFactor":[0,0,0],"alphaMode":"OPAQUE","doubleSided":false},{"name":"material_3","pbrMetallicRoughness":{"baseColorFactor":[0.65,0.65,0.65,1],"metallicFactor":0,"roughnessFactor":0.995},"emissiveFactor":[0,0,0],"alphaMode":"OPAQUE","doubleSided":false}],"meshes":[{"name":"Node-Mesh","primitives":[{"attributes":{"POSITION":0,"NORMAL":1},"indices":2,"material":0,"mode":4},{"attributes":{"POSITION":3,"NORMAL":4,"TEXCOORD_0":5},"indices":6,"material":1,"mode":4},{"attributes":{"POSITION":7,"NORMAL":8},"indices":9,"material":2,"mode":4},{"attributes":{"POSITION":10,"NORMAL":11},"indices":12,"material":3,"mode":4}]}],"nodes":[{"name":"Node","mesh":0}],"scene":0,"scenes":[{"nodes":[0]}]}