{"accessors":[{"name":"Node-Mesh_0_positions","componentType":5126,"count":131,"min":[-0.005107960198074579,0.05463390052318573,-0.08648350089788437],"max":[0.0051090600900352,0.18688000738620758,0.05909080058336258],"type":"VEC3","bufferView":0,"byteOffset":0},{"name":"Node-Mesh_0_normals","componentType":5126,"count":131,"min":[-0.9968444108963013,-0.9968444108963013,-0.9859725832939148],"max":[0.9968444108963013,0.9968444108963013,1],"type":"VEC3","bufferView":1,"byteOffset":0},{"name":"Node-Mesh_0_indices","componentType":5123,"count":696,"min":[0],"max":[130],"type":"SCALAR","bufferView":3,"byteOffset":0},{"name":"Node-Mesh_1_positions","componentType":5126,"count":224,"min":[-0.05236649885773659,-0.00006805599696235731,0.004296290222555399],"max":[0.052367400377988815,0.1155019998550415,0.10903000086545944],"type":"VEC3","bufferView":0,"byteOffset":1572},{"name":"Node-Mesh_1_normals","componentType":5126,"count":224,"min":[-0.9976814985275269,-0.9551644921302795,-0.9976814985275269],"max":[0.9976814985275269,0.9532559514045715,0.9976814985275269],"type":"VEC3","bufferView":1,"byteOffset":1572},{"name":"Node-Mesh_1_indices","componentType":5123,"count":1248,"min":[0],"max":[223],"type":"SCALAR","bufferView":3,"byteOffset":1392},{"name":"Node-Mesh_2_positions","componentType":5126,"count":335,"min":[-0.05999960005283356,0.00042732799192890525,-0.08862370252609253],"max":[0.060000400990247726,0.21626600623130798,0.07894770056009293],"type":"VEC3","bufferView":0,"byteOffset":4260},{"name":"Node-Mesh_2_normals","componentType":5126,"count":335,"min":[-1,-1,-1],"max":[1,1,1],"type":"VEC3","bufferView":1,"byteOffset":4260},{"name":"Node-Mesh_2_texcoords","componentType":5126,"count":335,"min":[-1.5087100267410278,-1.6565799713134766],"max":[2.489809989929199,0.9996359944343567],"type":"VEC2","bufferView":2,"byteOffset":0},{"name":"Node-Mesh_2_indices","componentType":5123,"count":918,"min":[0],"max":[334],"type":"SCALAR","bufferView":3,"byteOffset":3888},{"name":"Node-Mesh_3_positions","componentType":5126,"count":41,"min":[-0.017169199883937836,0.036112699657678604,0.03949369862675667],"max":[0.017170000821352005,0.11410599946975708,0.07383289933204651],"type":"VEC3","bufferView":0,"byteOffset":8280},{"name":"Node-Mesh_3_normals","componentType":5126,"count":41,"min":[-0.9998278617858887,-1,-0.9998278617858887],"max":[0.9998278617858887,0.127996027469635,0.9998278617858887],"type":"VEC3","bufferView":1,"byteOffset":8280},{"name":"Node-Mesh_3_texcoords","componentType":5126,"count":41,"min":[0,1],"max":[0,1],"type":"VEC2","bufferView":2,"byteOffset":2680},{"name":"Node-Mesh_3_indices","componentType":5123,"count":216,"min":[0],"max":[40],"type":"SCALAR","bufferView":3,"byteOffset":5724}],"asset":{"generator":"obj2gltf","version":"2.0"},"buffers":[{"name":"124","byteLength":31012,"uri":"data:application/octet-stream;base64,"}],"bufferViews":[{"name":"bufferView_0","buffer":0,"byteLength":8772,"byteOffset":0,"byteStride":12,"target":34962},{"name":"bufferView_1","buffer":0,"byteLength":8772,"byteOffset":8772,"byteStride":12,"target":34962},{"name":"bufferView_2","buffer":0,"byteLength":3008,"byteOffset":17544,"byteStride":8,"target":34962},{"name":"bufferView_3","buffer":0,"byteLength":6156,"byteOffset":20552,"target":34963},{"buffer":0,"byteOffset":26708,"byteLength":4304}],"images":[{"name":"wood_9","mimeType":"image/jpeg","bufferView":4}],"materials":[{"name":"material_0","pbrMetallicRoughness":{"baseColorFactor":[0.496913,0.496913,0.496913,1],"metallicFactor":0,"roughnessFactor":0.95},"emissiveFactor":[0,0,0],"alphaMode":"OPAQUE","doubleSided":false},{"name":"material_1","pbrMetallicRoughness":{"baseColorFactor":[1,1,1,1],"metallicFactor":0,"roughnessFactor":0.95},"emissiveFactor":[0,0,0],"alphaMode":"OPAQUE","doubleSided":false},{"name":"material_2","pbrMetallicRoughness":{"baseColorTexture":{"index":0},"baseColorFactor":[1,1,1,1],"metallicFactor":0,"roughnessFactor":0.69840825},"emissiveFactor":[0,0,0],"alphaMode":"OPAQUE","doubleSided":false},{"name":"material_3","pbrMetallicRoughness":{"baseColorFactor":[1,1,1,1],"metallicFactor":0,"roughnessFactor":0.992},"emissiveFactor":[0,0,0],"alphaMode":"OPAQUE","doubleSided":false}],"meshes":[{"name":"Node-Mesh","primitives":[{"attributes":{"POSITION":0,"NORMAL":1},"indices":2,"material":0,"mode":4},{"attributes":{"POSITION":3,"NORMAL":4},"indices":5,"material":1,"mode":4},{"attributes":{"POSITION":6,"NORMAL":7,"TEXCOORD_0":8},"indices":9,"material":2,"mode":4},{"attributes":{"POSITION":10,"NORMAL":11,"TEXCOORD_0":12},"indices":13,"material":3,"mode":4}]}],"nodes":[{"name":"Node","mesh":0}],"samplers":[{"magFilter":9729,"minFilter":9986,"wrapS":10497,"wrapT":10497}],"scene":0,"scenes":[{"nodes":[0]}],"textures":[{"name":"wood_9","sampler":0,"source":0}]}