{"accessors":[{"name":"Node-Mesh_0_positions","componentType":5126,"count":20,"min":[-0.08046600222587585,0.0021418100222945213,-0.0935870036482811],"max":[0.0815339982509613,0.04785820096731186,0.09641300141811371],"type":"VEC3","bufferView":0,"byteOffset":0},{"name":"Node-Mesh_0_normals","componentType":5126,"count":20,"min":[-0.7170761823654175,-0.6059611439704895,-0.7174974083900452],"max":[0.6970266699790955,0.6059611439704895,0.7174974083900452],"type":"VEC3","bufferView":1,"byteOffset":0},{"name":"Node-Mesh_0_indices","componentType":5123,"count":108,"min":[0],"max":[19],"type":"SCALAR","bufferView":2,"byteOffset":0},{"name":"Node-Mesh_1_positions","componentType":5126,"count":32,"min":[-0.08500000089406967,-4.247609819429954e-9,-0.10000000149011612],"max":[0.08500000089406967,0.05000000074505806,0.10000000149011612],"type":"VEC3","bufferView":0,"byteOffset":240},{"name":"Node-Mesh_1_normals","componentType":5126,"count":32,"min":[-0.7215539216995239,-0.8048213720321655,-0.7811381816864014],"max":[0.6857094764709473,0.8048213720321655,0.8003368973731995],"type":"VEC3","bufferView":1,"byteOffset":240},{"name":"Node-Mesh_1_indices","componentType":5123,"count":180,"min":[0],"max":[31],"type":"SCALAR","bufferView":2,"byteOffset":216}],"asset":{"generator":"obj2gltf","version":"2.0"},"buffers":[{"name":"148","byteLength":1824,"uri":"data:application/octet-stream;base64,"}],"bufferViews":[{"name":"bufferView_0","buffer":0,"byteLength":624,"byteOffset":0,"byteStride":12,"target":34962},{"name":"bufferView_1","buffer":0,"byteLength":624,"byteOffset":624,"byteStride":12,"target":34962},{"name":"bufferView_2","buffer":0,"byteLength":576,"byteOffset":1248,"target":34963}],"materials":[{"name":"material_0","pbrMetallicRoughness":{"baseColorFactor":[0.778483,0.787897,0.623463,1],"metallicFactor":0,"roughnessFactor":0.995},"emissiveFactor":[0,0,0],"alphaMode":"OPAQUE","doubleSided":false},{"name":"material_1","pbrMetallicRoughness":{"baseColorFactor":[0.310388,0.52326,0.64,1],"metallicFactor":0,"roughnessFactor":0.995},"emissiveFactor":[0,0,0],"alphaMode":"OPAQUE","doubleSided":false}],"meshes":[{"name":"Node-Mesh","primitives":[{"attributes":{"POSITION":0,"NORMAL":1},"indices":2,"material":0,"mode":4},{"attributes":{"POSITION":3,"NORMAL":4},"indices":5,"material":1,"mode":4}]}],"nodes":[{"name":"Node","mesh":0}],"scene":0,"scenes":[{"nodes":[0]}]}