{"accessors":[{"name":"Node-Mesh_0_positions","componentType":5126,"count":242,"min":[-0.08678790181875229,0.0002645959903020412,0.024031799286603928],"max":[0.08678790181875229,0.08014489710330963,0.18918299674987793],"type":"VEC3","bufferView":0,"byteOffset":0},{"name":"Node-Mesh_0_normals","componentType":5126,"count":242,"min":[-1,-1,-1],"max":[1,1,1],"type":"VEC3","bufferView":1,"byteOffset":0},{"name":"Node-Mesh_0_indices","componentType":5123,"count":1008,"min":[0],"max":[241],"type":"SCALAR","bufferView":2,"byteOffset":0},{"name":"Node-Mesh_1_positions","componentType":5126,"count":896,"min":[-0.20903000235557556,0.00019941400387324393,-0.020837999880313873],"max":[0.20903000235557556,0.11999999731779099,0.1891620010137558],"type":"VEC3","bufferView":0,"byteOffset":2904},{"name":"Node-Mesh_1_normals","componentType":5126,"count":896,"min":[-1,-1,-1],"max":[1,1,1],"type":"VEC3","bufferView":1,"byteOffset":2904},{"name":"Node-Mesh_1_indices","componentType":5123,"count":4428,"min":[0],"max":[895],"type":"SCALAR","bufferView":2,"byteOffset":2016},{"name":"Node-Mesh_2_positions","componentType":5126,"count":16,"min":[-0.1711139976978302,0.010838200338184834,0.16015399992465973],"max":[0.1711139976978302,0.010838200338184834,0.1773509979248047],"type":"VEC3","bufferView":0,"byteOffset":13656},{"name":"Node-Mesh_2_normals","componentType":5126,"count":16,"min":[0,-1,0],"max":[0,-1,0],"type":"VEC3","bufferView":1,"byteOffset":13656},{"name":"Node-Mesh_2_indices","componentType":5123,"count":36,"min":[0],"max":[15],"type":"SCALAR","bufferView":2,"byteOffset":10872}],"asset":{"generator":"obj2gltf","version":"2.0"},"buffers":[{"name":"179","byteLength":38640,"uri":"data:application/octet-stream;base64,"}],"bufferViews":[{"name":"bufferView_0","buffer":0,"byteLength":13848,"byteOffset":0,"byteStride":12,"target":34962},{"name":"bufferView_1","buffer":0,"byteLength":13848,"byteOffset":13848,"byteStride":12,"target":34962},{"name":"bufferView_2","buffer":0,"byteLength":10944,"byteOffset":27696,"target":34963}],"materials":[{"name":"material_0","pbrMetallicRoughness":{"baseColorFactor":[0.45,0.45,0.45,1],"metallicFactor":0,"roughnessFactor":0.8},"emissiveFactor":[0,0,0],"alphaMode":"OPAQUE","doubleSided":false},{"name":"material_1","pbrMetallicRoughness":{"baseColorFactor":[0.2,0.2,0.2,1],"metallicFactor":0,"roughnessFactor":0.9},"emissiveFactor":[0,0,0],"alphaMode":"OPAQUE","doubleSided":false},{"name":"material_2","pbrMetallicRoughness":{"baseColorFactor":[1,1,1,1],"metallicFactor":0,"roughnessFactor":0.999},"emissiveFactor":[0,0,0],"alphaMode":"OPAQUE","doubleSided":false}],"meshes":[{"name":"Node-Mesh","primitives":[{"attributes":{"POSITION":0,"NORMAL":1},"indices":2,"material":0,"mode":4},{"attributes":{"POSITION":3,"NORMAL":4},"indices":5,"material":1,"mode":4},{"attributes":{"POSITION":6,"NORMAL":7},"indices":8,"material":2,"mode":4}]}],"nodes":[{"name":"Node","mesh":0}],"scene":0,"scenes":[{"nodes":[0]}]}