{"accessors":[{"name":"Node-Mesh_0_positions","componentType":5126,"count":152,"min":[-0.5796650052070618,0.01966959983110428,-0.12480100244283676],"max":[0.5818819999694824,0.5024070143699646,-0.11765500158071518],"type":"VEC3","bufferView":0,"byteOffset":0},{"name":"Node-Mesh_0_normals","componentType":5126,"count":152,"min":[-0.9555281400680542,-0.9358639717102051,-0.9904977083206177],"max":[0.9555281400680542,0.9358639717102051,0.9904944896697998],"type":"VEC3","bufferView":1,"byteOffset":0},{"name":"Node-Mesh_0_texcoords","componentType":5126,"count":152,"min":[-0.40815600752830505,-0.4885900020599365],"max":[1.2435200214385986,1.4885929822921753],"type":"VEC2","bufferView":2,"byteOffset":0},{"name":"Node-Mesh_0_indices","componentType":5123,"count":648,"min":[0],"max":[151],"type":"SCALAR","bufferView":3,"byteOffset":0},{"name":"Node-Mesh_1_positions","componentType":5126,"count":837,"min":[-0.800000011920929,-3.2573498742749507e-7,-0.125],"max":[0.800000011920929,0.6434239745140076,0.125],"type":"VEC3","bufferView":0,"byteOffset":1824},{"name":"Node-Mesh_1_normals","componentType":5126,"count":837,"min":[-0.9904944896697998,-0.9904944896697998,-0.9555281400680542],"max":[0.9904977083206177,0.9904944896697998,0.9555281400680542],"type":"VEC3","bufferView":1,"byteOffset":1824},{"name":"Node-Mesh_1_texcoords","componentType":5126,"count":837,"min":[-0.5260829925537109,-1.182070016860962],"max":[1.4923499822616577,2.182070016860962],"type":"VEC2","bufferView":2,"byteOffset":1216},{"name":"Node-Mesh_1_indices","componentType":5123,"count":3564,"min":[0],"max":[836],"type":"SCALAR","bufferView":3,"byteOffset":1296}],"asset":{"generator":"obj2gltf","version":"2.0"},"buffers":[{"name":"193","byteLength":100632,"uri":"data:application/octet-stream;base64,"}],"bufferViews":[{"name":"bufferView_0","buffer":0,"byteLength":11868,"byteOffset":0,"byteStride":12,"target":34962},{"name":"bufferView_1","buffer":0,"byteLength":11868,"byteOffset":11868,"byteStride":12,"target":34962},{"name":"bufferView_2","buffer":0,"byteLength":7912,"byteOffset":23736,"byteStride":8,"target":34962},{"name":"bufferView_3","buffer":0,"byteLength":8424,"byteOffset":31648,"target":34963},{"buffer":0,"byteOffset":40072,"byteLength":56254},{"buffer":0,"byteOffset":96326,"byteLength":4304}],"images":[{"name":"wood_3","mimeType":"image/jpeg","bufferView":4},{"name":"wood_9","mimeType":"image/jpeg","bufferView":5}],"materials":[{"name":"material_0","pbrMetallicRoughness":{"baseColorTexture":{"index":0},"baseColorFactor":[1,1,1,1],"metallicFactor":0,"roughnessFactor":0.96},"emissiveFactor":[0,0,0],"alphaMode":"OPAQUE","doubleSided":false},{"name":"material_1","pbrMetallicRoughness":{"baseColorTexture":{"index":1},"baseColorFactor":[1,1,1,1],"metallicFactor":0,"roughnessFactor":0.96},"emissiveFactor":[0,0,0],"alphaMode":"OPAQUE","doubleSided":false}],"meshes":[{"name":"Node-Mesh","primitives":[{"attributes":{"POSITION":0,"NORMAL":1,"TEXCOORD_0":2},"indices":3,"material":0,"mode":4},{"attributes":{"POSITION":4,"NORMAL":5,"TEXCOORD_0":6},"indices":7,"material":1,"mode":4}]}],"nodes":[{"name":"Node","mesh":0}],"samplers":[{"magFilter":9729,"minFilter":9986,"wrapS":10497,"wrapT":10497}],"scene":0,"scenes":[{"nodes":[0]}],"textures":[{"name":"wood_3","sampler":0,"source":0},{"name":"wood_9","sampler":0,"source":1}]}