{"accessors":[{"name":"Node-Mesh_0_positions","componentType":5126,"count":1273,"min":[-0.699999988079071,-3.278350035884614e-9,-0.07500000298023224],"max":[0.699999988079071,1.399999976158142,0.10000000149011612],"type":"VEC3","bufferView":0,"byteOffset":0},{"name":"Node-Mesh_0_normals","componentType":5126,"count":1273,"min":[-1,-1,-1],"max":[1,1,1],"type":"VEC3","bufferView":1,"byteOffset":0},{"name":"Node-Mesh_0_texcoords","componentType":5126,"count":1273,"min":[-8.330900192260742,-6.915359973907471],"max":[9.98528003692627,6.968550205230713],"type":"VEC2","bufferView":2,"byteOffset":0},{"name":"Node-Mesh_0_indices","componentType":5123,"count":4272,"min":[0],"max":[1272],"type":"SCALAR","bufferView":3,"byteOffset":0},{"name":"Node-Mesh_1_positions","componentType":5126,"count":16,"min":[-0.5824999809265137,0.11749999970197678,-0.020999999716877937],"max":[0.5824999809265137,1.2825000286102295,-0.014999800361692905],"type":"VEC3","bufferView":0,"byteOffset":15276},{"name":"Node-Mesh_1_normals","componentType":5126,"count":16,"min":[0,0,-1],"max":[0,0,1],"type":"VEC3","bufferView":1,"byteOffset":15276},{"name":"Node-Mesh_1_texcoords","componentType":5126,"count":16,"min":[0,1],"max":[0,1],"type":"VEC2","bufferView":2,"byteOffset":10184},{"name":"Node-Mesh_1_indices","componentType":5123,"count":24,"min":[0],"max":[15],"type":"SCALAR","bufferView":3,"byteOffset":8544}],"asset":{"generator":"obj2gltf","version":"2.0"},"buffers":[{"name":"209","byteLength":49840,"uri":"data:application/octet-stream;base64,"}],"bufferViews":[{"name":"bufferView_0","buffer":0,"byteLength":15468,"byteOffset":0,"byteStride":12,"target":34962},{"name":"bufferView_1","buffer":0,"byteLength":15468,"byteOffset":15468,"byteStride":12,"target":34962},{"name":"bufferView_2","buffer":0,"byteLength":10312,"byteOffset":30936,"byteStride":8,"target":34962},{"name":"bufferView_3","buffer":0,"byteLength":8592,"byteOffset":41248,"target":34963}],"materials":[{"name":"material_0","pbrMetallicRoughness":{"baseColorFactor":[0.64,0.64,0.64,1],"metallicFactor":0,"roughnessFactor":0.95},"emissiveFactor":[0,0,0],"alphaMode":"OPAQUE","doubleSided":false},{"name":"material_1","pbrMetallicRoughness":{"baseColorFactor":[0.4136,0.5648,0.64,0.5],"metallicFactor":0,"roughnessFactor":0.95},"emissiveFactor":[0,0,0],"alphaMode":"BLEND","doubleSided":true}],"meshes":[{"name":"Node-Mesh","primitives":[{"attributes":{"POSITION":0,"NORMAL":1,"TEXCOORD_0":2},"indices":3,"material":0,"mode":4},{"attributes":{"POSITION":4,"NORMAL":5,"TEXCOORD_0":6},"indices":7,"material":1,"mode":4}]}],"nodes":[{"name":"Node","mesh":0}],"scene":0,"scenes":[{"nodes":[0]}]}