{"accessors":[{"name":"Node-Mesh_0_positions","componentType":5126,"count":1079,"min":[-0.41999998688697815,-5.4340699051635966e-8,0.11684300005435944],"max":[0.41999998688697815,0.2398110032081604,0.15763799846172333],"type":"VEC3","bufferView":0,"byteOffset":0},{"name":"Node-Mesh_0_normals","componentType":5126,"count":1079,"min":[-1,-1,-0.9898350834846497],"max":[1,1,1],"type":"VEC3","bufferView":1,"byteOffset":0},{"name":"Node-Mesh_0_indices","componentType":5123,"count":3810,"min":[0],"max":[1078],"type":"SCALAR","bufferView":3,"byteOffset":0},{"name":"Node-Mesh_1_positions","componentType":5126,"count":64,"min":[-0.03198530152440071,0.07206779718399048,0.11826799809932709],"max":[0.03198530152440071,0.13603900372982025,0.15742099285125732],"type":"VEC3","bufferView":0,"byteOffset":12948},{"name":"Node-Mesh_1_normals","componentType":5126,"count":64,"min":[-1,-1,0],"max":[1,1,0.9936655163764954],"type":"VEC3","bufferView":1,"byteOffset":12948},{"name":"Node-Mesh_1_indices","componentType":5123,"count":330,"min":[0],"max":[63],"type":"SCALAR","bufferView":3,"byteOffset":7620},{"name":"Node-Mesh_2_positions","componentType":5126,"count":72,"min":[-0.41809698939323425,0.10342899709939957,0.13899999856948853],"max":[0.41809698939323425,0.3990600109100342,0.1589999943971634],"type":"VEC3","bufferView":0,"byteOffset":13716},{"name":"Node-Mesh_2_normals","componentType":5126,"count":72,"min":[-0.6701474189758301,-0.505946934223175,0.7208711504936218],"max":[0.6701474189758301,0.5059449076652527,0.9500027298927307],"type":"VEC3","bufferView":1,"byteOffset":13716},{"name":"Node-Mesh_2_texcoords","componentType":5126,"count":72,"min":[-1.3355000019073486,0.48217400908470154],"max":[1.6863499879837036,4.75029993057251],"type":"VEC2","bufferView":2,"byteOffset":0},{"name":"Node-Mesh_2_indices","componentType":5123,"count":252,"min":[0],"max":[71],"type":"SCALAR","bufferView":3,"byteOffset":8280},{"name":"Node-Mesh_3_positions","componentType":5126,"count":300,"min":[-0.41999998688697815,-6.876379909925845e-9,-0.1589999943971634],"max":[0.41999998688697815,0.4000000059604645,0.13899999856948853],"type":"VEC3","bufferView":0,"byteOffset":14580},{"name":"Node-Mesh_3_normals","componentType":5126,"count":300,"min":[-1,-1,-1],"max":[1,1,1],"type":"VEC3","bufferView":1,"byteOffset":14580},{"name":"Node-Mesh_3_texcoords","componentType":5126,"count":300,"min":[-9.628589630126953,-5.985660076141357],"max":[6.349100112915039,0.998665988445282],"type":"VEC2","bufferView":2,"byteOffset":576},{"name":"Node-Mesh_3_indices","componentType":5123,"count":972,"min":[0],"max":[299],"type":"SCALAR","bufferView":3,"byteOffset":8784},{"name":"Node-Mesh_4_positions","componentType":5126,"count":964,"min":[-0.13210999965667725,0.1430470049381256,0.12860499322414398],"max":[0.13069500029087067,0.216047003865242,0.12860499322414398],"type":"VEC3","bufferView":0,"byteOffset":18180},{"name":"Node-Mesh_4_normals","componentType":5126,"count":964,"min":[0,0,1],"max":[0,0,1],"type":"VEC3","bufferView":1,"byteOffset":18180},{"name":"Node-Mesh_4_indices","componentType":5123,"count":1596,"min":[0],"max":[963],"type":"SCALAR","bufferView":3,"byteOffset":10728},{"name":"Node-Mesh_5_positions","componentType":5126,"count":40,"min":[-0.20948100090026855,0.11928199976682663,0.12760500609874725],"max":[0.20948100090026855,0.2398110032081604,0.13694100081920624],"type":"VEC3","bufferView":0,"byteOffset":29748},{"name":"Node-Mesh_5_normals","componentType":5126,"count":40,"min":[-0.9884012937545776,-0.9856348037719727,0],"max":[0.9884012937545776,0.9856449961662292,0.9466018080711365],"type":"VEC3","bufferView":1,"byteOffset":29748},{"name":"Node-Mesh_5_indices","componentType":5123,"count":198,"min":[0],"max":[39],"type":"SCALAR","bufferView":3,"byteOffset":13920}],"asset":{"generator":"obj2gltf","version":"2.0"},"buffers":[{"name":"218","byteLength":99124,"uri":"data:application/octet-stream;base64,"}],"bufferViews":[{"name":"bufferView_0","buffer":0,"byteLength":30228,"byteOffset":0,"byteStride":12,"target":34962},{"name":"bufferView_1","buffer":0,"byteLength":30228,"byteOffset":30228,"byteStride":12,"target":34962},{"name":"bufferView_2","buffer":0,"byteLength":2976,"byteOffset":60456,"byteStride":8,"target":34962},{"name":"bufferView_3","buffer":0,"byteLength":14316,"byteOffset":63432,"target":34963},{"buffer":0,"byteOffset":77748,"byteLength":17072},{"buffer":0,"byteOffset":94820,"byteLength":4304}],"images":[{"name":"grid_01","mimeType":"image/jpeg","bufferView":4},{"name":"wood_9","mimeType":"image/jpeg","bufferView":5}],"materials":[{"name":"material_0","pbrMetallicRoughness":{"baseColorFactor":[0,0,0,1],"metallicFactor":0,"roughnessFactor":0.9},"emissiveFactor":[0,0,0],"alphaMode":"OPAQUE","doubleSided":false},{"name":"material_1","pbrMetallicRoughness":{"baseColorFactor":[0,0,0,1],"metallicFactor":0,"roughnessFactor":0.9},"emissiveFactor":[0,0,0],"alphaMode":"OPAQUE","doubleSided":false},{"name":"material_2","pbrMetallicRoughness":{"baseColorTexture":{"index":0},"baseColorFactor":[1,1,1,1],"metallicFactor":0,"roughnessFactor":0.98},"emissiveFactor":[0,0,0],"alphaMode":"OPAQUE","doubleSided":false},{"name":"material_3","pbrMetallicRoughness":{"baseColorTexture":{"index":1},"baseColorFactor":[1,1,1,1],"metallicFactor":0,"roughnessFactor":0.96},"emissiveFactor":[0,0,0],"alphaMode":"OPAQUE","doubleSided":false},{"name":"material_4","pbrMetallicRoughness":{"baseColorFactor":[0,0.740592,0.8,1],"metallicFactor":0,"roughnessFactor":0.999},"emissiveFactor":[0,0,0],"alphaMode":"OPAQUE","doubleSided":false},{"name":"material_5","pbrMetallicRoughness":{"baseColorFactor":[0,0,0,0.3],"metallicFactor":0,"roughnessFactor":0.9},"emissiveFactor":[0,0,0],"alphaMode":"BLEND","doubleSided":true}],"meshes":[{"name":"Node-Mesh","primitives":[{"attributes":{"POSITION":0,"NORMAL":1},"indices":2,"material":0,"mode":4},{"attributes":{"POSITION":3,"NORMAL":4},"indices":5,"material":1,"mode":4},{"attributes":{"POSITION":6,"NORMAL":7,"TEXCOORD_0":8},"indices":9,"material":2,"mode":4},{"attributes":{"POSITION":10,"NORMAL":11,"TEXCOORD_0":12},"indices":13,"material":3,"mode":4},{"attributes":{"POSITION":14,"NORMAL":15},"indices":16,"material":4,"mode":4},{"attributes":{"POSITION":17,"NORMAL":18},"indices":19,"material":5,"mode":4}]}],"nodes":[{"name":"Node","mesh":0}],"samplers":[{"magFilter":9729,"minFilter":9986,"wrapS":10497,"wrapT":10497}],"scene":0,"scenes":[{"nodes":[0]}],"textures":[{"name":"grid_01","sampler":0,"source":0},{"name":"wood_9","sampler":0,"source":1}]}