{"accessors":[{"name":"Node-Mesh_0_positions","componentType":5126,"count":1056,"min":[-0.0670263022184372,0.014428400434553623,0.018381599336862564],"max":[0.5542610287666321,0.07611069828271866,0.02500000037252903],"type":"VEC3","bufferView":0,"byteOffset":0},{"name":"Node-Mesh_0_normals","componentType":5126,"count":1056,"min":[-1,-1,0],"max":[1,1,1],"type":"VEC3","bufferView":1,"byteOffset":0},{"name":"Node-Mesh_0_indices","componentType":5123,"count":2757,"min":[0],"max":[1055],"type":"SCALAR","bufferView":3,"byteOffset":0},{"name":"Node-Mesh_1_positions","componentType":5126,"count":4,"min":[-0.5440340042114258,0.0876208022236824,0.012608200311660767],"max":[0.5544310212135315,0.6777399778366089,0.01260829996317625],"type":"VEC3","bufferView":0,"byteOffset":12672},{"name":"Node-Mesh_1_normals","componentType":5126,"count":4,"min":[0,0,1],"max":[0,0,1],"type":"VEC3","bufferView":1,"byteOffset":12672},{"name":"Node-Mesh_1_texcoords","componentType":5126,"count":4,"min":[0.00007300000288523734,0],"max":[0.9999269843101501,0.9998639822006226],"type":"VEC2","bufferView":2,"byteOffset":0},{"name":"Node-Mesh_1_indices","componentType":5123,"count":6,"min":[0],"max":[3],"type":"SCALAR","bufferView":3,"byteOffset":5516},{"name":"Node-Mesh_2_positions","componentType":5126,"count":252,"min":[-0.6048579812049866,0.03292839974164963,-0.02500000037252903],"max":[0.6151599884033203,0.7324320077896118,0.02338160015642643],"type":"VEC3","bufferView":0,"byteOffset":12720},{"name":"Node-Mesh_2_normals","componentType":5126,"count":252,"min":[-0.9807879328727722,-0.9807879328727722,-1],"max":[0.9807879328727722,0.9807879328727722,1],"type":"VEC3","bufferView":1,"byteOffset":12720},{"name":"Node-Mesh_2_indices","componentType":5123,"count":876,"min":[0],"max":[251],"type":"SCALAR","bufferView":3,"byteOffset":5528},{"name":"Node-Mesh_3_positions","componentType":5126,"count":128,"min":[-0.6148579716682434,0.00292837992310524,0.01338149979710579],"max":[0.6251599788665771,0.7424319982528687,0.018381599336862564],"type":"VEC3","bufferView":0,"byteOffset":15744},{"name":"Node-Mesh_3_normals","componentType":5126,"count":128,"min":[-0.9807879328727722,-0.9807879328727722,-1],"max":[0.9807879328727722,0.9807879328727722,1],"type":"VEC3","bufferView":1,"byteOffset":15744},{"name":"Node-Mesh_3_indices","componentType":5123,"count":456,"min":[0],"max":[127],"type":"SCALAR","bufferView":3,"byteOffset":7280}],"asset":{"generator":"obj2gltf","version":"2.0"},"buffers":[{"name":"228","byteLength":42784,"uri":"data:application/octet-stream;base64,"}],"bufferViews":[{"name":"bufferView_0","buffer":0,"byteLength":17280,"byteOffset":0,"byteStride":12,"target":34962},{"name":"bufferView_1","buffer":0,"byteLength":17280,"byteOffset":17280,"byteStride":12,"target":34962},{"name":"bufferView_2","buffer":0,"byteLength":32,"byteOffset":34560,"byteStride":8,"target":34962},{"name":"bufferView_3","buffer":0,"byteLength":8192,"byteOffset":34592,"target":34963}],"materials":[{"name":"material_0","pbrMetallicRoughness":{"baseColorFactor":[0.8,0.8,0.8,1],"metallicFactor":0,"roughnessFactor":0.95},"emissiveFactor":[0,0,0],"alphaMode":"OPAQUE","doubleSided":false},{"name":"material_1","pbrMetallicRoughness":{"baseColorFactor":[0.05,0.05,0.05,1],"metallicFactor":0,"roughnessFactor":0.95},"emissiveFactor":[0,0,0],"alphaMode":"OPAQUE","doubleSided":false},{"name":"material_2","pbrMetallicRoughness":{"baseColorFactor":[0,0,0,1],"metallicFactor":0,"roughnessFactor":0.9},"emissiveFactor":[0,0,0],"alphaMode":"OPAQUE","doubleSided":false},{"name":"material_3","pbrMetallicRoughness":{"baseColorFactor":[0.52,0.52,0.52,0.5],"metallicFactor":0,"roughnessFactor":0.95},"emissiveFactor":[0,0,0],"alphaMode":"BLEND","doubleSided":true}],"meshes":[{"name":"Node-Mesh","primitives":[{"attributes":{"POSITION":0,"NORMAL":1},"indices":2,"material":0,"mode":4},{"attributes":{"POSITION":3,"NORMAL":4,"TEXCOORD_0":5},"indices":6,"material":1,"mode":4},{"attributes":{"POSITION":7,"NORMAL":8},"indices":9,"material":2,"mode":4},{"attributes":{"POSITION":10,"NORMAL":11},"indices":12,"material":3,"mode":4}]}],"nodes":[{"name":"Node","mesh":0}],"scene":0,"scenes":[{"nodes":[0]}]}