{"accessors":[{"name":"Node-Mesh_0_positions","componentType":5126,"count":587,"min":[-0.32882899045944214,0.2599709928035736,-0.4072299897670746],"max":[0.49655500054359436,1.4290900230407715,0.4320180118083954],"type":"VEC3","bufferView":0,"byteOffset":0},{"name":"Node-Mesh_0_normals","componentType":5126,"count":587,"min":[-0.9945829510688782,0.07477094978094101,-0.9952014088630676],"max":[0.9799004793167114,1,0.9880056977272034],"type":"VEC3","bufferView":1,"byteOffset":0},{"name":"Node-Mesh_0_indices","componentType":5123,"count":2322,"min":[0],"max":[586],"type":"SCALAR","bufferView":2,"byteOffset":0},{"name":"Node-Mesh_1_positions","componentType":5126,"count":456,"min":[-0.09000000357627869,-2.4123900654871022e-9,-0.08999989926815033],"max":[0.09000000357627869,0.2821590006351471,0.09000010043382645],"type":"VEC3","bufferView":0,"byteOffset":7044},{"name":"Node-Mesh_1_normals","componentType":5126,"count":456,"min":[-0.9999973773956299,-1,-0.9999973773956299],"max":[0.9999973773956299,1,0.9999973773956299],"type":"VEC3","bufferView":1,"byteOffset":7044},{"name":"Node-Mesh_1_indices","componentType":5123,"count":2436,"min":[0],"max":[455],"type":"SCALAR","bufferView":2,"byteOffset":4644}],"asset":{"generator":"obj2gltf","version":"2.0"},"buffers":[{"name":"237","byteLength":34548,"uri":"data:application/octet-stream;base64,"}],"bufferViews":[{"name":"bufferView_0","buffer":0,"byteLength":12516,"byteOffset":0,"byteStride":12,"target":34962},{"name":"bufferView_1","buffer":0,"byteLength":12516,"byteOffset":12516,"byteStride":12,"target":34962},{"name":"bufferView_2","buffer":0,"byteLength":9516,"byteOffset":25032,"target":34963}],"materials":[{"name":"material_0","pbrMetallicRoughness":{"baseColorFactor":[0.033973,0.126228,0,1],"metallicFactor":0,"roughnessFactor":0.985},"emissiveFactor":[0,0,0],"alphaMode":"OPAQUE","doubleSided":false},{"name":"material_1","pbrMetallicRoughness":{"baseColorFactor":[0.110063,0.041327,0.007003,1],"metallicFactor":0,"roughnessFactor":0.98201565},"emissiveFactor":[0,0,0],"alphaMode":"OPAQUE","doubleSided":false}],"meshes":[{"name":"Node-Mesh","primitives":[{"attributes":{"POSITION":0,"NORMAL":1},"indices":2,"material":0,"mode":4},{"attributes":{"POSITION":3,"NORMAL":4},"indices":5,"material":1,"mode":4}]}],"nodes":[{"name":"Node","mesh":0}],"scene":0,"scenes":[{"nodes":[0]}]}