{"accessors":[{"name":"Node-Mesh_0_positions","componentType":5126,"count":76,"min":[-1.25,0,-0.75],"max":[1.25,0.019999999552965164,0.75],"type":"VEC3","bufferView":0,"byteOffset":0},{"name":"Node-Mesh_0_normals","componentType":5126,"count":76,"min":[-0.8581860661506653,-0.999199628829956,-0.812809407711029],"max":[0.8581781983375549,0.999199628829956,0.812809407711029],"type":"VEC3","bufferView":1,"byteOffset":0},{"name":"Node-Mesh_0_texcoords","componentType":5126,"count":76,"min":[-3.84637188911438,-4.595743179321289],"max":[4.683313846588135,5.595743179321289],"type":"VEC2","bufferView":2,"byteOffset":0},{"name":"Node-Mesh_0_indices","componentType":5123,"count":324,"min":[0],"max":[75],"type":"SCALAR","bufferView":3,"byteOffset":0}],"asset":{"generator":"obj2gltf","version":"2.0"},"buffers":[{"name":"238","byteLength":52088,"uri":"data:application/octet-stream;base64,"}],"bufferViews":[{"name":"bufferView_0","buffer":0,"byteLength":912,"byteOffset":0,"byteStride":12,"target":34962},{"name":"bufferView_1","buffer":0,"byteLength":912,"byteOffset":912,"byteStride":12,"target":34962},{"name":"bufferView_2","buffer":0,"byteLength":608,"byteOffset":1824,"byteStride":8,"target":34962},{"name":"bufferView_3","buffer":0,"byteLength":648,"byteOffset":2432,"target":34963},{"buffer":0,"byteOffset":3080,"byteLength":49007}],"images":[{"name":"textile_2_7","mimeType":"image/jpeg","bufferView":4}],"materials":[{"name":"material_0","pbrMetallicRoughness":{"baseColorTexture":{"index":0},"baseColorFactor":[1,1,1,1],"metallicFactor":0,"roughnessFactor":0.97515},"emissiveFactor":[0,0,0],"alphaMode":"OPAQUE","doubleSided":false}],"meshes":[{"name":"Node-Mesh","primitives":[{"attributes":{"POSITION":0,"NORMAL":1,"TEXCOORD_0":2},"indices":3,"material":0,"mode":4}]}],"nodes":[{"name":"Node","mesh":0}],"samplers":[{"magFilter":9729,"minFilter":9986,"wrapS":10497,"wrapT":10497}],"scene":0,"scenes":[{"nodes":[0]}],"textures":[{"name":"textile_2_7","sampler":0,"source":0}]}