{"accessors":[{"name":"Node-Mesh_0_positions","componentType":5126,"count":4,"min":[-0.05990590155124664,0.01404740009456873,-0.01669269986450672],"max":[0.05990590155124664,0.10507699847221375,0.005906050093472004],"type":"VEC3","bufferView":0,"byteOffset":0},{"name":"Node-Mesh_0_normals","componentType":5126,"count":4,"min":[0,0.24091948568820953,0.9705451130867004],"max":[0,0.24091948568820953,0.9705451130867004],"type":"VEC3","bufferView":1,"byteOffset":0},{"name":"Node-Mesh_0_texcoords","componentType":5126,"count":4,"min":[0.005419000051915646,0.0031139999628067017],"max":[0.9967899918556213,1.0032360553741455],"type":"VEC2","bufferView":2,"byteOffset":0},{"name":"Node-Mesh_0_indices","componentType":5123,"count":6,"min":[0],"max":[3],"type":"SCALAR","bufferView":3,"byteOffset":0},{"name":"Node-Mesh_1_positions","componentType":5126,"count":56,"min":[-0.06042160093784332,0.01536479964852333,-0.010184300132095814],"max":[0.06042160093784332,0.10760299861431122,0.014875500462949276],"type":"VEC3","bufferView":0,"byteOffset":48},{"name":"Node-Mesh_1_normals","componentType":5126,"count":56,"min":[-0.9315484762191772,-0.9926627278327942,-0.9887151718139648],"max":[0.9315446615219116,0.9926627278327942,0.9887151718139648],"type":"VEC3","bufferView":1,"byteOffset":48},{"name":"Node-Mesh_1_indices","componentType":5123,"count":324,"min":[0],"max":[55],"type":"SCALAR","bufferView":3,"byteOffset":12},{"name":"Node-Mesh_2_positions","componentType":5126,"count":152,"min":[-0.06042160093784332,0.0001135929996962659,-0.06029890105128288],"max":[0.06042160093784332,0.10537700355052948,0.005912330001592636],"type":"VEC3","bufferView":0,"byteOffset":720},{"name":"Node-Mesh_2_normals","componentType":5126,"count":152,"min":[-0.9464272856712341,-0.9967591166496277,-0.9887151718139648],"max":[0.9315446615219116,0.9926627278327942,0.9899722337722778],"type":"VEC3","bufferView":1,"byteOffset":720},{"name":"Node-Mesh_2_texcoords","componentType":5126,"count":152,"min":[0,0],"max":[0.9377089738845825,1],"type":"VEC2","bufferView":2,"byteOffset":32},{"name":"Node-Mesh_2_indices","componentType":5123,"count":642,"min":[0],"max":[151],"type":"SCALAR","bufferView":3,"byteOffset":660},{"name":"Node-Mesh_3_positions","componentType":5126,"count":304,"min":[-0.07500000298023224,0.00009985329961637035,-0.024048099294304848],"max":[0.07500000298023224,0.12128700315952301,0.02415440045297146],"type":"VEC3","bufferView":0,"byteOffset":2544},{"name":"Node-Mesh_3_normals","componentType":5126,"count":304,"min":[-0.9721008539199829,-0.9883912801742554,-0.9985008239746094],"max":[0.9721008539199829,0.9883912801742554,0.9985008239746094],"type":"VEC3","bufferView":1,"byteOffset":2544},{"name":"Node-Mesh_3_texcoords","componentType":5126,"count":304,"min":[-0.4769980013370514,-0.6118699908256531],"max":[1.2816799879074097,1.602952003479004],"type":"VEC2","bufferView":2,"byteOffset":1248},{"name":"Node-Mesh_3_indices","componentType":5123,"count":1296,"min":[0],"max":[303],"type":"SCALAR","bufferView":3,"byteOffset":1944}],"asset":{"generator":"obj2gltf","version":"2.0"},"buffers":[{"name":"257","byteLength":145316,"uri":"data:application/octet-stream;base64,"}],"bufferViews":[{"name":"bufferView_0","buffer":0,"byteLength":6192,"byteOffset":0,"byteStride":12,"target":34962},{"name":"bufferView_1","buffer":0,"byteLength":6192,"byteOffset":6192,"byteStride":12,"target":34962},{"name":"bufferView_2","buffer":0,"byteLength":3680,"byteOffset":12384,"byteStride":8,"target":34962},{"name":"bufferView_3","buffer":0,"byteLength":4536,"byteOffset":16064,"target":34963},{"buffer":0,"byteOffset":20600,"byteLength":15759},{"buffer":0,"byteOffset":36359,"byteLength":56254},{"buffer":0,"byteOffset":92613,"byteLength":52702}],"images":[{"name":"picture","mimeType":"image/jpeg","bufferView":4},{"name":"wood_3","mimeType":"image/jpeg","bufferView":5},{"name":"wood_4","mimeType":"image/jpeg","bufferView":6}],"materials":[{"name":"material_0","pbrMetallicRoughness":{"baseColorTexture":{"index":0},"baseColorFactor":[1,1,1,1],"metallicFactor":0,"roughnessFactor":0.95},"emissiveFactor":[0,0,0],"alphaMode":"OPAQUE","doubleSided":false},{"name":"material_1","pbrMetallicRoughness":{"baseColorFactor":[0.432375,0.607256,0.64,0.3],"metallicFactor":0,"roughnessFactor":0.9},"emissiveFactor":[0,0,0],"alphaMode":"BLEND","doubleSided":true},{"name":"material_2","pbrMetallicRoughness":{"baseColorTexture":{"index":1},"baseColorFactor":[1,1,1,1],"metallicFactor":0,"roughnessFactor":0.99},"emissiveFactor":[0,0,0],"alphaMode":"OPAQUE","doubleSided":false},{"name":"material_3","pbrMetallicRoughness":{"baseColorTexture":{"index":2},"baseColorFactor":[1,1,1,1],"metallicFactor":0,"roughnessFactor":0.96},"emissiveFactor":[0,0,0],"alphaMode":"OPAQUE","doubleSided":false}],"meshes":[{"name":"Node-Mesh","primitives":[{"attributes":{"POSITION":0,"NORMAL":1,"TEXCOORD_0":2},"indices":3,"material":0,"mode":4},{"attributes":{"POSITION":4,"NORMAL":5},"indices":6,"material":1,"mode":4},{"attributes":{"POSITION":7,"NORMAL":8,"TEXCOORD_0":9},"indices":10,"material":2,"mode":4},{"attributes":{"POSITION":11,"NORMAL":12,"TEXCOORD_0":13},"indices":14,"material":3,"mode":4}]}],"nodes":[{"name":"Node","mesh":0}],"samplers":[{"magFilter":9729,"minFilter":9986,"wrapS":10497,"wrapT":10497}],"scene":0,"scenes":[{"nodes":[0]}],"textures":[{"name":"picture","sampler":0,"source":0},{"name":"wood_3","sampler":0,"source":1},{"name":"wood_4","sampler":0,"source":2}]}