{"accessors":[{"name":"Node-Mesh_0_positions","componentType":5126,"count":666,"min":[-0.09032910317182541,0.006950969807803631,-0.08604630082845688],"max":[0.09469620138406754,0.47930198907852173,0.08404179662466049],"type":"VEC3","bufferView":0,"byteOffset":0},{"name":"Node-Mesh_0_normals","componentType":5126,"count":666,"min":[-0.9999880194664001,-0.9513611793518066,-0.9999880194664001],"max":[0.9999817609786987,0.9872051477432251,0.9999655485153198],"type":"VEC3","bufferView":1,"byteOffset":0},{"name":"Node-Mesh_0_indices","componentType":5123,"count":3528,"min":[0],"max":[665],"type":"SCALAR","bufferView":2,"byteOffset":0},{"name":"Node-Mesh_1_positions","componentType":5126,"count":1344,"min":[-0.09062329679727554,0.35578200221061707,-0.09449420124292374],"max":[0.10456600040197372,0.5498660206794739,0.1041409969329834],"type":"VEC3","bufferView":0,"byteOffset":7992},{"name":"Node-Mesh_1_normals","componentType":5126,"count":1344,"min":[-0.9999973177909851,-0.9458239674568176,-0.9999600052833557],"max":[0.9999940395355225,0.9395833015441895,0.999961793422699],"type":"VEC3","bufferView":1,"byteOffset":7992},{"name":"Node-Mesh_1_indices","componentType":5123,"count":7560,"min":[0],"max":[1343],"type":"SCALAR","bufferView":2,"byteOffset":7056},{"name":"Node-Mesh_2_positions","componentType":5126,"count":242,"min":[-0.10940200090408325,-4.5378998336786935e-9,-0.10940200090408325],"max":[0.10940200090408325,0.3335460126399994,0.10940200090408325],"type":"VEC3","bufferView":0,"byteOffset":24120},{"name":"Node-Mesh_2_normals","componentType":5126,"count":242,"min":[-0.9999014735221863,-1,-0.9999014735221863],"max":[0.9999014735221863,1,0.9999014735221863],"type":"VEC3","bufferView":1,"byteOffset":24120},{"name":"Node-Mesh_2_indices","componentType":5123,"count":1440,"min":[0],"max":[241],"type":"SCALAR","bufferView":2,"byteOffset":22176}],"asset":{"generator":"obj2gltf","version":"2.0"},"buffers":[{"name":"258","byteLength":79104,"uri":"data:application/octet-stream;base64,"}],"bufferViews":[{"name":"bufferView_0","buffer":0,"byteLength":27024,"byteOffset":0,"byteStride":12,"target":34962},{"name":"bufferView_1","buffer":0,"byteLength":27024,"byteOffset":27024,"byteStride":12,"target":34962},{"name":"bufferView_2","buffer":0,"byteLength":25056,"byteOffset":54048,"target":34963}],"materials":[{"name":"material_0","pbrMetallicRoughness":{"baseColorFactor":[0.121386,0.350827,0.045592,1],"metallicFactor":0,"roughnessFactor":0.991},"emissiveFactor":[0,0,0],"alphaMode":"OPAQUE","doubleSided":false},{"name":"material_1","pbrMetallicRoughness":{"baseColorFactor":[0.8,0.383387,0.3732,1],"metallicFactor":0,"roughnessFactor":0.986},"emissiveFactor":[0,0,0],"alphaMode":"OPAQUE","doubleSided":false},{"name":"material_2","pbrMetallicRoughness":{"baseColorFactor":[0.8,0.8,0.8,0.5],"metallicFactor":0,"roughnessFactor":0.95},"emissiveFactor":[0,0,0],"alphaMode":"BLEND","doubleSided":true}],"meshes":[{"name":"Node-Mesh","primitives":[{"attributes":{"POSITION":0,"NORMAL":1},"indices":2,"material":0,"mode":4},{"attributes":{"POSITION":3,"NORMAL":4},"indices":5,"material":1,"mode":4},{"attributes":{"POSITION":6,"NORMAL":7},"indices":8,"material":2,"mode":4}]}],"nodes":[{"name":"Node","mesh":0}],"scene":0,"scenes":[{"nodes":[0]}]}