{"accessors":[{"name":"Node-Mesh_0_positions","componentType":5126,"count":1600,"min":[-0.2755729854106903,-1.1944999656066102e-8,-0.27500098943710327],"max":[0.27442699670791626,2.1001598834991455,0.2750000059604645],"type":"VEC3","bufferView":0,"byteOffset":0},{"name":"Node-Mesh_0_normals","componentType":5126,"count":1600,"min":[-1,-1,-1],"max":[1,1,1],"type":"VEC3","bufferView":1,"byteOffset":0},{"name":"Node-Mesh_0_texcoords","componentType":5126,"count":1600,"min":[-2.8839099407196045,-3.79148006439209],"max":[8.933279991149902,6.602320194244385],"type":"VEC2","bufferView":2,"byteOffset":0},{"name":"Node-Mesh_0_indices","componentType":5123,"count":4602,"min":[0],"max":[1599],"type":"SCALAR","bufferView":3,"byteOffset":0}],"asset":{"generator":"obj2gltf","version":"2.0"},"buffers":[{"name":"268","byteLength":66408,"uri":"data:application/octet-stream;base64,"}],"bufferViews":[{"name":"bufferView_0","buffer":0,"byteLength":19200,"byteOffset":0,"byteStride":12,"target":34962},{"name":"bufferView_1","buffer":0,"byteLength":19200,"byteOffset":19200,"byteStride":12,"target":34962},{"name":"bufferView_2","buffer":0,"byteLength":12800,"byteOffset":38400,"byteStride":8,"target":34962},{"name":"bufferView_3","buffer":0,"byteLength":9204,"byteOffset":51200,"target":34963},{"buffer":0,"byteOffset":60404,"byteLength":6003}],"images":[{"name":"wood_8","mimeType":"image/jpeg","bufferView":4}],"materials":[{"name":"material_0","pbrMetallicRoughness":{"baseColorTexture":{"index":0},"baseColorFactor":[1,1,1,1],"metallicFactor":0,"roughnessFactor":0.96},"emissiveFactor":[0,0,0],"alphaMode":"OPAQUE","doubleSided":false}],"meshes":[{"name":"Node-Mesh","primitives":[{"attributes":{"POSITION":0,"NORMAL":1,"TEXCOORD_0":2},"indices":3,"material":0,"mode":4}]}],"nodes":[{"name":"Node","mesh":0}],"samplers":[{"magFilter":9729,"minFilter":9986,"wrapS":10497,"wrapT":10497}],"scene":0,"scenes":[{"nodes":[0]}],"textures":[{"name":"wood_8","sampler":0,"source":0}]}