{"accessors":[{"name":"Node-Mesh_0_positions","componentType":5126,"count":395,"min":[-1.1597900390625,0.005464669782668352,-0.03178729861974716],"max":[1.1597900390625,2.022700071334839,0.041661400347948074],"type":"VEC3","bufferView":0,"byteOffset":0},{"name":"Node-Mesh_0_normals","componentType":5126,"count":395,"min":[-0.9942574501037598,-0.999995231628418,-0.9995760321617126],"max":[0.9410344958305359,0.9999879002571106,0.9999934434890747],"type":"VEC3","bufferView":1,"byteOffset":0},{"name":"Node-Mesh_0_texcoords","componentType":5126,"count":395,"min":[-11.399100303649902,-15.015199661254883],"max":[12.673800468444824,17.112699508666992],"type":"VEC2","bufferView":2,"byteOffset":0},{"name":"Node-Mesh_0_indices","componentType":5123,"count":2040,"min":[0],"max":[394],"type":"SCALAR","bufferView":3,"byteOffset":0},{"name":"Node-Mesh_1_positions","componentType":5126,"count":1890,"min":[-1.224869966506958,2.0224199295043945,-0.06387410312891006],"max":[1.224869966506958,2.1023900508880615,0.06500550359487534],"type":"VEC3","bufferView":0,"byteOffset":4740},{"name":"Node-Mesh_1_normals","componentType":5126,"count":1890,"min":[-1,-1,-1],"max":[1,1,1],"type":"VEC3","bufferView":1,"byteOffset":4740},{"name":"Node-Mesh_1_texcoords","componentType":5126,"count":1890,"min":[-4.233260154724121,-4.390550136566162],"max":[5.19582986831665,5.405429840087891],"type":"VEC2","bufferView":2,"byteOffset":3160},{"name":"Node-Mesh_1_indices","componentType":5123,"count":7788,"min":[0],"max":[1889],"type":"SCALAR","bufferView":3,"byteOffset":4080}],"asset":{"generator":"obj2gltf","version":"2.0"},"buffers":[{"name":"275","byteLength":190776,"uri":"data:application/octet-stream;base64,"}],"bufferViews":[{"name":"bufferView_0","buffer":0,"byteLength":27420,"byteOffset":0,"byteStride":12,"target":34962},{"name":"bufferView_1","buffer":0,"byteLength":27420,"byteOffset":27420,"byteStride":12,"target":34962},{"name":"bufferView_2","buffer":0,"byteLength":18280,"byteOffset":54840,"byteStride":8,"target":34962},{"name":"bufferView_3","buffer":0,"byteLength":19656,"byteOffset":73120,"target":34963},{"buffer":0,"byteOffset":92776,"byteLength":41744},{"buffer":0,"byteOffset":134520,"byteLength":56254}],"images":[{"name":"textile_3_2","mimeType":"image/jpeg","bufferView":4},{"name":"wood_3","mimeType":"image/jpeg","bufferView":5}],"materials":[{"name":"material_0","pbrMetallicRoughness":{"baseColorTexture":{"index":0},"baseColorFactor":[1,1,1,1],"metallicFactor":0,"roughnessFactor":0.95},"emissiveFactor":[0,0,0],"alphaMode":"OPAQUE","doubleSided":false},{"name":"material_1","pbrMetallicRoughness":{"baseColorTexture":{"index":1},"baseColorFactor":[1,1,1,1],"metallicFactor":0,"roughnessFactor":0.922},"emissiveFactor":[0,0,0],"alphaMode":"OPAQUE","doubleSided":false}],"meshes":[{"name":"Node-Mesh","primitives":[{"attributes":{"POSITION":0,"NORMAL":1,"TEXCOORD_0":2},"indices":3,"material":0,"mode":4},{"attributes":{"POSITION":4,"NORMAL":5,"TEXCOORD_0":6},"indices":7,"material":1,"mode":4}]}],"nodes":[{"name":"Node","mesh":0}],"samplers":[{"magFilter":9729,"minFilter":9986,"wrapS":10497,"wrapT":10497}],"scene":0,"scenes":[{"nodes":[0]}],"textures":[{"name":"textile_3_2","sampler":0,"source":0},{"name":"wood_3","sampler":0,"source":1}]}