{"accessors":[{"name":"Node-Mesh_0_positions","componentType":5126,"count":188,"min":[-0.18342599272727966,0.026056300848722458,-0.18342599272727966],"max":[0.18342599272727966,0.05974460020661354,0.18342599272727966],"type":"VEC3","bufferView":0,"byteOffset":0},{"name":"Node-Mesh_0_normals","componentType":5126,"count":188,"min":[-1,-1,-1],"max":[1,1,1],"type":"VEC3","bufferView":1,"byteOffset":0},{"name":"Node-Mesh_0_indices","componentType":5123,"count":636,"min":[0],"max":[187],"type":"SCALAR","bufferView":3,"byteOffset":0},{"name":"Node-Mesh_1_positions","componentType":5126,"count":480,"min":[-0.09509900212287903,0.35555499792099,0.13675199449062347],"max":[0.09509880095720291,0.9552180171012878,0.14451999962329865],"type":"VEC3","bufferView":0,"byteOffset":2256},{"name":"Node-Mesh_1_normals","componentType":5126,"count":480,"min":[-1,-1,0],"max":[1,1,0.9998523592948914],"type":"VEC3","bufferView":1,"byteOffset":2256},{"name":"Node-Mesh_1_indices","componentType":5123,"count":2496,"min":[0],"max":[479],"type":"SCALAR","bufferView":3,"byteOffset":1272},{"name":"Node-Mesh_2_positions","componentType":5126,"count":536,"min":[-0.17689399421215057,-6.861530010837669e-9,-0.17498700320720673],"max":[0.17689399421215057,0.9319679737091064,0.17498700320720673],"type":"VEC3","bufferView":0,"byteOffset":8016},{"name":"Node-Mesh_2_normals","componentType":5126,"count":536,"min":[-0.978698194026947,-1,-0.978698194026947],"max":[0.978698194026947,0.9300324320793152,1],"type":"VEC3","bufferView":1,"byteOffset":8016},{"name":"Node-Mesh_2_indices","componentType":5123,"count":1968,"min":[0],"max":[535],"type":"SCALAR","bufferView":3,"byteOffset":6264},{"name":"Node-Mesh_3_positions","componentType":5126,"count":132,"min":[-0.13740800321102142,0.026418400928378105,-0.13740800321102142],"max":[0.13740800321102142,0.9698709845542908,0.13740800321102142],"type":"VEC3","bufferView":0,"byteOffset":14448},{"name":"Node-Mesh_3_normals","componentType":5126,"count":132,"min":[-1,-1,-1],"max":[1,1,1],"type":"VEC3","bufferView":1,"byteOffset":14448},{"name":"Node-Mesh_3_texcoords","componentType":5126,"count":132,"min":[0.0006649999995715916,-8.850029945373535],"max":[3.255460023880005,0.9993339776992798],"type":"VEC2","bufferView":2,"byteOffset":0},{"name":"Node-Mesh_3_indices","componentType":5123,"count":441,"min":[0],"max":[131],"type":"SCALAR","bufferView":3,"byteOffset":10200}],"asset":{"generator":"obj2gltf","version":"2.0"},"buffers":[{"name":"278","byteLength":100460,"uri":"data:application/octet-stream;base64,"}],"bufferViews":[{"name":"bufferView_0","buffer":0,"byteLength":16032,"byteOffset":0,"byteStride":12,"target":34962},{"name":"bufferView_1","buffer":0,"byteLength":16032,"byteOffset":16032,"byteStride":12,"target":34962},{"name":"bufferView_2","buffer":0,"byteLength":1056,"byteOffset":32064,"byteStride":8,"target":34962},{"name":"bufferView_3","buffer":0,"byteLength":11084,"byteOffset":33120,"target":34963},{"buffer":0,"byteOffset":44204,"byteLength":56254}],"images":[{"name":"wood_3","mimeType":"image/jpeg","bufferView":4}],"materials":[{"name":"material_0","pbrMetallicRoughness":{"baseColorFactor":[0.021766,0.021766,0.021766,1],"metallicFactor":0,"roughnessFactor":0.90403235},"emissiveFactor":[0,0,0],"alphaMode":"OPAQUE","doubleSided":false},{"name":"material_1","pbrMetallicRoughness":{"baseColorFactor":[0.017582,0.017582,0.017582,1],"metallicFactor":0,"roughnessFactor":0.95},"emissiveFactor":[0,0,0],"alphaMode":"OPAQUE","doubleSided":false},{"name":"material_2","pbrMetallicRoughness":{"baseColorFactor":[0.706327,0.706327,0.706327,1],"metallicFactor":0,"roughnessFactor":0.95},"emissiveFactor":[0,0,0],"alphaMode":"OPAQUE","doubleSided":false},{"name":"material_3","pbrMetallicRoughness":{"baseColorTexture":{"index":0},"baseColorFactor":[1,1,1,1],"metallicFactor":0,"roughnessFactor":0.96},"emissiveFactor":[0,0,0],"alphaMode":"OPAQUE","doubleSided":false}],"meshes":[{"name":"Node-Mesh","primitives":[{"attributes":{"POSITION":0,"NORMAL":1},"indices":2,"material":0,"mode":4},{"attributes":{"POSITION":3,"NORMAL":4},"indices":5,"material":1,"mode":4},{"attributes":{"POSITION":6,"NORMAL":7},"indices":8,"material":2,"mode":4},{"attributes":{"POSITION":9,"NORMAL":10,"TEXCOORD_0":11},"indices":12,"material":3,"mode":4}]}],"nodes":[{"name":"Node","mesh":0}],"samplers":[{"magFilter":9729,"minFilter":9986,"wrapS":10497,"wrapT":10497}],"scene":0,"scenes":[{"nodes":[0]}],"textures":[{"name":"wood_3","sampler":0,"source":0}]}