{"accessors":[{"name":"Node-Mesh_0_positions","componentType":5126,"count":120,"min":[-0.08998069912195206,0.05001930147409439,0.010999299585819244],"max":[0.08998069912195206,0.23956699669361115,0.014028199948370457],"type":"VEC3","bufferView":0,"byteOffset":0},{"name":"Node-Mesh_0_normals","componentType":5126,"count":120,"min":[-0.8090663552284241,-0.800211489200592,-0.6987292766571045],"max":[0.8084797263145447,0.8061912655830383,0.8964969515800476],"type":"VEC3","bufferView":1,"byteOffset":0},{"name":"Node-Mesh_0_indices","componentType":5123,"count":480,"min":[0],"max":[119],"type":"SCALAR","bufferView":2,"byteOffset":0},{"name":"Node-Mesh_1_positions","componentType":5126,"count":8,"min":[-0.12006700038909912,0.01993280090391636,0.010962200351059437],"max":[0.12006700038909912,0.2600669860839844,0.010962200351059437],"type":"VEC3","bufferView":0,"byteOffset":1440},{"name":"Node-Mesh_1_normals","componentType":5126,"count":8,"min":[0,0,1],"max":[0,0,1],"type":"VEC3","bufferView":1,"byteOffset":1440},{"name":"Node-Mesh_1_indices","componentType":5123,"count":18,"min":[0],"max":[7],"type":"SCALAR","bufferView":2,"byteOffset":960},{"name":"Node-Mesh_2_positions","componentType":5126,"count":528,"min":[-0.14000000059604645,0.0018436299869790673,-0.013961900025606155],"max":[0.14000000059604645,0.27815601229667664,0.01403809990733862],"type":"VEC3","bufferView":0,"byteOffset":1536},{"name":"Node-Mesh_2_normals","componentType":5126,"count":528,"min":[-0.9966495633125305,-0.9967316389083862,-1],"max":[0.9966495633125305,0.9967316389083862,0.995615541934967],"type":"VEC3","bufferView":1,"byteOffset":1536},{"name":"Node-Mesh_2_indices","componentType":5123,"count":2730,"min":[0],"max":[527],"type":"SCALAR","bufferView":2,"byteOffset":996}],"asset":{"generator":"obj2gltf","version":"2.0"},"buffers":[{"name":"313","byteLength":22200,"uri":"data:application/octet-stream;base64,"}],"bufferViews":[{"name":"bufferView_0","buffer":0,"byteLength":7872,"byteOffset":0,"byteStride":12,"target":34962},{"name":"bufferView_1","buffer":0,"byteLength":7872,"byteOffset":7872,"byteStride":12,"target":34962},{"name":"bufferView_2","buffer":0,"byteLength":6456,"byteOffset":15744,"target":34963}],"materials":[{"name":"material_0","pbrMetallicRoughness":{"baseColorFactor":[0.007214,0.007214,0.007214,1],"metallicFactor":0,"roughnessFactor":0.95},"emissiveFactor":[0,0,0],"alphaMode":"OPAQUE","doubleSided":false},{"name":"material_1","pbrMetallicRoughness":{"baseColorFactor":[0.8,0.8,0.8,1],"metallicFactor":0,"roughnessFactor":0.95},"emissiveFactor":[0,0,0],"alphaMode":"OPAQUE","doubleSided":false},{"name":"material_2","pbrMetallicRoughness":{"baseColorFactor":[0.236548,0.236548,0.236548,1],"metallicFactor":0,"roughnessFactor":0.854},"emissiveFactor":[0,0,0],"alphaMode":"OPAQUE","doubleSided":false}],"meshes":[{"name":"Node-Mesh","primitives":[{"attributes":{"POSITION":0,"NORMAL":1},"indices":2,"material":0,"mode":4},{"attributes":{"POSITION":3,"NORMAL":4},"indices":5,"material":1,"mode":4},{"attributes":{"POSITION":6,"NORMAL":7},"indices":8,"material":2,"mode":4}]}],"nodes":[{"name":"Node","mesh":0}],"scene":0,"scenes":[{"nodes":[0]}]}