{"accessors":[{"name":"Node-Mesh_0_positions","componentType":5126,"count":56,"min":[-0.27000001072883606,0.03999999910593033,-0.07281170040369034],"max":[0.27000001072883606,0.9600009918212891,-0.0628117024898529],"type":"VEC3","bufferView":0,"byteOffset":0},{"name":"Node-Mesh_0_normals","componentType":5126,"count":56,"min":[-0.9077370166778564,-0.991304337978363,-0.9622496366500854],"max":[0.9077370166778564,0.991304874420166,0.9622563719749451],"type":"VEC3","bufferView":1,"byteOffset":0},{"name":"Node-Mesh_0_indices","componentType":5123,"count":324,"min":[0],"max":[55],"type":"SCALAR","bufferView":3,"byteOffset":0},{"name":"Node-Mesh_1_positions","componentType":5126,"count":304,"min":[-0.3100009858608246,4.902869776834962e-10,-0.07500000298023224],"max":[0.3100000023841858,1,0.07500000298023224],"type":"VEC3","bufferView":0,"byteOffset":672},{"name":"Node-Mesh_1_normals","componentType":5126,"count":304,"min":[-0.9930794835090637,-0.9615077376365662,-0.9428254961967468],"max":[0.9930794835090637,0.9615116715431213,0.9428254961967468],"type":"VEC3","bufferView":1,"byteOffset":672},{"name":"Node-Mesh_1_texcoords","componentType":5126,"count":304,"min":[-0.5335999727249146,-1.2882399559020996],"max":[1.5257899761199951,2.300309896469116],"type":"VEC2","bufferView":2,"byteOffset":0},{"name":"Node-Mesh_1_indices","componentType":5123,"count":1296,"min":[0],"max":[303],"type":"SCALAR","bufferView":3,"byteOffset":648}],"asset":{"generator":"obj2gltf","version":"2.0"},"buffers":[{"name":"314","byteLength":20316,"uri":"data:application/octet-stream;base64,"}],"bufferViews":[{"name":"bufferView_0","buffer":0,"byteLength":4320,"byteOffset":0,"byteStride":12,"target":34962},{"name":"bufferView_1","buffer":0,"byteLength":4320,"byteOffset":4320,"byteStride":12,"target":34962},{"name":"bufferView_2","buffer":0,"byteLength":2432,"byteOffset":8640,"byteStride":8,"target":34962},{"name":"bufferView_3","buffer":0,"byteLength":3240,"byteOffset":11072,"target":34963},{"buffer":0,"byteOffset":14312,"byteLength":6003}],"images":[{"name":"wood_8","mimeType":"image/jpeg","bufferView":4}],"materials":[{"name":"material_0","pbrMetallicRoughness":{"baseColorFactor":[0.422442,0.54732,0.64,1],"metallicFactor":0,"roughnessFactor":0.9},"emissiveFactor":[0,0,0],"alphaMode":"OPAQUE","doubleSided":false},{"name":"material_1","pbrMetallicRoughness":{"baseColorTexture":{"index":0},"baseColorFactor":[1,1,1,1],"metallicFactor":0,"roughnessFactor":0.96},"emissiveFactor":[0,0,0],"alphaMode":"OPAQUE","doubleSided":false}],"meshes":[{"name":"Node-Mesh","primitives":[{"attributes":{"POSITION":0,"NORMAL":1},"indices":2,"material":0,"mode":4},{"attributes":{"POSITION":3,"NORMAL":4,"TEXCOORD_0":5},"indices":6,"material":1,"mode":4}]}],"nodes":[{"name":"Node","mesh":0}],"samplers":[{"magFilter":9729,"minFilter":9986,"wrapS":10497,"wrapT":10497}],"scene":0,"scenes":[{"nodes":[0]}],"textures":[{"name":"wood_8","sampler":0,"source":0}]}