{"accessors":[{"name":"Node-Mesh_0_positions","componentType":5126,"count":32,"min":[-0.054737601429224014,0.2696869969367981,-0.09114900231361389],"max":[0.09290280193090439,0.3005090057849884,0.11007799953222275],"type":"VEC3","bufferView":0,"byteOffset":0},{"name":"Node-Mesh_0_normals","componentType":5126,"count":32,"min":[-0.725616455078125,-0.7709782123565674,-0.8080813884735107],"max":[0.6754686236381531,0.7709782123565674,0.8123334646224976],"type":"VEC3","bufferView":1,"byteOffset":0},{"name":"Node-Mesh_0_indices","componentType":5123,"count":180,"min":[0],"max":[31],"type":"SCALAR","bufferView":2,"byteOffset":0},{"name":"Node-Mesh_1_positions","componentType":5126,"count":32,"min":[-0.054737601429224014,0.2385839968919754,-0.09114900231361389],"max":[0.09290280193090439,0.2694059908390045,0.11007799953222275],"type":"VEC3","bufferView":0,"byteOffset":384},{"name":"Node-Mesh_1_normals","componentType":5126,"count":32,"min":[-0.725616455078125,-0.7709782123565674,-0.8080813884735107],"max":[0.6754686236381531,0.7709782123565674,0.8123334646224976],"type":"VEC3","bufferView":1,"byteOffset":384},{"name":"Node-Mesh_1_indices","componentType":5123,"count":180,"min":[0],"max":[31],"type":"SCALAR","bufferView":2,"byteOffset":360},{"name":"Node-Mesh_2_positions","componentType":5126,"count":32,"min":[-0.054737601429224014,0.20737600326538086,-0.09114889800548553],"max":[0.09290280193090439,0.23819799721240997,0.11007799953222275],"type":"VEC3","bufferView":0,"byteOffset":768},{"name":"Node-Mesh_2_normals","componentType":5126,"count":32,"min":[-0.725616455078125,-0.7709782123565674,-0.8080813884735107],"max":[0.6754686236381531,0.7709782123565674,0.8123334646224976],"type":"VEC3","bufferView":1,"byteOffset":768},{"name":"Node-Mesh_2_indices","componentType":5123,"count":180,"min":[0],"max":[31],"type":"SCALAR","bufferView":2,"byteOffset":720},{"name":"Node-Mesh_3_positions","componentType":5126,"count":32,"min":[-0.054737601429224014,0.1756190061569214,-0.08186019957065582],"max":[0.09290280193090439,0.2064419984817505,0.10987400263547897],"type":"VEC3","bufferView":0,"byteOffset":1152},{"name":"Node-Mesh_3_normals","componentType":5126,"count":32,"min":[-0.725616455078125,-0.7753981351852417,-0.8069941401481628],"max":[0.6754686236381531,0.7753981351852417,0.8123334646224976],"type":"VEC3","bufferView":1,"byteOffset":1152},{"name":"Node-Mesh_3_indices","componentType":5123,"count":180,"min":[0],"max":[31],"type":"SCALAR","bufferView":2,"byteOffset":1080},{"name":"Node-Mesh_4_positions","componentType":5126,"count":32,"min":[-0.0690222978591919,0.1155489981174469,-0.08186019957065582],"max":[0.09327910095453262,0.17494599521160126,0.10987400263547897],"type":"VEC3","bufferView":0,"byteOffset":1536},{"name":"Node-Mesh_4_normals","componentType":5126,"count":32,"min":[-0.7192136645317078,-0.7453844547271729,-0.7873641848564148],"max":[0.690339982509613,0.7453844547271729,0.8009787797927856],"type":"VEC3","bufferView":1,"byteOffset":1536},{"name":"Node-Mesh_4_indices","componentType":5123,"count":180,"min":[0],"max":[31],"type":"SCALAR","bufferView":2,"byteOffset":1440},{"name":"Node-Mesh_5_positions","componentType":5126,"count":32,"min":[-0.0949999988079071,0.05021379888057709,-0.10877600312232971],"max":[0.0949999988079071,0.1148030012845993,0.11122400313615799],"type":"VEC3","bufferView":0,"byteOffset":1920},{"name":"Node-Mesh_5_normals","componentType":5126,"count":32,"min":[-0.7199827432632446,-0.7381100058555603,-0.7925237417221069],"max":[0.6889021396636963,0.7381100058555603,0.7961797714233398],"type":"VEC3","bufferView":1,"byteOffset":1920},{"name":"Node-Mesh_5_indices","componentType":5123,"count":180,"min":[0],"max":[31],"type":"SCALAR","bufferView":2,"byteOffset":1800},{"name":"Node-Mesh_6_positions","componentType":5126,"count":140,"min":[-0.08855029940605164,0.0011599999852478504,-0.1043429970741272],"max":[0.09001670032739639,0.2997939884662628,0.10749399662017822],"type":"VEC3","bufferView":0,"byteOffset":2304},{"name":"Node-Mesh_6_normals","componentType":5126,"count":140,"min":[-0.7209761738777161,-0.6137499213218689,-0.7218134999275208],"max":[0.7003888487815857,0.6137499213218689,0.7218134999275208],"type":"VEC3","bufferView":1,"byteOffset":2304},{"name":"Node-Mesh_6_indices","componentType":5123,"count":756,"min":[0],"max":[139],"type":"SCALAR","bufferView":2,"byteOffset":2160},{"name":"Node-Mesh_7_positions","componentType":5126,"count":32,"min":[-0.07651729881763458,-3.765590061988178e-9,-0.08676370233297348],"max":[0.09348270297050476,0.05000000074505806,0.11102700233459473],"type":"VEC3","bufferView":0,"byteOffset":3984},{"name":"Node-Mesh_7_normals","componentType":5126,"count":32,"min":[-0.7215539216995239,-0.7447621822357178,-0.7988967895507812],"max":[0.6857094764709473,0.7447481751441956,0.8003368973731995],"type":"VEC3","bufferView":1,"byteOffset":3984},{"name":"Node-Mesh_7_indices","componentType":5123,"count":180,"min":[0],"max":[31],"type":"SCALAR","bufferView":2,"byteOffset":3672}],"asset":{"generator":"obj2gltf","version":"2.0"},"buffers":[{"name":"319","byteLength":12768,"uri":"data:application/octet-stream;base64,"}],"bufferViews":[{"name":"bufferView_0","buffer":0,"byteLength":4368,"byteOffset":0,"byteStride":12,"target":34962},{"name":"bufferView_1","buffer":0,"byteLength":4368,"byteOffset":4368,"byteStride":12,"target":34962},{"name":"bufferView_2","buffer":0,"byteLength":4032,"byteOffset":8736,"target":34963}],"materials":[{"name":"material_0","pbrMetallicRoughness":{"baseColorFactor":[0.64,0.309328,0.151509,1],"metallicFactor":0,"roughnessFactor":0.995},"emissiveFactor":[0,0,0],"alphaMode":"OPAQUE","doubleSided":false},{"name":"material_1","pbrMetallicRoughness":{"baseColorFactor":[0.515815,0.64,0.375329,1],"metallicFactor":0,"roughnessFactor":0.995},"emissiveFactor":[0,0,0],"alphaMode":"OPAQUE","doubleSided":false},{"name":"material_2","pbrMetallicRoughness":{"baseColorFactor":[0.64,0.517821,0.568271,1],"metallicFactor":0,"roughnessFactor":0.995},"emissiveFactor":[0,0,0],"alphaMode":"OPAQUE","doubleSided":false},{"name":"material_3","pbrMetallicRoughness":{"baseColorFactor":[0.078912,0.08752,0.366017,1],"metallicFactor":0,"roughnessFactor":0.995},"emissiveFactor":[0,0,0],"alphaMode":"OPAQUE","doubleSided":false},{"name":"material_4","pbrMetallicRoughness":{"baseColorFactor":[0.020722,0.088548,0.010715,1],"metallicFactor":0,"roughnessFactor":0.995},"emissiveFactor":[0,0,0],"alphaMode":"OPAQUE","doubleSided":false},{"name":"material_5","pbrMetallicRoughness":{"baseColorFactor":[0.64,0.187433,0.113832,1],"metallicFactor":0,"roughnessFactor":0.995},"emissiveFactor":[0,0,0],"alphaMode":"OPAQUE","doubleSided":false},{"name":"material_6","pbrMetallicRoughness":{"baseColorFactor":[0.778483,0.787897,0.623463,1],"metallicFactor":0,"roughnessFactor":0.995},"emissiveFactor":[0,0,0],"alphaMode":"OPAQUE","doubleSided":false},{"name":"material_7","pbrMetallicRoughness":{"baseColorFactor":[0.310388,0.52326,0.64,1],"metallicFactor":0,"roughnessFactor":0.995},"emissiveFactor":[0,0,0],"alphaMode":"OPAQUE","doubleSided":false}],"meshes":[{"name":"Node-Mesh","primitives":[{"attributes":{"POSITION":0,"NORMAL":1},"indices":2,"material":0,"mode":4},{"attributes":{"POSITION":3,"NORMAL":4},"indices":5,"material":1,"mode":4},{"attributes":{"POSITION":6,"NORMAL":7},"indices":8,"material":2,"mode":4},{"attributes":{"POSITION":9,"NORMAL":10},"indices":11,"material":3,"mode":4},{"attributes":{"POSITION":12,"NORMAL":13},"indices":14,"material":4,"mode":4},{"attributes":{"POSITION":15,"NORMAL":16},"indices":17,"material":5,"mode":4},{"attributes":{"POSITION":18,"NORMAL":19},"indices":20,"material":6,"mode":4},{"attributes":{"POSITION":21,"NORMAL":22},"indices":23,"material":7,"mode":4}]}],"nodes":[{"name":"Node","mesh":0}],"scene":0,"scenes":[{"nodes":[0]}]}