{"accessors":[{"name":"Node-Mesh_0_positions","componentType":5126,"count":140,"min":[-0.14883999526500702,0.0025059599429368973,-0.09001670032739639],"max":[0.14979399740695953,0.21434299647808075,0.08855029940605164],"type":"VEC3","bufferView":0,"byteOffset":0},{"name":"Node-Mesh_0_normals","componentType":5126,"count":140,"min":[-0.6137499213218689,-0.7218134999275208,-0.7003888487815857],"max":[0.6137499213218689,0.7218134999275208,0.7209761738777161],"type":"VEC3","bufferView":1,"byteOffset":0},{"name":"Node-Mesh_0_indices","componentType":5123,"count":756,"min":[0],"max":[139],"type":"SCALAR","bufferView":2,"byteOffset":0},{"name":"Node-Mesh_1_positions","componentType":5126,"count":32,"min":[0.11968699842691422,-0.00007760050357319415,-0.09290280193090439],"max":[0.15050899982452393,0.20114900171756744,0.054737601429224014],"type":"VEC3","bufferView":0,"byteOffset":1680},{"name":"Node-Mesh_1_normals","componentType":5126,"count":32,"min":[-0.7709782123565674,-0.8123334646224976,-0.6754686236381531],"max":[0.7709782123565674,0.8080813884735107,0.725616455078125],"type":"VEC3","bufferView":1,"byteOffset":1680},{"name":"Node-Mesh_1_indices","componentType":5123,"count":180,"min":[0],"max":[31],"type":"SCALAR","bufferView":2,"byteOffset":1512},{"name":"Node-Mesh_2_positions","componentType":5126,"count":32,"min":[0.0885837972164154,-0.00007760280277580023,-0.09290280193090439],"max":[0.11940599977970123,0.20114900171756744,0.054737601429224014],"type":"VEC3","bufferView":0,"byteOffset":2064},{"name":"Node-Mesh_2_normals","componentType":5126,"count":32,"min":[-0.7709782123565674,-0.8123334646224976,-0.6754686236381531],"max":[0.7709782123565674,0.8080813884735107,0.725616455078125],"type":"VEC3","bufferView":1,"byteOffset":2064},{"name":"Node-Mesh_2_indices","componentType":5123,"count":180,"min":[0],"max":[31],"type":"SCALAR","bufferView":2,"byteOffset":1872},{"name":"Node-Mesh_3_positions","componentType":5126,"count":32,"min":[0.057375501841306686,-0.0000776051965658553,-0.09290280193090439],"max":[0.08819799870252609,0.20114900171756744,0.054737601429224014],"type":"VEC3","bufferView":0,"byteOffset":2448},{"name":"Node-Mesh_3_normals","componentType":5126,"count":32,"min":[-0.7709782123565674,-0.8123334646224976,-0.6754686236381531],"max":[0.7709782123565674,0.8080813884735107,0.725616455078125],"type":"VEC3","bufferView":1,"byteOffset":2448},{"name":"Node-Mesh_3_indices","componentType":5123,"count":180,"min":[0],"max":[31],"type":"SCALAR","bufferView":2,"byteOffset":2232},{"name":"Node-Mesh_4_positions","componentType":5126,"count":32,"min":[0.025619499385356903,0.000125753998872824,-0.09290280193090439],"max":[0.05644189938902855,0.19186000525951385,0.054737601429224014],"type":"VEC3","bufferView":0,"byteOffset":2832},{"name":"Node-Mesh_4_normals","componentType":5126,"count":32,"min":[-0.775412917137146,-0.8123334646224976,-0.6754686236381531],"max":[0.7753981351852417,0.8069941401481628,0.725616455078125],"type":"VEC3","bufferView":1,"byteOffset":2832},{"name":"Node-Mesh_4_indices","componentType":5123,"count":180,"min":[0],"max":[31],"type":"SCALAR","bufferView":2,"byteOffset":2592},{"name":"Node-Mesh_5_positions","componentType":5126,"count":32,"min":[-0.0344512015581131,0.00012575100117828697,-0.09327910095453262],"max":[0.02494640089571476,0.19186000525951385,0.0690222978591919],"type":"VEC3","bufferView":0,"byteOffset":3216},{"name":"Node-Mesh_5_normals","componentType":5126,"count":32,"min":[-0.7453844547271729,-0.8009787797927856,-0.690339982509613],"max":[0.7453844547271729,0.7873641848564148,0.7192136645317078],"type":"VEC3","bufferView":1,"byteOffset":3216},{"name":"Node-Mesh_5_indices","componentType":5123,"count":180,"min":[0],"max":[31],"type":"SCALAR","bufferView":2,"byteOffset":2952},{"name":"Node-Mesh_6_positions","componentType":5126,"count":32,"min":[-0.0997861996293068,-0.001493340008892119,-0.09353979676961899],"max":[-0.03519719839096069,0.21903899312019348,0.09353990107774734],"type":"VEC3","bufferView":0,"byteOffset":3600},{"name":"Node-Mesh_6_normals","componentType":5126,"count":32,"min":[-0.7376106381416321,-0.7971886396408081,-0.6892240643501282],"max":[0.7376106381416321,0.7917872071266174,0.7198131680488586],"type":"VEC3","bufferView":1,"byteOffset":3600},{"name":"Node-Mesh_6_indices","componentType":5123,"count":180,"min":[0],"max":[31],"type":"SCALAR","bufferView":2,"byteOffset":3312},{"name":"Node-Mesh_7_positions","componentType":5126,"count":32,"min":[-0.15000000596046448,-0.0010273599764332175,-0.09348270297050476],"max":[-0.10000000149011612,0.1967640072107315,0.07651729881763458],"type":"VEC3","bufferView":0,"byteOffset":3984},{"name":"Node-Mesh_7_normals","componentType":5126,"count":32,"min":[-0.7447621822357178,-0.8003368973731995,-0.6857094764709473],"max":[0.7447348237037659,0.7988967895507812,0.7215539216995239],"type":"VEC3","bufferView":1,"byteOffset":3984},{"name":"Node-Mesh_7_indices","componentType":5123,"count":180,"min":[0],"max":[31],"type":"SCALAR","bufferView":2,"byteOffset":3672}],"asset":{"generator":"obj2gltf","version":"2.0"},"buffers":[{"name":"320","byteLength":12768,"uri":"data:application/octet-stream;base64,"}],"bufferViews":[{"name":"bufferView_0","buffer":0,"byteLength":4368,"byteOffset":0,"byteStride":12,"target":34962},{"name":"bufferView_1","buffer":0,"byteLength":4368,"byteOffset":4368,"byteStride":12,"target":34962},{"name":"bufferView_2","buffer":0,"byteLength":4032,"byteOffset":8736,"target":34963}],"materials":[{"name":"material_0","pbrMetallicRoughness":{"baseColorFactor":[0.778483,0.787897,0.623463,1],"metallicFactor":0,"roughnessFactor":0.995},"emissiveFactor":[0,0,0],"alphaMode":"OPAQUE","doubleSided":false},{"name":"material_1","pbrMetallicRoughness":{"baseColorFactor":[0.64,0.309328,0.151509,1],"metallicFactor":0,"roughnessFactor":0.995},"emissiveFactor":[0,0,0],"alphaMode":"OPAQUE","doubleSided":false},{"name":"material_2","pbrMetallicRoughness":{"baseColorFactor":[0.515815,0.64,0.375329,1],"metallicFactor":0,"roughnessFactor":0.995},"emissiveFactor":[0,0,0],"alphaMode":"OPAQUE","doubleSided":false},{"name":"material_3","pbrMetallicRoughness":{"baseColorFactor":[0.64,0.517821,0.568271,1],"metallicFactor":0,"roughnessFactor":0.995},"emissiveFactor":[0,0,0],"alphaMode":"OPAQUE","doubleSided":false},{"name":"material_4","pbrMetallicRoughness":{"baseColorFactor":[0.078912,0.08752,0.366017,1],"metallicFactor":0,"roughnessFactor":0.995},"emissiveFactor":[0,0,0],"alphaMode":"OPAQUE","doubleSided":false},{"name":"material_5","pbrMetallicRoughness":{"baseColorFactor":[0.020722,0.088548,0.010715,1],"metallicFactor":0,"roughnessFactor":0.995},"emissiveFactor":[0,0,0],"alphaMode":"OPAQUE","doubleSided":false},{"name":"material_6","pbrMetallicRoughness":{"baseColorFactor":[0.64,0.187433,0.113832,1],"metallicFactor":0,"roughnessFactor":0.995},"emissiveFactor":[0,0,0],"alphaMode":"OPAQUE","doubleSided":false},{"name":"material_7","pbrMetallicRoughness":{"baseColorFactor":[0.310388,0.52326,0.64,1],"metallicFactor":0,"roughnessFactor":0.995},"emissiveFactor":[0,0,0],"alphaMode":"OPAQUE","doubleSided":false}],"meshes":[{"name":"Node-Mesh","primitives":[{"attributes":{"POSITION":0,"NORMAL":1},"indices":2,"material":0,"mode":4},{"attributes":{"POSITION":3,"NORMAL":4},"indices":5,"material":1,"mode":4},{"attributes":{"POSITION":6,"NORMAL":7},"indices":8,"material":2,"mode":4},{"attributes":{"POSITION":9,"NORMAL":10},"indices":11,"material":3,"mode":4},{"attributes":{"POSITION":12,"NORMAL":13},"indices":14,"material":4,"mode":4},{"attributes":{"POSITION":15,"NORMAL":16},"indices":17,"material":5,"mode":4},{"attributes":{"POSITION":18,"NORMAL":19},"indices":20,"material":6,"mode":4},{"attributes":{"POSITION":21,"NORMAL":22},"indices":23,"material":7,"mode":4}]}],"nodes":[{"name":"Node","mesh":0}],"scene":0,"scenes":[{"nodes":[0]}]}