{"accessors":[{"name":"Node-Mesh_0_positions","componentType":5126,"count":1434,"min":[-0.23197999596595764,0.02942660078406334,-0.2293969988822937],"max":[0.22959400713443756,0.1298069953918457,0.23161399364471436],"type":"VEC3","bufferView":0,"byteOffset":0},{"name":"Node-Mesh_0_normals","componentType":5126,"count":1434,"min":[-1,-0.9130625128746033,-1],"max":[1,1,1],"type":"VEC3","bufferView":1,"byteOffset":0},{"name":"Node-Mesh_0_texcoords","componentType":5126,"count":1434,"min":[-13.372599601745605,-17.053499221801758],"max":[14.036499977111816,18.00349998474121],"type":"VEC2","bufferView":2,"byteOffset":0},{"name":"Node-Mesh_0_indices","componentType":5123,"count":4620,"min":[0],"max":[1433],"type":"SCALAR","bufferView":3,"byteOffset":0},{"name":"Node-Mesh_1_positions","componentType":5126,"count":497,"min":[-0.25,-1.0927799998228238e-8,-0.25],"max":[0.25,0.10870300233364105,0.25],"type":"VEC3","bufferView":0,"byteOffset":17208},{"name":"Node-Mesh_1_normals","componentType":5126,"count":497,"min":[-1,-1,-1],"max":[1,1,1],"type":"VEC3","bufferView":1,"byteOffset":17208},{"name":"Node-Mesh_1_texcoords","componentType":5126,"count":497,"min":[-4.315760135650635,-2.871299982070923],"max":[6.901740074157715,3.477790117263794],"type":"VEC2","bufferView":2,"byteOffset":11472},{"name":"Node-Mesh_1_indices","componentType":5123,"count":2388,"min":[0],"max":[496],"type":"SCALAR","bufferView":3,"byteOffset":9240}],"asset":{"generator":"obj2gltf","version":"2.0"},"buffers":[{"name":"340","byteLength":98696,"uri":"data:application/octet-stream;base64,"}],"bufferViews":[{"name":"bufferView_0","buffer":0,"byteLength":23172,"byteOffset":0,"byteStride":12,"target":34962},{"name":"bufferView_1","buffer":0,"byteLength":23172,"byteOffset":23172,"byteStride":12,"target":34962},{"name":"bufferView_2","buffer":0,"byteLength":15448,"byteOffset":46344,"byteStride":8,"target":34962},{"name":"bufferView_3","buffer":0,"byteLength":14016,"byteOffset":61792,"target":34963},{"buffer":0,"byteOffset":75808,"byteLength":6003},{"buffer":0,"byteOffset":81811,"byteLength":16885}],"images":[{"name":"wood_8","mimeType":"image/jpeg","bufferView":4},{"name":"wood_5","mimeType":"image/jpeg","bufferView":5}],"materials":[{"name":"material_0","pbrMetallicRoughness":{"baseColorTexture":{"index":0},"baseColorFactor":[1,1,1,1],"metallicFactor":0,"roughnessFactor":0.95},"emissiveFactor":[0,0,0],"alphaMode":"OPAQUE","doubleSided":false},{"name":"material_1","pbrMetallicRoughness":{"baseColorTexture":{"index":1},"baseColorFactor":[1,1,1,1],"metallicFactor":0,"roughnessFactor":0.95},"emissiveFactor":[0,0,0],"alphaMode":"OPAQUE","doubleSided":false}],"meshes":[{"name":"Node-Mesh","primitives":[{"attributes":{"POSITION":0,"NORMAL":1,"TEXCOORD_0":2},"indices":3,"material":0,"mode":4},{"attributes":{"POSITION":4,"NORMAL":5,"TEXCOORD_0":6},"indices":7,"material":1,"mode":4}]}],"nodes":[{"name":"Node","mesh":0}],"samplers":[{"magFilter":9729,"minFilter":9986,"wrapS":10497,"wrapT":10497}],"scene":0,"scenes":[{"nodes":[0]}],"textures":[{"name":"wood_8","sampler":0,"source":0},{"name":"wood_5","sampler":0,"source":1}]}