{"accessors":[{"name":"Node-Mesh_0_positions","componentType":5126,"count":228,"min":[-0.3499999940395355,-1.1920899822825959e-7,-0.10000000149011612],"max":[0.3499999940395355,0.3100000023841858,0.10000000149011612],"type":"VEC3","bufferView":0,"byteOffset":0},{"name":"Node-Mesh_0_normals","componentType":5126,"count":228,"min":[-1,-1,-1],"max":[1,1,1],"type":"VEC3","bufferView":1,"byteOffset":0},{"name":"Node-Mesh_0_texcoords","componentType":5126,"count":228,"min":[-0.41895899176597595,-0.4594799876213074],"max":[1.4189599752426147,1.5405199527740479],"type":"VEC2","bufferView":2,"byteOffset":0},{"name":"Node-Mesh_0_indices","componentType":5123,"count":972,"min":[0],"max":[227],"type":"SCALAR","bufferView":3,"byteOffset":0}],"asset":{"generator":"obj2gltf","version":"2.0"},"buffers":[{"name":"492","byteLength":13544,"uri":"data:application/octet-stream;base64,"}],"bufferViews":[{"name":"bufferView_0","buffer":0,"byteLength":2736,"byteOffset":0,"byteStride":12,"target":34962},{"name":"bufferView_1","buffer":0,"byteLength":2736,"byteOffset":2736,"byteStride":12,"target":34962},{"name":"bufferView_2","buffer":0,"byteLength":1824,"byteOffset":5472,"byteStride":8,"target":34962},{"name":"bufferView_3","buffer":0,"byteLength":1944,"byteOffset":7296,"target":34963},{"buffer":0,"byteOffset":9240,"byteLength":4304}],"images":[{"name":"wood_9","mimeType":"image/jpeg","bufferView":4}],"materials":[{"name":"material_0","pbrMetallicRoughness":{"baseColorTexture":{"index":0},"baseColorFactor":[1,1,1,1],"metallicFactor":0,"roughnessFactor":0.95},"emissiveFactor":[0,0,0],"alphaMode":"OPAQUE","doubleSided":false}],"meshes":[{"name":"Node-Mesh","primitives":[{"attributes":{"POSITION":0,"NORMAL":1,"TEXCOORD_0":2},"indices":3,"material":0,"mode":4}]}],"nodes":[{"name":"Node","mesh":0}],"samplers":[{"magFilter":9729,"minFilter":9986,"wrapS":10497,"wrapT":10497}],"scene":0,"scenes":[{"nodes":[0]}],"textures":[{"name":"wood_9","sampler":0,"source":0}]}