{"accessors":[{"name":"Node-Mesh_0_positions","componentType":5126,"count":254,"min":[-0.4699999988079071,2.3841900542720396e-7,-0.09999989718198776],"max":[0.4699999988079071,0.23000000417232513,0.10000000149011612],"type":"VEC3","bufferView":0,"byteOffset":0},{"name":"Node-Mesh_0_normals","componentType":5126,"count":254,"min":[-1,-1,-1],"max":[1,1,1],"type":"VEC3","bufferView":1,"byteOffset":0},{"name":"Node-Mesh_0_texcoords","componentType":5126,"count":254,"min":[-0.6577929854393005,-0.30583998560905457],"max":[1.5850199460983276,1.5777050256729126],"type":"VEC2","bufferView":2,"byteOffset":0},{"name":"Node-Mesh_0_indices","componentType":5123,"count":996,"min":[0],"max":[253],"type":"SCALAR","bufferView":3,"byteOffset":0}],"asset":{"generator":"obj2gltf","version":"2.0"},"buffers":[{"name":"493","byteLength":14424,"uri":"data:application/octet-stream;base64,"}],"bufferViews":[{"name":"bufferView_0","buffer":0,"byteLength":3048,"byteOffset":0,"byteStride":12,"target":34962},{"name":"bufferView_1","buffer":0,"byteLength":3048,"byteOffset":3048,"byteStride":12,"target":34962},{"name":"bufferView_2","buffer":0,"byteLength":2032,"byteOffset":6096,"byteStride":8,"target":34962},{"name":"bufferView_3","buffer":0,"byteLength":1992,"byteOffset":8128,"target":34963},{"buffer":0,"byteOffset":10120,"byteLength":4304}],"images":[{"name":"wood_9","mimeType":"image/jpeg","bufferView":4}],"materials":[{"name":"material_0","pbrMetallicRoughness":{"baseColorTexture":{"index":0},"baseColorFactor":[1,1,1,1],"metallicFactor":0,"roughnessFactor":0.95},"emissiveFactor":[0,0,0],"alphaMode":"OPAQUE","doubleSided":false}],"meshes":[{"name":"Node-Mesh","primitives":[{"attributes":{"POSITION":0,"NORMAL":1,"TEXCOORD_0":2},"indices":3,"material":0,"mode":4}]}],"nodes":[{"name":"Node","mesh":0}],"samplers":[{"magFilter":9729,"minFilter":9986,"wrapS":10497,"wrapT":10497}],"scene":0,"scenes":[{"nodes":[0]}],"textures":[{"name":"wood_9","sampler":0,"source":0}]}