{"accessors":[{"name":"Node-Mesh_0_positions","componentType":5126,"count":409,"min":[-0.12999999523162842,0.0003100000030826777,-0.12999999523162842],"max":[0.12999999523162842,0.42985600233078003,0.12999999523162842],"type":"VEC3","bufferView":0,"byteOffset":0},{"name":"Node-Mesh_0_normals","componentType":5126,"count":409,"min":[-0.9807865023612976,-1,-0.9807865023612976],"max":[0.9807865023612976,0.9988309144973755,0.9807865023612976],"type":"VEC3","bufferView":1,"byteOffset":0},{"name":"Node-Mesh_0_texcoords","componentType":5126,"count":409,"min":[-0.5151919722557068,-0.5502939820289612],"max":[1.491083025932312,1.5167649984359741],"type":"VEC2","bufferView":2,"byteOffset":0},{"name":"Node-Mesh_0_indices","componentType":5123,"count":2160,"min":[0],"max":[408],"type":"SCALAR","bufferView":3,"byteOffset":0}],"asset":{"generator":"obj2gltf","version":"2.0"},"buffers":[{"name":"529","byteLength":27368,"uri":"data:application/octet-stream;base64,"}],"bufferViews":[{"name":"bufferView_0","buffer":0,"byteLength":4908,"byteOffset":0,"byteStride":12,"target":34962},{"name":"bufferView_1","buffer":0,"byteLength":4908,"byteOffset":4908,"byteStride":12,"target":34962},{"name":"bufferView_2","buffer":0,"byteLength":3272,"byteOffset":9816,"byteStride":8,"target":34962},{"name":"bufferView_3","buffer":0,"byteLength":4320,"byteOffset":13088,"target":34963},{"buffer":0,"byteOffset":17408,"byteLength":9958}],"images":[{"name":"stone_8","mimeType":"image/jpeg","bufferView":4}],"materials":[{"name":"material_0","pbrMetallicRoughness":{"baseColorTexture":{"index":0},"baseColorFactor":[1,1,1,1],"metallicFactor":0,"roughnessFactor":0.972},"emissiveFactor":[0,0,0],"alphaMode":"OPAQUE","doubleSided":false}],"meshes":[{"name":"Node-Mesh","primitives":[{"attributes":{"POSITION":0,"NORMAL":1,"TEXCOORD_0":2},"indices":3,"material":0,"mode":4}]}],"nodes":[{"name":"Node","mesh":0}],"samplers":[{"magFilter":9729,"minFilter":9986,"wrapS":10497,"wrapT":10497}],"scene":0,"scenes":[{"nodes":[0]}],"textures":[{"name":"stone_8","sampler":0,"source":0}]}