{"accessors":[{"name":"Node-Mesh_0_positions","componentType":5126,"count":1572,"min":[-0.12999999523162842,-2.3082300515397947e-9,-0.052806198596954346],"max":[0.12999999523162842,0.30000001192092896,0.052806198596954346],"type":"VEC3","bufferView":0,"byteOffset":0},{"name":"Node-Mesh_0_normals","componentType":5126,"count":1572,"min":[-1,-0.9998740553855896,-1],"max":[1,1,1],"type":"VEC3","bufferView":1,"byteOffset":0},{"name":"Node-Mesh_0_indices","componentType":5123,"count":8922,"min":[0],"max":[1571],"type":"SCALAR","bufferView":3,"byteOffset":0},{"name":"Node-Mesh_1_positions","componentType":5126,"count":147,"min":[-0.10750900208950043,0.237077996134758,-0.010186799801886082],"max":[0.10750900208950043,0.5070390105247498,0.010186799801886082],"type":"VEC3","bufferView":0,"byteOffset":18864},{"name":"Node-Mesh_1_normals","componentType":5126,"count":147,"min":[-1,0,-1],"max":[1,1,1],"type":"VEC3","bufferView":1,"byteOffset":18864},{"name":"Node-Mesh_1_indices","componentType":5123,"count":432,"min":[0],"max":[146],"type":"SCALAR","bufferView":3,"byteOffset":17844},{"name":"Node-Mesh_2_positions","componentType":5126,"count":24,"min":[-0.09884899854660034,0.4658010005950928,-0.0015271799638867378],"max":[0.09884899854660034,0.5195580124855042,0.0015271400334313512],"type":"VEC3","bufferView":0,"byteOffset":20628},{"name":"Node-Mesh_2_normals","componentType":5126,"count":24,"min":[-1,0,-1],"max":[1,0,1],"type":"VEC3","bufferView":1,"byteOffset":20628},{"name":"Node-Mesh_2_texcoords","componentType":5126,"count":24,"min":[0,1],"max":[0,1],"type":"VEC2","bufferView":2,"byteOffset":0},{"name":"Node-Mesh_2_indices","componentType":5123,"count":72,"min":[0],"max":[23],"type":"SCALAR","bufferView":3,"byteOffset":18708},{"name":"Node-Mesh_3_positions","componentType":5126,"count":222,"min":[-0.1039540022611618,0.48461800813674927,-0.006607390008866787],"max":[0.10353700071573257,0.5695520043373108,0.006239589769393206],"type":"VEC3","bufferView":0,"byteOffset":20916},{"name":"Node-Mesh_3_normals","componentType":5126,"count":222,"min":[-0.9989547729492188,-1,-0.9983848333358765],"max":[0.9986531138420105,0.9908855557441711,0.9998664855957031],"type":"VEC3","bufferView":1,"byteOffset":20916},{"name":"Node-Mesh_3_texcoords","componentType":5126,"count":222,"min":[0,1],"max":[0,1],"type":"VEC2","bufferView":2,"byteOffset":192},{"name":"Node-Mesh_3_indices","componentType":5123,"count":1296,"min":[0],"max":[221],"type":"SCALAR","bufferView":3,"byteOffset":18852}],"asset":{"generator":"obj2gltf","version":"2.0"},"buffers":[{"name":"531","byteLength":70572,"uri":"data:application/octet-stream;base64,"}],"bufferViews":[{"name":"bufferView_0","buffer":0,"byteLength":23580,"byteOffset":0,"byteStride":12,"target":34962},{"name":"bufferView_1","buffer":0,"byteLength":23580,"byteOffset":23580,"byteStride":12,"target":34962},{"name":"bufferView_2","buffer":0,"byteLength":1968,"byteOffset":47160,"byteStride":8,"target":34962},{"name":"bufferView_3","buffer":0,"byteLength":21444,"byteOffset":49128,"target":34963}],"materials":[{"name":"material_0","pbrMetallicRoughness":{"baseColorFactor":[0.239545,0.112411,0,1],"metallicFactor":0,"roughnessFactor":0.95},"emissiveFactor":[0,0,0],"alphaMode":"OPAQUE","doubleSided":false},{"name":"material_1","pbrMetallicRoughness":{"baseColorFactor":[0.831452,0.831452,0.831452,1],"metallicFactor":0,"roughnessFactor":0.95},"emissiveFactor":[0,0,0],"alphaMode":"OPAQUE","doubleSided":false},{"name":"material_2","pbrMetallicRoughness":{"baseColorFactor":[1,1,1,1],"metallicFactor":0,"roughnessFactor":0.999},"emissiveFactor":[0,0,0],"alphaMode":"OPAQUE","doubleSided":false},{"name":"material_3","pbrMetallicRoughness":{"baseColorFactor":[0.8,0.629051,0.435924,1],"metallicFactor":0,"roughnessFactor":0.999},"emissiveFactor":[0,0,0],"alphaMode":"OPAQUE","doubleSided":false}],"meshes":[{"name":"Node-Mesh","primitives":[{"attributes":{"POSITION":0,"NORMAL":1},"indices":2,"material":0,"mode":4},{"attributes":{"POSITION":3,"NORMAL":4},"indices":5,"material":1,"mode":4},{"attributes":{"POSITION":6,"NORMAL":7,"TEXCOORD_0":8},"indices":9,"material":2,"mode":4},{"attributes":{"POSITION":10,"NORMAL":11,"TEXCOORD_0":12},"indices":13,"material":3,"mode":4}]}],"nodes":[{"name":"Node","mesh":0}],"scene":0,"scenes":[{"nodes":[0]}]}