{"accessors":[{"name":"Node-Mesh_0_positions","componentType":5126,"count":304,"min":[-0.4871099889278412,-9.59017043555832e-9,-0.22019000351428986],"max":[0.4871099889278412,0.019999999552965164,0.22019000351428986],"type":"VEC3","bufferView":0,"byteOffset":0},{"name":"Node-Mesh_0_normals","componentType":5126,"count":304,"min":[-0.9658596515655518,-0.9828978776931763,-0.9581764936447144],"max":[0.9658596515655518,0.9828982353210449,0.9581764936447144],"type":"VEC3","bufferView":1,"byteOffset":0},{"name":"Node-Mesh_0_texcoords","componentType":5126,"count":304,"min":[0.0012329999590292573,-0.5819100141525269],"max":[0.9911370277404785,1.0165870189666748],"type":"VEC2","bufferView":2,"byteOffset":0},{"name":"Node-Mesh_0_indices","componentType":5123,"count":1296,"min":[0],"max":[303],"type":"SCALAR","bufferView":3,"byteOffset":0},{"name":"Node-Mesh_1_positions","componentType":5126,"count":2325,"min":[-0.5,0.02080029994249344,-0.22980600595474243],"max":[0.5,0.4398150146007538,0.22980600595474243],"type":"VEC3","bufferView":0,"byteOffset":3648},{"name":"Node-Mesh_1_normals","componentType":5126,"count":2325,"min":[-0.999995768070221,-0.9970476031303406,-0.999640941619873],"max":[0.999995768070221,1,0.9996376633644104],"type":"VEC3","bufferView":1,"byteOffset":3648},{"name":"Node-Mesh_1_texcoords","componentType":5126,"count":2325,"min":[-3.0278499126434326,-3.0437300205230713],"max":[4.022640228271484,4.043729782104492],"type":"VEC2","bufferView":2,"byteOffset":2432},{"name":"Node-Mesh_1_indices","componentType":5123,"count":13242,"min":[0],"max":[2324],"type":"SCALAR","bufferView":3,"byteOffset":2592}],"asset":{"generator":"obj2gltf","version":"2.0"},"buffers":[{"name":"553","byteLength":148064,"uri":"data:application/octet-stream;base64,"}],"bufferViews":[{"name":"bufferView_0","buffer":0,"byteLength":31548,"byteOffset":0,"byteStride":12,"target":34962},{"name":"bufferView_1","buffer":0,"byteLength":31548,"byteOffset":31548,"byteStride":12,"target":34962},{"name":"bufferView_2","buffer":0,"byteLength":21032,"byteOffset":63096,"byteStride":8,"target":34962},{"name":"bufferView_3","buffer":0,"byteLength":29076,"byteOffset":84128,"target":34963},{"buffer":0,"byteOffset":113204,"byteLength":24153},{"buffer":0,"byteOffset":137357,"byteLength":10704}],"images":[{"name":"wood_12","mimeType":"image/jpeg","bufferView":4},{"name":"leather_2_4","mimeType":"image/jpeg","bufferView":5}],"materials":[{"name":"material_0","pbrMetallicRoughness":{"baseColorTexture":{"index":0},"baseColorFactor":[1,1,1,1],"metallicFactor":0,"roughnessFactor":0.95},"emissiveFactor":[0,0,0],"alphaMode":"OPAQUE","doubleSided":false},{"name":"material_1","pbrMetallicRoughness":{"baseColorTexture":{"index":1},"baseColorFactor":[1,1,1,1],"metallicFactor":0,"roughnessFactor":0.96},"emissiveFactor":[0,0,0],"alphaMode":"OPAQUE","doubleSided":false}],"meshes":[{"name":"Node-Mesh","primitives":[{"attributes":{"POSITION":0,"NORMAL":1,"TEXCOORD_0":2},"indices":3,"material":0,"mode":4},{"attributes":{"POSITION":4,"NORMAL":5,"TEXCOORD_0":6},"indices":7,"material":1,"mode":4}]}],"nodes":[{"name":"Node","mesh":0}],"samplers":[{"magFilter":9729,"minFilter":9986,"wrapS":10497,"wrapT":10497}],"scene":0,"scenes":[{"nodes":[0]}],"textures":[{"name":"wood_12","sampler":0,"source":0},{"name":"leather_2_4","sampler":0,"source":1}]}