{"accessors":[{"name":"Node-Mesh_0_positions","componentType":5126,"count":400,"min":[-0.6800000071525574,0.026000000536441803,0.21400000154972076],"max":[0.6800000071525574,0.7440000176429749,0.23000000417232513],"type":"VEC3","bufferView":0,"byteOffset":0},{"name":"Node-Mesh_0_normals","componentType":5126,"count":400,"min":[-0.9737476110458374,-0.9737476110458374,-0.9737476110458374],"max":[0.9737476110458374,0.9737476110458374,1],"type":"VEC3","bufferView":1,"byteOffset":0},{"name":"Node-Mesh_0_texcoords","componentType":5126,"count":400,"min":[-12.854999542236328,-10.690699577331543],"max":[-1.431570053100586,-3.168570041656494],"type":"VEC2","bufferView":2,"byteOffset":0},{"name":"Node-Mesh_0_indices","componentType":5123,"count":1740,"min":[0],"max":[399],"type":"SCALAR","bufferView":3,"byteOffset":0},{"name":"Node-Mesh_1_positions","componentType":5126,"count":220,"min":[-0.2666670083999634,0.14857199788093567,0.23000000417232513],"max":[0.2666670083999634,0.7239999771118164,0.23999999463558197],"type":"VEC3","bufferView":0,"byteOffset":4800},{"name":"Node-Mesh_1_normals","componentType":5126,"count":220,"min":[-0.9807879328727722,-0.9807936549186707,0],"max":[0.9807996153831482,0.9807879328727722,1],"type":"VEC3","bufferView":1,"byteOffset":4800},{"name":"Node-Mesh_1_texcoords","componentType":5126,"count":220,"min":[2.733829975128174,-2.344320058822632],"max":[3.2913999557495117,-2.1114299297332764],"type":"VEC2","bufferView":2,"byteOffset":3200},{"name":"Node-Mesh_1_indices","componentType":5123,"count":1080,"min":[0],"max":[219],"type":"SCALAR","bufferView":3,"byteOffset":3480},{"name":"Node-Mesh_2_positions","componentType":5126,"count":336,"min":[-0.6800000071525574,-1.042520025862359e-8,-0.23999999463558197],"max":[0.6800000071525574,0.009999999776482582,0.23000000417232513],"type":"VEC3","bufferView":0,"byteOffset":7440},{"name":"Node-Mesh_2_normals","componentType":5126,"count":336,"min":[-0.9737476110458374,-0.9737476110458374,-0.9737476110458374],"max":[0.9737476110458374,0.9737476110458374,0.9737476110458374],"type":"VEC3","bufferView":1,"byteOffset":7440},{"name":"Node-Mesh_2_texcoords","componentType":5126,"count":336,"min":[0,1],"max":[0,1],"type":"VEC2","bufferView":2,"byteOffset":4960},{"name":"Node-Mesh_2_indices","componentType":5123,"count":1944,"min":[0],"max":[335],"type":"SCALAR","bufferView":3,"byteOffset":5640},{"name":"Node-Mesh_3_positions","componentType":5126,"count":656,"min":[-0.6800000071525574,0.009999990463256836,-0.23999999463558197],"max":[0.6800000071525574,0.7599999904632568,0.23999999463558197],"type":"VEC3","bufferView":0,"byteOffset":11472},{"name":"Node-Mesh_3_normals","componentType":5126,"count":656,"min":[-1,-0.9737476110458374,-1],"max":[1,1,1],"type":"VEC3","bufferView":1,"byteOffset":11472},{"name":"Node-Mesh_3_texcoords","componentType":5126,"count":656,"min":[-7.575349807739258,-9.15310001373291],"max":[11.797100067138672,0.9915840029716492],"type":"VEC2","bufferView":2,"byteOffset":7648},{"name":"Node-Mesh_3_indices","componentType":5123,"count":2790,"min":[0],"max":[655],"type":"SCALAR","bufferView":3,"byteOffset":9528}],"asset":{"generator":"obj2gltf","version":"2.0"},"buffers":[{"name":"615","byteLength":78464,"uri":"data:application/octet-stream;base64,"}],"bufferViews":[{"name":"bufferView_0","buffer":0,"byteLength":19344,"byteOffset":0,"byteStride":12,"target":34962},{"name":"bufferView_1","buffer":0,"byteLength":19344,"byteOffset":19344,"byteStride":12,"target":34962},{"name":"bufferView_2","buffer":0,"byteLength":12896,"byteOffset":38688,"byteStride":8,"target":34962},{"name":"bufferView_3","buffer":0,"byteLength":15108,"byteOffset":51584,"target":34963},{"buffer":0,"byteOffset":66692,"byteLength":7466},{"buffer":0,"byteOffset":74158,"byteLength":4304}],"images":[{"name":"wood_15_1","mimeType":"image/jpeg","bufferView":4},{"name":"wood_9","mimeType":"image/jpeg","bufferView":5}],"materials":[{"name":"material_0","pbrMetallicRoughness":{"baseColorTexture":{"index":0},"baseColorFactor":[1,1,1,1],"metallicFactor":0,"roughnessFactor":0.96},"emissiveFactor":[0,0,0],"alphaMode":"OPAQUE","doubleSided":false},{"name":"material_1","pbrMetallicRoughness":{"baseColorFactor":[0.588,0.532,0.212,1],"metallicFactor":0,"roughnessFactor":0.6},"emissiveFactor":[0,0,0],"alphaMode":"OPAQUE","doubleSided":false},{"name":"material_2","pbrMetallicRoughness":{"baseColorFactor":[0.52,0.52,0.52,1],"metallicFactor":0,"roughnessFactor":0.95},"emissiveFactor":[0,0,0],"alphaMode":"OPAQUE","doubleSided":false},{"name":"material_3","pbrMetallicRoughness":{"baseColorTexture":{"index":1},"baseColorFactor":[1,1,1,1],"metallicFactor":0,"roughnessFactor":0.96},"emissiveFactor":[0,0,0],"alphaMode":"OPAQUE","doubleSided":false}],"meshes":[{"name":"Node-Mesh","primitives":[{"attributes":{"POSITION":0,"NORMAL":1,"TEXCOORD_0":2},"indices":3,"material":0,"mode":4},{"attributes":{"POSITION":4,"NORMAL":5,"TEXCOORD_0":6},"indices":7,"material":1,"mode":4},{"attributes":{"POSITION":8,"NORMAL":9,"TEXCOORD_0":10},"indices":11,"material":2,"mode":4},{"attributes":{"POSITION":12,"NORMAL":13,"TEXCOORD_0":14},"indices":15,"material":3,"mode":4}]}],"nodes":[{"name":"Node","mesh":0}],"samplers":[{"magFilter":9729,"minFilter":9986,"wrapS":10497,"wrapT":10497}],"scene":0,"scenes":[{"nodes":[0]}],"textures":[{"name":"wood_15_1","sampler":0,"source":0},{"name":"wood_9","sampler":0,"source":1}]}