{"accessors":[{"name":"Node-Mesh_0_positions","componentType":5126,"count":32,"min":[-0.11319000273942947,0.27000001072883606,-0.10980399698019028],"max":[0.10641899704933167,0.27000001072883606,0.10980399698019028],"type":"VEC3","bufferView":0,"byteOffset":0},{"name":"Node-Mesh_0_normals","componentType":5126,"count":32,"min":[0,1,0],"max":[0,1,0],"type":"VEC3","bufferView":1,"byteOffset":0},{"name":"Node-Mesh_0_texcoords","componentType":5126,"count":32,"min":[0,1],"max":[0,1],"type":"VEC2","bufferView":2,"byteOffset":0},{"name":"Node-Mesh_0_indices","componentType":5123,"count":138,"min":[0],"max":[31],"type":"SCALAR","bufferView":3,"byteOffset":0},{"name":"Node-Mesh_1_positions","componentType":5126,"count":2264,"min":[-0.3850939869880676,0.06561350077390671,-0.49965700507164],"max":[0.3850939869880676,1.176759958267212,0.5],"type":"VEC3","bufferView":0,"byteOffset":384},{"name":"Node-Mesh_1_normals","componentType":5126,"count":2264,"min":[-0.9994279146194458,-0.9998209476470947,-0.9995625615119934],"max":[0.9995018243789673,0.9999990463256836,0.9994733333587646],"type":"VEC3","bufferView":1,"byteOffset":384},{"name":"Node-Mesh_1_texcoords","componentType":5126,"count":2264,"min":[0,1],"max":[0,1],"type":"VEC2","bufferView":2,"byteOffset":256},{"name":"Node-Mesh_1_indices","componentType":5123,"count":7608,"min":[0],"max":[2263],"type":"SCALAR","bufferView":3,"byteOffset":276},{"name":"Node-Mesh_2_positions","componentType":5126,"count":203,"min":[-0.12328899651765823,-4.386699892222623e-9,-0.11990299820899963],"max":[0.11651799827814102,0.2800000011920929,0.11990299820899963],"type":"VEC3","bufferView":0,"byteOffset":27552},{"name":"Node-Mesh_2_normals","componentType":5126,"count":203,"min":[-1,-0.9774279594421387,-1],"max":[1,0.9854204058647156,1],"type":"VEC3","bufferView":1,"byteOffset":27552},{"name":"Node-Mesh_2_texcoords","componentType":5126,"count":203,"min":[0.05189700052142143,-1.1135599613189697],"max":[2.91195011138916,1.0219249725341797],"type":"VEC2","bufferView":2,"byteOffset":18368},{"name":"Node-Mesh_2_indices","componentType":5123,"count":1002,"min":[0],"max":[202],"type":"SCALAR","bufferView":3,"byteOffset":15492}],"asset":{"generator":"obj2gltf","version":"2.0"},"buffers":[{"name":"620","byteLength":114248,"uri":"data:application/octet-stream;base64,"}],"bufferViews":[{"name":"bufferView_0","buffer":0,"byteLength":29988,"byteOffset":0,"byteStride":12,"target":34962},{"name":"bufferView_1","buffer":0,"byteLength":29988,"byteOffset":29988,"byteStride":12,"target":34962},{"name":"bufferView_2","buffer":0,"byteLength":19992,"byteOffset":59976,"byteStride":8,"target":34962},{"name":"bufferView_3","buffer":0,"byteLength":17496,"byteOffset":79968,"target":34963},{"buffer":0,"byteOffset":97464,"byteLength":16782}],"images":[{"name":"stone_11","mimeType":"image/jpeg","bufferView":4}],"materials":[{"name":"material_0","pbrMetallicRoughness":{"baseColorFactor":[0.004,0.002821,0.002461,1],"metallicFactor":0,"roughnessFactor":0.9},"emissiveFactor":[0,0,0],"alphaMode":"OPAQUE","doubleSided":false},{"name":"material_1","pbrMetallicRoughness":{"baseColorFactor":[0.027687,0.176201,0.00234,1],"metallicFactor":0,"roughnessFactor":0.99},"emissiveFactor":[0,0,0],"alphaMode":"OPAQUE","doubleSided":false},{"name":"material_2","pbrMetallicRoughness":{"baseColorTexture":{"index":0},"baseColorFactor":[1,1,1,1],"metallicFactor":0,"roughnessFactor":0.8924},"emissiveFactor":[0,0,0],"alphaMode":"OPAQUE","doubleSided":false}],"meshes":[{"name":"Node-Mesh","primitives":[{"attributes":{"POSITION":0,"NORMAL":1,"TEXCOORD_0":2},"indices":3,"material":0,"mode":4},{"attributes":{"POSITION":4,"NORMAL":5,"TEXCOORD_0":6},"indices":7,"material":1,"mode":4},{"attributes":{"POSITION":8,"NORMAL":9,"TEXCOORD_0":10},"indices":11,"material":2,"mode":4}]}],"nodes":[{"name":"Node","mesh":0}],"samplers":[{"magFilter":9729,"minFilter":9986,"wrapS":10497,"wrapT":10497}],"scene":0,"scenes":[{"nodes":[0]}],"textures":[{"name":"stone_11","sampler":0,"source":0}]}