{"accessors":[{"name":"Node-Mesh_0_positions","componentType":5126,"count":4,"min":[-0.1606689989566803,0.2585029900074005,-0.15430599451065063],"max":[0.059137098491191864,0.2585029900074005,0.06550010293722153],"type":"VEC3","bufferView":0,"byteOffset":0},{"name":"Node-Mesh_0_normals","componentType":5126,"count":4,"min":[0,1,0],"max":[0,1,0],"type":"VEC3","bufferView":1,"byteOffset":0},{"name":"Node-Mesh_0_texcoords","componentType":5126,"count":4,"min":[0,1],"max":[0,1],"type":"VEC2","bufferView":2,"byteOffset":0},{"name":"Node-Mesh_0_indices","componentType":5123,"count":6,"min":[0],"max":[3],"type":"SCALAR","bufferView":3,"byteOffset":0},{"name":"Node-Mesh_1_positions","componentType":5126,"count":224,"min":[-0.17065000534057617,-5.544139813906668e-9,-0.1642870008945465],"max":[0.06911800056695938,0.2785030007362366,0.07548099756240845],"type":"VEC3","bufferView":0,"byteOffset":48},{"name":"Node-Mesh_1_normals","componentType":5126,"count":224,"min":[-0.9807879328727722,-0.9955022931098938,-0.9807879328727722],"max":[0.9807879328727722,0.9931612014770508,0.9807879328727722],"type":"VEC3","bufferView":1,"byteOffset":48},{"name":"Node-Mesh_1_texcoords","componentType":5126,"count":224,"min":[-0.11781200021505356,-1.215309977531433],"max":[3.8925600051879883,1.2251529693603516],"type":"VEC2","bufferView":2,"byteOffset":32},{"name":"Node-Mesh_1_indices","componentType":5123,"count":1134,"min":[0],"max":[223],"type":"SCALAR","bufferView":3,"byteOffset":12},{"name":"Node-Mesh_2_positions","componentType":5126,"count":924,"min":[-0.28139999508857727,0.210657998919487,-0.26489898562431335],"max":[0.2800079882144928,1.5,0.26489898562431335],"type":"VEC3","bufferView":0,"byteOffset":2736},{"name":"Node-Mesh_2_normals","componentType":5126,"count":924,"min":[-0.9999285936355591,-0.27009397745132446,-0.9999783635139465],"max":[0.9999294281005859,0.9997800588607788,0.999975860118866],"type":"VEC3","bufferView":1,"byteOffset":2736},{"name":"Node-Mesh_2_texcoords","componentType":5126,"count":924,"min":[0,1],"max":[0,1],"type":"VEC2","bufferView":2,"byteOffset":1824},{"name":"Node-Mesh_2_indices","componentType":5123,"count":2808,"min":[0],"max":[923],"type":"SCALAR","bufferView":3,"byteOffset":2280}],"asset":{"generator":"obj2gltf","version":"2.0"},"buffers":[{"name":"623","byteLength":64788,"uri":"data:application/octet-stream;base64,"}],"bufferViews":[{"name":"bufferView_0","buffer":0,"byteLength":13824,"byteOffset":0,"byteStride":12,"target":34962},{"name":"bufferView_1","buffer":0,"byteLength":13824,"byteOffset":13824,"byteStride":12,"target":34962},{"name":"bufferView_2","buffer":0,"byteLength":9216,"byteOffset":27648,"byteStride":8,"target":34962},{"name":"bufferView_3","buffer":0,"byteLength":7896,"byteOffset":36864,"target":34963},{"buffer":0,"byteOffset":44760,"byteLength":20028}],"images":[{"name":"stone_15","mimeType":"image/jpeg","bufferView":4}],"materials":[{"name":"material_0","pbrMetallicRoughness":{"baseColorFactor":[0.004,0.002821,0.002461,1],"metallicFactor":0,"roughnessFactor":0.9},"emissiveFactor":[0,0,0],"alphaMode":"OPAQUE","doubleSided":false},{"name":"material_1","pbrMetallicRoughness":{"baseColorTexture":{"index":0},"baseColorFactor":[1,1,1,1],"metallicFactor":0,"roughnessFactor":0.8924},"emissiveFactor":[0,0,0],"alphaMode":"OPAQUE","doubleSided":false},{"name":"material_2","pbrMetallicRoughness":{"baseColorFactor":[0.01635,0.095417,0.001755,1],"metallicFactor":0,"roughnessFactor":0.99},"emissiveFactor":[0,0,0],"alphaMode":"OPAQUE","doubleSided":false}],"meshes":[{"name":"Node-Mesh","primitives":[{"attributes":{"POSITION":0,"NORMAL":1,"TEXCOORD_0":2},"indices":3,"material":0,"mode":4},{"attributes":{"POSITION":4,"NORMAL":5,"TEXCOORD_0":6},"indices":7,"material":1,"mode":4},{"attributes":{"POSITION":8,"NORMAL":9,"TEXCOORD_0":10},"indices":11,"material":2,"mode":4}]}],"nodes":[{"name":"Node","mesh":0}],"samplers":[{"magFilter":9729,"minFilter":9986,"wrapS":10497,"wrapT":10497}],"scene":0,"scenes":[{"nodes":[0]}],"textures":[{"name":"stone_15","sampler":0,"source":0}]}