{"accessors":[{"name":"Node-Mesh_0_positions","componentType":5126,"count":12,"min":[-0.15540100634098053,0.15000000596046448,-0.1201540008187294],"max":[0.07610250264406204,0.15000000596046448,0.11134999990463257],"type":"VEC3","bufferView":0,"byteOffset":0},{"name":"Node-Mesh_0_normals","componentType":5126,"count":12,"min":[0,1,0],"max":[0,1,0],"type":"VEC3","bufferView":1,"byteOffset":0},{"name":"Node-Mesh_0_texcoords","componentType":5126,"count":12,"min":[0.062132999300956726,0.0001610000035725534],"max":[0.8163759708404541,0.6755520105361938],"type":"VEC2","bufferView":2,"byteOffset":0},{"name":"Node-Mesh_0_indices","componentType":5123,"count":30,"min":[0],"max":[11],"type":"SCALAR","bufferView":3,"byteOffset":0},{"name":"Node-Mesh_1_positions","componentType":5126,"count":288,"min":[-0.21910199522972107,-1.991499942732844e-8,-0.18385499715805054],"max":[0.13980400562286377,0.17000000178813934,0.1750510036945343],"type":"VEC3","bufferView":0,"byteOffset":144},{"name":"Node-Mesh_1_normals","componentType":5126,"count":288,"min":[-0.9807879328727722,-0.9909561276435852,-0.9807879328727722],"max":[0.9807879328727722,0.9933180809020996,0.9807879328727722],"type":"VEC3","bufferView":1,"byteOffset":144},{"name":"Node-Mesh_1_texcoords","componentType":5126,"count":288,"min":[0.0006709999870508909,-2.410409927368164],"max":[2.9082601070404053,0.9993289709091187],"type":"VEC2","bufferView":2,"byteOffset":96},{"name":"Node-Mesh_1_indices","componentType":5123,"count":1206,"min":[0],"max":[287],"type":"SCALAR","bufferView":3,"byteOffset":60},{"name":"Node-Mesh_2_positions","componentType":5126,"count":1466,"min":[-0.2950359880924225,0.13875499367713928,-0.26978200674057007],"max":[0.2950359880924225,0.9399269819259644,0.2697809934616089],"type":"VEC3","bufferView":0,"byteOffset":3600},{"name":"Node-Mesh_2_normals","componentType":5126,"count":1466,"min":[-0.999875009059906,-0.150031179189682,-1],"max":[0.999875009059906,0.9998764395713806,1],"type":"VEC3","bufferView":1,"byteOffset":3600},{"name":"Node-Mesh_2_texcoords","componentType":5126,"count":1466,"min":[0,1],"max":[0,1],"type":"VEC2","bufferView":2,"byteOffset":2400},{"name":"Node-Mesh_2_indices","componentType":5123,"count":4896,"min":[0],"max":[1465],"type":"SCALAR","bufferView":3,"byteOffset":2472}],"asset":{"generator":"obj2gltf","version":"2.0"},"buffers":[{"name":"624","byteLength":88804,"uri":"data:application/octet-stream;base64,"}],"bufferViews":[{"name":"bufferView_0","buffer":0,"byteLength":21192,"byteOffset":0,"byteStride":12,"target":34962},{"name":"bufferView_1","buffer":0,"byteLength":21192,"byteOffset":21192,"byteStride":12,"target":34962},{"name":"bufferView_2","buffer":0,"byteLength":14128,"byteOffset":42384,"byteStride":8,"target":34962},{"name":"bufferView_3","buffer":0,"byteLength":12264,"byteOffset":56512,"target":34963},{"buffer":0,"byteOffset":68776,"byteLength":20028}],"images":[{"name":"stone_15","mimeType":"image/jpeg","bufferView":4}],"materials":[{"name":"material_0","pbrMetallicRoughness":{"baseColorFactor":[0.004,0.002821,0.002461,1],"metallicFactor":0,"roughnessFactor":0.9},"emissiveFactor":[0,0,0],"alphaMode":"OPAQUE","doubleSided":false},{"name":"material_1","pbrMetallicRoughness":{"baseColorTexture":{"index":0},"baseColorFactor":[1,1,1,1],"metallicFactor":0,"roughnessFactor":0.8924},"emissiveFactor":[0,0,0],"alphaMode":"OPAQUE","doubleSided":false},{"name":"material_2","pbrMetallicRoughness":{"baseColorFactor":[0.01635,0.095417,0.001755,1],"metallicFactor":0,"roughnessFactor":0.99},"emissiveFactor":[0,0,0],"alphaMode":"OPAQUE","doubleSided":false}],"meshes":[{"name":"Node-Mesh","primitives":[{"attributes":{"POSITION":0,"NORMAL":1,"TEXCOORD_0":2},"indices":3,"material":0,"mode":4},{"attributes":{"POSITION":4,"NORMAL":5,"TEXCOORD_0":6},"indices":7,"material":1,"mode":4},{"attributes":{"POSITION":8,"NORMAL":9,"TEXCOORD_0":10},"indices":11,"material":2,"mode":4}]}],"nodes":[{"name":"Node","mesh":0}],"samplers":[{"magFilter":9729,"minFilter":9986,"wrapS":10497,"wrapT":10497}],"scene":0,"scenes":[{"nodes":[0]}],"textures":[{"name":"stone_15","sampler":0,"source":0}]}