{"accessors":[{"name":"Node-Mesh_0_positions","componentType":5126,"count":384,"min":[-0.37999698519706726,-1.528930049232713e-8,-0.34977900981903076],"max":[0.37999698519706726,0.11999999731779099,0.34977900981903076],"type":"VEC3","bufferView":0,"byteOffset":0},{"name":"Node-Mesh_0_normals","componentType":5126,"count":384,"min":[-0.7999963760375977,0.5999994874000549,-0.7999963760375977],"max":[0.7999963760375977,0.6000127196311951,0.7999963760375977],"type":"VEC3","bufferView":1,"byteOffset":0},{"name":"Node-Mesh_0_indices","componentType":5123,"count":1152,"min":[0],"max":[383],"type":"SCALAR","bufferView":2,"byteOffset":0},{"name":"Node-Mesh_1_positions","componentType":5126,"count":1353,"min":[-0.3623430132865906,3.2107099201539313e-9,-0.33208799362182617],"max":[0.3623430132865906,0.2800000011920929,0.3321259915828705],"type":"VEC3","bufferView":0,"byteOffset":4608},{"name":"Node-Mesh_1_normals","componentType":5126,"count":1353,"min":[-1,-1,-1],"max":[1,1,1],"type":"VEC3","bufferView":1,"byteOffset":4608},{"name":"Node-Mesh_1_indices","componentType":5123,"count":6537,"min":[0],"max":[1352],"type":"SCALAR","bufferView":2,"byteOffset":2304},{"name":"Node-Mesh_2_positions","componentType":5126,"count":123,"min":[-0.2702859938144684,0.035693198442459106,-0.23977899551391602],"max":[0.2702859938144684,0.08979199826717377,0.2400680035352707],"type":"VEC3","bufferView":0,"byteOffset":20844},{"name":"Node-Mesh_2_normals","componentType":5126,"count":123,"min":[-0.9841208457946777,-1,-0.9841208457946777],"max":[0.9841208457946777,0.3230453431606293,0.9841208457946777],"type":"VEC3","bufferView":1,"byteOffset":20844},{"name":"Node-Mesh_2_indices","componentType":5123,"count":648,"min":[0],"max":[122],"type":"SCALAR","bufferView":2,"byteOffset":15380}],"asset":{"generator":"obj2gltf","version":"2.0"},"buffers":[{"name":"631","byteLength":61316,"uri":"data:application/octet-stream;base64,"}],"bufferViews":[{"name":"bufferView_0","buffer":0,"byteLength":22320,"byteOffset":0,"byteStride":12,"target":34962},{"name":"bufferView_1","buffer":0,"byteLength":22320,"byteOffset":22320,"byteStride":12,"target":34962},{"name":"bufferView_2","buffer":0,"byteLength":16676,"byteOffset":44640,"target":34963}],"materials":[{"name":"material_0","pbrMetallicRoughness":{"baseColorFactor":[0.52,0.52,0.52,0.5],"metallicFactor":0,"roughnessFactor":0.95},"emissiveFactor":[0,0,0],"alphaMode":"BLEND","doubleSided":true},{"name":"material_1","pbrMetallicRoughness":{"baseColorFactor":[0.683994,0.397546,0.012797,1],"metallicFactor":0,"roughnessFactor":0.6},"emissiveFactor":[0,0,0],"alphaMode":"OPAQUE","doubleSided":false},{"name":"material_2","pbrMetallicRoughness":{"baseColorFactor":[1,1,1,1],"metallicFactor":0,"roughnessFactor":0.95},"emissiveFactor":[0,0,0],"alphaMode":"OPAQUE","doubleSided":false}],"meshes":[{"name":"Node-Mesh","primitives":[{"attributes":{"POSITION":0,"NORMAL":1},"indices":2,"material":0,"mode":4},{"attributes":{"POSITION":3,"NORMAL":4},"indices":5,"material":1,"mode":4},{"attributes":{"POSITION":6,"NORMAL":7},"indices":8,"material":2,"mode":4}]}],"nodes":[{"name":"Node","mesh":0}],"scene":0,"scenes":[{"nodes":[0]}]}