{"accessors":[{"name":"Node-Mesh_0_positions","componentType":5126,"count":16,"min":[-0.22009100019931793,0.02994989976286888,-0.01441229972988367],"max":[0.22009100019931793,0.47005000710487366,-0.01441229972988367],"type":"VEC3","bufferView":0,"byteOffset":0},{"name":"Node-Mesh_0_normals","componentType":5126,"count":16,"min":[0,0,1],"max":[0,0,1],"type":"VEC3","bufferView":1,"byteOffset":0},{"name":"Node-Mesh_0_texcoords","componentType":5126,"count":16,"min":[0.00009999999747378752,0.0002849999873433262],"max":[0.9998999834060669,0.9998999834060669],"type":"VEC2","bufferView":2,"byteOffset":0},{"name":"Node-Mesh_0_indices","componentType":5123,"count":54,"min":[0],"max":[15],"type":"SCALAR","bufferView":3,"byteOffset":0},{"name":"Node-Mesh_1_positions","componentType":5126,"count":272,"min":[-0.24991600215435028,0.000125303995446302,-0.015172000043094158],"max":[0.24991600215435028,0.499875009059906,0.014828000217676163],"type":"VEC3","bufferView":0,"byteOffset":192},{"name":"Node-Mesh_1_normals","componentType":5126,"count":272,"min":[-0.9609793424606323,-0.9609711170196533,-0.9930952787399292],"max":[0.9609793424606323,0.9609735012054443,0.9993588924407959],"type":"VEC3","bufferView":1,"byteOffset":192},{"name":"Node-Mesh_1_texcoords","componentType":5126,"count":272,"min":[-0.44383400678634644,-0.4991999864578247],"max":[1.4618799686431885,1.494299054145813],"type":"VEC2","bufferView":2,"byteOffset":128},{"name":"Node-Mesh_1_indices","componentType":5123,"count":1152,"min":[0],"max":[271],"type":"SCALAR","bufferView":3,"byteOffset":108}],"asset":{"generator":"obj2gltf","version":"2.0"},"buffers":[{"name":"681","byteLength":93908,"uri":"data:application/octet-stream;base64,"}],"bufferViews":[{"name":"bufferView_0","buffer":0,"byteLength":3456,"byteOffset":0,"byteStride":12,"target":34962},{"name":"bufferView_1","buffer":0,"byteLength":3456,"byteOffset":3456,"byteStride":12,"target":34962},{"name":"bufferView_2","buffer":0,"byteLength":2304,"byteOffset":6912,"byteStride":8,"target":34962},{"name":"bufferView_3","buffer":0,"byteLength":2412,"byteOffset":9216,"target":34963},{"buffer":0,"byteOffset":11628,"byteLength":63592},{"buffer":0,"byteOffset":75220,"byteLength":18685}],"images":[{"name":"picture_3","mimeType":"image/jpeg","bufferView":4},{"name":"wood_6","mimeType":"image/jpeg","bufferView":5}],"materials":[{"name":"material_0","pbrMetallicRoughness":{"baseColorTexture":{"index":0},"baseColorFactor":[1,1,1,1],"metallicFactor":0,"roughnessFactor":0.95},"emissiveFactor":[0,0,0],"alphaMode":"OPAQUE","doubleSided":false},{"name":"material_1","pbrMetallicRoughness":{"baseColorTexture":{"index":1},"baseColorFactor":[1,1,1,1],"metallicFactor":0,"roughnessFactor":0.95},"emissiveFactor":[0,0,0],"alphaMode":"OPAQUE","doubleSided":false}],"meshes":[{"name":"Node-Mesh","primitives":[{"attributes":{"POSITION":0,"NORMAL":1,"TEXCOORD_0":2},"indices":3,"material":0,"mode":4},{"attributes":{"POSITION":4,"NORMAL":5,"TEXCOORD_0":6},"indices":7,"material":1,"mode":4}]}],"nodes":[{"name":"Node","mesh":0}],"samplers":[{"magFilter":9729,"minFilter":9986,"wrapS":10497,"wrapT":10497}],"scene":0,"scenes":[{"nodes":[0]}],"textures":[{"name":"picture_3","sampler":0,"source":0},{"name":"wood_6","sampler":0,"source":1}]}