{"accessors":[{"name":"Node-Mesh_0_positions","componentType":5126,"count":118,"min":[-0.04345550015568733,-0.0005671249818988144,-0.04345550015568733],"max":[0.04345550015568733,0.1416430026292801,0.04345550015568733],"type":"VEC3","bufferView":0,"byteOffset":0},{"name":"Node-Mesh_0_normals","componentType":5126,"count":118,"min":[-0.9994736313819885,-0.9753561615943909,-0.9994736313819885],"max":[0.9994736313819885,0.13788866996765137,0.9994736313819885],"type":"VEC3","bufferView":1,"byteOffset":0},{"name":"Node-Mesh_0_texcoords","componentType":5126,"count":118,"min":[1.6500500440597534,-1.6116600036621094],"max":[3.0901598930358887,-0.6567000150680542],"type":"VEC2","bufferView":2,"byteOffset":0},{"name":"Node-Mesh_0_indices","componentType":5123,"count":462,"min":[0],"max":[117],"type":"SCALAR","bufferView":3,"byteOffset":0},{"name":"Node-Mesh_1_positions","componentType":5126,"count":119,"min":[-0.017723100259900093,0.19450199604034424,-0.017723100259900093],"max":[0.017723100259900093,0.2943289875984192,0.017723100259900093],"type":"VEC3","bufferView":0,"byteOffset":1416},{"name":"Node-Mesh_1_normals","componentType":5126,"count":119,"min":[-1,-0.9616332650184631,-1],"max":[1,0.972923755645752,1],"type":"VEC3","bufferView":1,"byteOffset":1416},{"name":"Node-Mesh_1_texcoords","componentType":5126,"count":119,"min":[0,-1.3727699518203735],"max":[2.717750072479248,1],"type":"VEC2","bufferView":2,"byteOffset":944},{"name":"Node-Mesh_1_indices","componentType":5123,"count":444,"min":[0],"max":[118],"type":"SCALAR","bufferView":3,"byteOffset":924},{"name":"Node-Mesh_2_positions","componentType":5126,"count":383,"min":[-0.11923299729824066,0.14163999259471893,-0.11923299729824066],"max":[0.11923299729824066,0.3799999952316284,0.11923299729824066],"type":"VEC3","bufferView":0,"byteOffset":2844},{"name":"Node-Mesh_2_normals","componentType":5126,"count":383,"min":[-0.9990776181221008,-1,-0.9990776181221008],"max":[0.9990776181221008,1,0.9990776181221008],"type":"VEC3","bufferView":1,"byteOffset":2844},{"name":"Node-Mesh_2_texcoords","componentType":5126,"count":383,"min":[0.0009679999784566462,-1.3045200109481812],"max":[20.27560043334961,0.9990320205688477],"type":"VEC2","bufferView":2,"byteOffset":1896},{"name":"Node-Mesh_2_indices","componentType":5123,"count":1278,"min":[0],"max":[382],"type":"SCALAR","bufferView":3,"byteOffset":1812},{"name":"Node-Mesh_3_positions","componentType":5126,"count":33,"min":[-0.02499989978969097,0.2943289875984192,-0.02500000037252903],"max":[0.02500009909272194,0.33807799220085144,0.02500000037252903],"type":"VEC3","bufferView":0,"byteOffset":7440},{"name":"Node-Mesh_3_normals","componentType":5126,"count":33,"min":[-0.9996074438095093,-0.33247894048690796,-0.9996074438095093],"max":[0.9996074438095093,1,0.9996074438095093],"type":"VEC3","bufferView":1,"byteOffset":7440},{"name":"Node-Mesh_3_texcoords","componentType":5126,"count":33,"min":[0,1],"max":[0,1],"type":"VEC2","bufferView":2,"byteOffset":4960},{"name":"Node-Mesh_3_indices","componentType":5123,"count":168,"min":[0],"max":[32],"type":"SCALAR","bufferView":3,"byteOffset":4368}],"asset":{"generator":"obj2gltf","version":"2.0"},"buffers":[{"name":"683","byteLength":44736,"uri":"data:application/octet-stream;base64,"}],"bufferViews":[{"name":"bufferView_0","buffer":0,"byteLength":7836,"byteOffset":0,"byteStride":12,"target":34962},{"name":"bufferView_1","buffer":0,"byteLength":7836,"byteOffset":7836,"byteStride":12,"target":34962},{"name":"bufferView_2","buffer":0,"byteLength":5224,"byteOffset":15672,"byteStride":8,"target":34962},{"name":"bufferView_3","buffer":0,"byteLength":4704,"byteOffset":20896,"target":34963},{"buffer":0,"byteOffset":25600,"byteLength":19134}],"images":[{"name":"potang_3_4","mimeType":"image/jpeg","bufferView":4}],"materials":[{"name":"material_0","pbrMetallicRoughness":{"baseColorTexture":{"index":0},"baseColorFactor":[1,1,1,1],"metallicFactor":0,"roughnessFactor":0.97},"emissiveFactor":[0,0,0],"alphaMode":"OPAQUE","doubleSided":false},{"name":"material_1","pbrMetallicRoughness":{"baseColorFactor":[0.65,0.65,0.65,1],"metallicFactor":0,"roughnessFactor":0.95},"emissiveFactor":[0,0,0],"alphaMode":"OPAQUE","doubleSided":false},{"name":"material_2","pbrMetallicRoughness":{"baseColorFactor":[0.104617,0.06301,0.051269,1],"metallicFactor":0,"roughnessFactor":0.99},"emissiveFactor":[0,0,0],"alphaMode":"OPAQUE","doubleSided":false},{"name":"material_3","pbrMetallicRoughness":{"baseColorFactor":[1,1,1,1],"metallicFactor":0,"roughnessFactor":0.992},"emissiveFactor":[0,0,0],"alphaMode":"OPAQUE","doubleSided":false}],"meshes":[{"name":"Node-Mesh","primitives":[{"attributes":{"POSITION":0,"NORMAL":1,"TEXCOORD_0":2},"indices":3,"material":0,"mode":4},{"attributes":{"POSITION":4,"NORMAL":5,"TEXCOORD_0":6},"indices":7,"material":1,"mode":4},{"attributes":{"POSITION":8,"NORMAL":9,"TEXCOORD_0":10},"indices":11,"material":2,"mode":4},{"attributes":{"POSITION":12,"NORMAL":13,"TEXCOORD_0":14},"indices":15,"material":3,"mode":4}]}],"nodes":[{"name":"Node","mesh":0}],"samplers":[{"magFilter":9729,"minFilter":9986,"wrapS":10497,"wrapT":10497}],"scene":0,"scenes":[{"nodes":[0]}],"textures":[{"name":"potang_3_4","sampler":0,"source":0}]}