{"accessors":[{"name":"Node-Mesh_0_positions","componentType":5126,"count":84,"min":[-0.3370260000228882,-1.4046300123027322e-8,-0.32134300470352173],"max":[0.3370260000228882,0.14354799687862396,0.3032819926738739],"type":"VEC3","bufferView":0,"byteOffset":0},{"name":"Node-Mesh_0_normals","componentType":5126,"count":84,"min":[-1,-1,-1],"max":[1,0,1],"type":"VEC3","bufferView":1,"byteOffset":0},{"name":"Node-Mesh_0_texcoords","componentType":5126,"count":84,"min":[0.00045900000259280205,-0.7240899801254272],"max":[1.7992099523544312,0.9995409846305847],"type":"VEC2","bufferView":2,"byteOffset":0},{"name":"Node-Mesh_0_indices","componentType":5123,"count":198,"min":[0],"max":[83],"type":"SCALAR","bufferView":3,"byteOffset":0},{"name":"Node-Mesh_1_positions","componentType":5126,"count":831,"min":[-0.3499999940395355,0.13822300732135773,-0.3583090007305145],"max":[0.3499999940395355,0.6393129825592041,0.3616909980773926],"type":"VEC3","bufferView":0,"byteOffset":1008},{"name":"Node-Mesh_1_normals","componentType":5126,"count":831,"min":[-0.9986187815666199,-1,-1],"max":[0.9986187815666199,1,1],"type":"VEC3","bufferView":1,"byteOffset":1008},{"name":"Node-Mesh_1_texcoords","componentType":5126,"count":831,"min":[-6.128819942474365,-5.911149978637695],"max":[7.128819942474365,6.431240081787109],"type":"VEC2","bufferView":2,"byteOffset":672},{"name":"Node-Mesh_1_indices","componentType":5123,"count":3912,"min":[0],"max":[830],"type":"SCALAR","bufferView":3,"byteOffset":396}],"asset":{"generator":"obj2gltf","version":"2.0"},"buffers":[{"name":"69","byteLength":66392,"uri":"data:application/octet-stream;base64,"}],"bufferViews":[{"name":"bufferView_0","buffer":0,"byteLength":10980,"byteOffset":0,"byteStride":12,"target":34962},{"name":"bufferView_1","buffer":0,"byteLength":10980,"byteOffset":10980,"byteStride":12,"target":34962},{"name":"bufferView_2","buffer":0,"byteLength":7320,"byteOffset":21960,"byteStride":8,"target":34962},{"name":"bufferView_3","buffer":0,"byteLength":8220,"byteOffset":29280,"target":34963},{"buffer":0,"byteOffset":37500,"byteLength":18685},{"buffer":0,"byteOffset":56185,"byteLength":10207}],"images":[{"name":"wood_6","mimeType":"image/jpeg","bufferView":4},{"name":"leather_2_6","mimeType":"image/jpeg","bufferView":5}],"materials":[{"name":"material_0","pbrMetallicRoughness":{"baseColorTexture":{"index":0},"baseColorFactor":[1,1,1,1],"metallicFactor":0,"roughnessFactor":0.95},"emissiveFactor":[0,0,0],"alphaMode":"OPAQUE","doubleSided":false},{"name":"material_1","pbrMetallicRoughness":{"baseColorTexture":{"index":1},"baseColorFactor":[1,1,1,1],"metallicFactor":0,"roughnessFactor":0.985},"emissiveFactor":[0,0,0],"alphaMode":"OPAQUE","doubleSided":false}],"meshes":[{"name":"Node-Mesh","primitives":[{"attributes":{"POSITION":0,"NORMAL":1,"TEXCOORD_0":2},"indices":3,"material":0,"mode":4},{"attributes":{"POSITION":4,"NORMAL":5,"TEXCOORD_0":6},"indices":7,"material":1,"mode":4}]}],"nodes":[{"name":"Node","mesh":0}],"samplers":[{"magFilter":9729,"minFilter":9986,"wrapS":10497,"wrapT":10497}],"scene":0,"scenes":[{"nodes":[0]}],"textures":[{"name":"wood_6","sampler":0,"source":0},{"name":"leather_2_6","sampler":0,"source":1}]}