{"accessors":[{"name":"Node-Mesh_0_positions","componentType":5126,"count":744,"min":[-0.048149000853300095,0.10620100051164627,-0.04900430142879486],"max":[0.049004100263118744,0.18867500126361847,0.049004100263118744],"type":"VEC3","bufferView":0,"byteOffset":0},{"name":"Node-Mesh_0_normals","componentType":5126,"count":744,"min":[-1,-0.9983438849449158,-1],"max":[1,0.3761807084083557,1],"type":"VEC3","bufferView":1,"byteOffset":0},{"name":"Node-Mesh_0_indices","componentType":5123,"count":744,"min":[0],"max":[743],"type":"SCALAR","bufferView":3,"byteOffset":0},{"name":"Node-Mesh_1_positions","componentType":5126,"count":169,"min":[-0.04087350144982338,0.09301479905843735,-0.04087330028414726],"max":[0.040873199701309204,0.18013699352741241,0.04087330028414726],"type":"VEC3","bufferView":0,"byteOffset":8928},{"name":"Node-Mesh_1_normals","componentType":5126,"count":169,"min":[-0.9846290946006775,-0.19321878254413605,-0.9846290946006775],"max":[0.9846290946006775,1,0.9846290946006775],"type":"VEC3","bufferView":1,"byteOffset":8928},{"name":"Node-Mesh_1_indices","componentType":5123,"count":900,"min":[0],"max":[168],"type":"SCALAR","bufferView":3,"byteOffset":1488},{"name":"Node-Mesh_2_positions","componentType":5126,"count":12,"min":[-0.04399909824132919,0.0950876995921135,-0.04399909824132919],"max":[0.04399909824132919,0.0950876995921135,0.04399909824132919],"type":"VEC3","bufferView":0,"byteOffset":10956},{"name":"Node-Mesh_2_normals","componentType":5126,"count":12,"min":[0,1,0],"max":[0,1,0],"type":"VEC3","bufferView":1,"byteOffset":10956},{"name":"Node-Mesh_2_texcoords","componentType":5126,"count":12,"min":[0.28250399231910706,0.28250399231910706],"max":[0.7174959778785706,0.7174959778785706],"type":"VEC2","bufferView":2,"byteOffset":0},{"name":"Node-Mesh_2_indices","componentType":5123,"count":30,"min":[0],"max":[11],"type":"SCALAR","bufferView":3,"byteOffset":3288},{"name":"Node-Mesh_3_positions","componentType":5126,"count":156,"min":[-0.05000000074505806,-1.3996299674801094e-9,-0.05000000074505806],"max":[0.05000000074505806,0.10000000149011612,0.05000000074505806],"type":"VEC3","bufferView":0,"byteOffset":11100},{"name":"Node-Mesh_3_normals","componentType":5126,"count":156,"min":[-0.9970616698265076,-1,-0.9970616698265076],"max":[0.9970616698265076,0.9902776479721069,0.9970616698265076],"type":"VEC3","bufferView":1,"byteOffset":11100},{"name":"Node-Mesh_3_indices","componentType":5123,"count":678,"min":[0],"max":[155],"type":"SCALAR","bufferView":3,"byteOffset":3348}],"asset":{"generator":"obj2gltf","version":"2.0"},"buffers":[{"name":"732","byteLength":72212,"uri":"data:application/octet-stream;base64,"}],"bufferViews":[{"name":"bufferView_0","buffer":0,"byteLength":12972,"byteOffset":0,"byteStride":12,"target":34962},{"name":"bufferView_1","buffer":0,"byteLength":12972,"byteOffset":12972,"byteStride":12,"target":34962},{"name":"bufferView_2","buffer":0,"byteLength":96,"byteOffset":25944,"byteStride":8,"target":34962},{"name":"bufferView_3","buffer":0,"byteLength":4704,"byteOffset":26040,"target":34963},{"buffer":0,"byteOffset":30744,"byteLength":41468}],"images":[{"name":"grass_4","mimeType":"image/jpeg","bufferView":4}],"materials":[{"name":"material_0","pbrMetallicRoughness":{"baseColorFactor":[0.64,0.606574,0.390774,1],"metallicFactor":0,"roughnessFactor":0.95},"emissiveFactor":[0,0,0],"alphaMode":"OPAQUE","doubleSided":false},{"name":"material_1","pbrMetallicRoughness":{"baseColorFactor":[0.05417,0.125947,0.04143,1],"metallicFactor":0,"roughnessFactor":0.95},"emissiveFactor":[0,0,0],"alphaMode":"OPAQUE","doubleSided":false},{"name":"material_2","pbrMetallicRoughness":{"baseColorTexture":{"index":0},"baseColorFactor":[1,1,1,1],"metallicFactor":0,"roughnessFactor":0.95},"emissiveFactor":[0,0,0],"alphaMode":"OPAQUE","doubleSided":false},{"name":"material_3","pbrMetallicRoughness":{"baseColorFactor":[0.176206,0.09057,0.058735,1],"metallicFactor":0,"roughnessFactor":0.9255156499999999},"emissiveFactor":[0,0,0],"alphaMode":"OPAQUE","doubleSided":false}],"meshes":[{"name":"Node-Mesh","primitives":[{"attributes":{"POSITION":0,"NORMAL":1},"indices":2,"material":0,"mode":4},{"attributes":{"POSITION":3,"NORMAL":4},"indices":5,"material":1,"mode":4},{"attributes":{"POSITION":6,"NORMAL":7,"TEXCOORD_0":8},"indices":9,"material":2,"mode":4},{"attributes":{"POSITION":10,"NORMAL":11},"indices":12,"material":3,"mode":4}]}],"nodes":[{"name":"Node","mesh":0}],"samplers":[{"magFilter":9729,"minFilter":9986,"wrapS":10497,"wrapT":10497}],"scene":0,"scenes":[{"nodes":[0]}],"textures":[{"name":"grass_4","sampler":0,"source":0}]}