{"accessors":[{"name":"Node-Mesh_0_positions","componentType":5126,"count":16,"min":[0.04117140173912048,0.04999990016222,-0.3903520107269287],"max":[0.1817220002412796,2.1015000343322754,-0.2508910000324249],"type":"VEC3","bufferView":0,"byteOffset":0},{"name":"Node-Mesh_0_normals","componentType":5126,"count":16,"min":[-0.7042012810707092,-1,-0.7100003957748413],"max":[0.7042012810707092,1,0.7100003957748413],"type":"VEC3","bufferView":1,"byteOffset":0},{"name":"Node-Mesh_0_texcoords","componentType":5126,"count":16,"min":[0,1],"max":[0,1],"type":"VEC2","bufferView":2,"byteOffset":0},{"name":"Node-Mesh_0_indices","componentType":5123,"count":24,"min":[0],"max":[15],"type":"SCALAR","bufferView":3,"byteOffset":0},{"name":"Node-Mesh_1_positions","componentType":5126,"count":674,"min":[-0.5299999713897705,-3.059799968951893e-9,-0.6521490216255188],"max":[0.5299999713897705,2.180000066757202,0.07000000029802322],"type":"VEC3","bufferView":0,"byteOffset":192},{"name":"Node-Mesh_1_normals","componentType":5126,"count":674,"min":[-1,-1,-1],"max":[1,1,1],"type":"VEC3","bufferView":1,"byteOffset":192},{"name":"Node-Mesh_1_texcoords","componentType":5126,"count":674,"min":[-6.075620174407959,-4.607150077819824],"max":[5.214260101318359,0.9998319745063782],"type":"VEC2","bufferView":2,"byteOffset":128},{"name":"Node-Mesh_1_indices","componentType":5123,"count":1716,"min":[0],"max":[673],"type":"SCALAR","bufferView":3,"byteOffset":48},{"name":"Node-Mesh_2_positions","componentType":5126,"count":568,"min":[-0.229762002825737,0.3499999940395355,-0.6599979996681213],"max":[0.44999998807907104,1.7999999523162842,-0.020669899880886078],"type":"VEC3","bufferView":0,"byteOffset":8280},{"name":"Node-Mesh_2_normals","componentType":5126,"count":568,"min":[-1,-1,-0.9999916553497314],"max":[1,1,0.9999918937683105],"type":"VEC3","bufferView":1,"byteOffset":8280},{"name":"Node-Mesh_2_texcoords","componentType":5126,"count":568,"min":[0,-0.42886999249458313],"max":[1.0248199701309204,1],"type":"VEC2","bufferView":2,"byteOffset":5520},{"name":"Node-Mesh_2_indices","componentType":5123,"count":1320,"min":[0],"max":[567],"type":"SCALAR","bufferView":3,"byteOffset":3480}],"asset":{"generator":"obj2gltf","version":"2.0"},"buffers":[{"name":"759","byteLength":52180,"uri":"data:application/octet-stream;base64,"}],"bufferViews":[{"name":"bufferView_0","buffer":0,"byteLength":15096,"byteOffset":0,"byteStride":12,"target":34962},{"name":"bufferView_1","buffer":0,"byteLength":15096,"byteOffset":15096,"byteStride":12,"target":34962},{"name":"bufferView_2","buffer":0,"byteLength":10064,"byteOffset":30192,"byteStride":8,"target":34962},{"name":"bufferView_3","buffer":0,"byteLength":6120,"byteOffset":40256,"target":34963},{"buffer":0,"byteOffset":46376,"byteLength":5801}],"images":[{"name":"wood_7","mimeType":"image/jpeg","bufferView":4}],"materials":[{"name":"material_0","pbrMetallicRoughness":{"baseColorFactor":[0.4136,0.5648,0.64,0.5],"metallicFactor":0,"roughnessFactor":0.95},"emissiveFactor":[0,0,0],"alphaMode":"BLEND","doubleSided":true},{"name":"material_1","pbrMetallicRoughness":{"baseColorTexture":{"index":0},"baseColorFactor":[1,1,1,1],"metallicFactor":0,"roughnessFactor":0.96},"emissiveFactor":[0,0,0],"alphaMode":"OPAQUE","doubleSided":false},{"name":"material_2","pbrMetallicRoughness":{"baseColorFactor":[0.52,0.52,0.52,1],"metallicFactor":0,"roughnessFactor":0.95},"emissiveFactor":[0,0,0],"alphaMode":"OPAQUE","doubleSided":false}],"meshes":[{"name":"Node-Mesh","primitives":[{"attributes":{"POSITION":0,"NORMAL":1,"TEXCOORD_0":2},"indices":3,"material":0,"mode":4},{"attributes":{"POSITION":4,"NORMAL":5,"TEXCOORD_0":6},"indices":7,"material":1,"mode":4},{"attributes":{"POSITION":8,"NORMAL":9,"TEXCOORD_0":10},"indices":11,"material":2,"mode":4}]}],"nodes":[{"name":"Node","mesh":0}],"samplers":[{"magFilter":9729,"minFilter":9986,"wrapS":10497,"wrapT":10497}],"scene":0,"scenes":[{"nodes":[0]}],"textures":[{"name":"wood_7","sampler":0,"source":0}]}