{"accessors":[{"name":"Ceiling#0_0-Mesh_0_positions","componentType":5126,"count":88,"min":[37.34000015258789,2.690000057220459,37.40999984741211],"max":[45.04999923706055,2.740000009536743,42.10000228881836],"type":"VEC3","bufferView":0,"byteOffset":0},{"name":"Ceiling#0_0-Mesh_0_normals","componentType":5126,"count":88,"min":[-1,-1,-1],"max":[1,1,1],"type":"VEC3","bufferView":1,"byteOffset":0},{"name":"Ceiling#0_0-Mesh_0_texcoords","componentType":5126,"count":88,"min":[-0.20000000298023224,-3.5399999618530273],"max":[7.510000228881836,1.1100000143051147],"type":"VEC2","bufferView":2,"byteOffset":0},{"name":"Ceiling#0_0-Mesh_0_indices","componentType":5123,"count":180,"min":[0],"max":[87],"type":"SCALAR","bufferView":3,"byteOffset":0}],"asset":{"generator":"obj2gltf","version":"2.0"},"buffers":[{"name":"fr_0rm_0c","byteLength":8628,"uri":"data:application/octet-stream;base64,"}],"bufferViews":[{"name":"bufferView_0","buffer":0,"byteLength":1056,"byteOffset":0,"byteStride":12,"target":34962},{"name":"bufferView_1","buffer":0,"byteLength":1056,"byteOffset":1056,"byteStride":12,"target":34962},{"name":"bufferView_2","buffer":0,"byteLength":704,"byteOffset":2112,"byteStride":8,"target":34962},{"name":"bufferView_3","buffer":0,"byteLength":360,"byteOffset":2816,"target":34963},{"buffer":0,"byteOffset":3176,"byteLength":5450}],"images":[{"name":"linen_1_4","mimeType":"image/jpeg","bufferView":4}],"materials":[{"name":"material_0","pbrMetallicRoughness":{"baseColorTexture":{"index":0},"baseColorFactor":[1,1,1,1],"metallicFactor":0,"roughnessFactor":0.9053333333333333},"emissiveFactor":[0,0,0],"alphaMode":"OPAQUE","doubleSided":false}],"meshes":[{"name":"Ceiling#0_0-Mesh","primitives":[{"attributes":{"POSITION":0,"NORMAL":1,"TEXCOORD_0":2},"indices":3,"material":0,"mode":4}]}],"nodes":[{"name":"Ceiling#0_0","mesh":0}],"samplers":[{"magFilter":9729,"minFilter":9986,"wrapS":10497,"wrapT":10497}],"scene":0,"scenes":[{"nodes":[0]}],"textures":[{"name":"linen_1_4","sampler":0,"source":0}]}