{"accessors":[{"name":"WallInside#0_0_0-Mesh_0_positions","componentType":5126,"count":16,"min":[37.31999969482422,0,37.43000030517578],"max":[45.06999969482422,2.734999895095825,37.47999954223633],"type":"VEC3","bufferView":0,"byteOffset":0},{"name":"WallInside#0_0_0-Mesh_0_normals","componentType":5126,"count":16,"min":[0,0,-1],"max":[0,0,1],"type":"VEC3","bufferView":1,"byteOffset":0},{"name":"WallInside#0_0_0-Mesh_0_texcoords","componentType":5126,"count":16,"min":[0,-1.7350000143051147],"max":[7.75,1],"type":"VEC2","bufferView":2,"byteOffset":0},{"name":"WallInside#0_0_0-Mesh_0_indices","componentType":5123,"count":48,"min":[0],"max":[15],"type":"SCALAR","bufferView":3,"byteOffset":0},{"name":"WallInside#0_0_0-Mesh_1_positions","componentType":5126,"count":32,"min":[37.31999969482422,0,37.43000030517578],"max":[45.06999969482422,2.734999895095825,37.47999954223633],"type":"VEC3","bufferView":0,"byteOffset":192},{"name":"WallInside#0_0_0-Mesh_1_normals","componentType":5126,"count":32,"min":[-1,-1,0],"max":[1,1,0],"type":"VEC3","bufferView":1,"byteOffset":192},{"name":"WallInside#0_0_0-Mesh_1_texcoords","componentType":5126,"count":32,"min":[0,0.9900000095367432],"max":[7.75,1.0399999618530273],"type":"VEC2","bufferView":2,"byteOffset":128},{"name":"WallInside#0_0_0-Mesh_1_indices","componentType":5123,"count":48,"min":[0],"max":[31],"type":"SCALAR","bufferView":3,"byteOffset":96},{"name":"WallOutside#0_0_0-Mesh_0_positions","componentType":5126,"count":32,"min":[37.31999969482422,0,37.38526153564453],"max":[45.06999969482422,2.734999895095825,37.43526077270508],"type":"VEC3","bufferView":0,"byteOffset":576},{"name":"WallOutside#0_0_0-Mesh_0_normals","componentType":5126,"count":32,"min":[-1,-1,0],"max":[1,1,0],"type":"VEC3","bufferView":1,"byteOffset":576},{"name":"WallOutside#0_0_0-Mesh_0_texcoords","componentType":5126,"count":32,"min":[0,0.9900000095367432],"max":[7.75,1.0399999618530273],"type":"VEC2","bufferView":2,"byteOffset":384},{"name":"WallOutside#0_0_0-Mesh_0_indices","componentType":5123,"count":48,"min":[0],"max":[31],"type":"SCALAR","bufferView":3,"byteOffset":192},{"name":"WallOutside#0_0_0-Mesh_1_positions","componentType":5126,"count":16,"min":[37.31999969482422,0,37.38526153564453],"max":[45.06999969482422,2.734999895095825,37.43526077270508],"type":"VEC3","bufferView":0,"byteOffset":960},{"name":"WallOutside#0_0_0-Mesh_1_normals","componentType":5126,"count":16,"min":[0,0,-1],"max":[0,0,1],"type":"VEC3","bufferView":1,"byteOffset":960},{"name":"WallOutside#0_0_0-Mesh_1_texcoords","componentType":5126,"count":16,"min":[0,-1.7350000143051147],"max":[7.75,1],"type":"VEC2","bufferView":2,"byteOffset":640},{"name":"WallOutside#0_0_0-Mesh_1_indices","componentType":5123,"count":48,"min":[0],"max":[15],"type":"SCALAR","bufferView":3,"byteOffset":288},{"name":"WallInside#0_0_1-Mesh_0_positions","componentType":5126,"count":8,"min":[44.97999954223633,0,37.38999938964844],"max":[45.029998779296875,2.734999895095825,42.119998931884766],"type":"VEC3","bufferView":0,"byteOffset":1152},{"name":"WallInside#0_0_1-Mesh_0_normals","componentType":5126,"count":8,"min":[-1,0,-2.220446049250313e-16],"max":[1,0,2.220446049250313e-16],"type":"VEC3","bufferView":1,"byteOffset":1152},{"name":"WallInside#0_0_1-Mesh_0_texcoords","componentType":5126,"count":8,"min":[0,-1.7350000143051147],"max":[4.730000019073486,1],"type":"VEC2","bufferView":2,"byteOffset":768},{"name":"WallInside#0_0_1-Mesh_0_indices","componentType":5123,"count":12,"min":[0],"max":[7],"type":"SCALAR","bufferView":3,"byteOffset":384},{"name":"WallInside#0_0_1-Mesh_1_positions","componentType":5126,"count":16,"min":[44.97999954223633,0,37.38999938964844],"max":[45.029998779296875,2.734999895095825,42.119998931884766],"type":"VEC3","bufferView":0,"byteOffset":1248},{"name":"WallInside#0_0_1-Mesh_1_normals","componentType":5126,"count":16,"min":[-2.220446049250313e-16,-1,-1],"max":[2.220446049250313e-16,1,1],"type":"VEC3","bufferView":1,"byteOffset":1248},{"name":"WallInside#0_0_1-Mesh_1_texcoords","componentType":5126,"count":16,"min":[0,0.9900000095367432],"max":[4.730000019073486,1.0399999618530273],"type":"VEC2","bufferView":2,"byteOffset":832},{"name":"WallInside#0_0_1-Mesh_1_indices","componentType":5123,"count":24,"min":[0],"max":[15],"type":"SCALAR","bufferView":3,"byteOffset":408},{"name":"WallOutside#0_0_1-Mesh_0_positions","componentType":5126,"count":16,"min":[45.02473449707031,0,37.38999938964844],"max":[45.07473373413086,2.734999895095825,42.119998931884766],"type":"VEC3","bufferView":0,"byteOffset":1440},{"name":"WallOutside#0_0_1-Mesh_0_normals","componentType":5126,"count":16,"min":[-2.220446049250313e-16,-1,-1],"max":[2.220446049250313e-16,1,1],"type":"VEC3","bufferView":1,"byteOffset":1440},{"name":"WallOutside#0_0_1-Mesh_0_texcoords","componentType":5126,"count":16,"min":[0,0.9900000095367432],"max":[4.730000019073486,1.0399999618530273],"type":"VEC2","bufferView":2,"byteOffset":960},{"name":"WallOutside#0_0_1-Mesh_0_indices","componentType":5123,"count":24,"min":[0],"max":[15],"type":"SCALAR","bufferView":3,"byteOffset":456},{"name":"WallOutside#0_0_1-Mesh_1_positions","componentType":5126,"count":8,"min":[45.02473449707031,0,37.38999938964844],"max":[45.07473373413086,2.734999895095825,42.119998931884766],"type":"VEC3","bufferView":0,"byteOffset":1632},{"name":"WallOutside#0_0_1-Mesh_1_normals","componentType":5126,"count":8,"min":[-1,0,-2.220446049250313e-16],"max":[1,0,2.220446049250313e-16],"type":"VEC3","bufferView":1,"byteOffset":1632},{"name":"WallOutside#0_0_1-Mesh_1_texcoords","componentType":5126,"count":8,"min":[0,-1.7350000143051147],"max":[4.730000019073486,1],"type":"VEC2","bufferView":2,"byteOffset":1088},{"name":"WallOutside#0_0_1-Mesh_1_indices","componentType":5123,"count":12,"min":[0],"max":[7],"type":"SCALAR","bufferView":3,"byteOffset":504},{"name":"WallInside#0_0_2-Mesh_0_positions","componentType":5126,"count":16,"min":[37.31999969482422,0,42.029998779296875],"max":[45.06999969482422,2.734999895095825,42.07999801635742],"type":"VEC3","bufferView":0,"byteOffset":1728},{"name":"WallInside#0_0_2-Mesh_0_normals","componentType":5126,"count":16,"min":[0,0,-1],"max":[0,0,1],"type":"VEC3","bufferView":1,"byteOffset":1728},{"name":"WallInside#0_0_2-Mesh_0_texcoords","componentType":5126,"count":16,"min":[0,-1.7350000143051147],"max":[7.75,1],"type":"VEC2","bufferView":2,"byteOffset":1152},{"name":"WallInside#0_0_2-Mesh_0_indices","componentType":5123,"count":48,"min":[0],"max":[15],"type":"SCALAR","bufferView":3,"byteOffset":528},{"name":"WallInside#0_0_2-Mesh_1_positions","componentType":5126,"count":32,"min":[37.31999969482422,0,42.029998779296875],"max":[45.06999969482422,2.734999895095825,42.07999801635742],"type":"VEC3","bufferView":0,"byteOffset":1920},{"name":"WallInside#0_0_2-Mesh_1_normals","componentType":5126,"count":32,"min":[-1,-1,0],"max":[1,1,0],"type":"VEC3","bufferView":1,"byteOffset":1920},{"name":"WallInside#0_0_2-Mesh_1_texcoords","componentType":5126,"count":32,"min":[0,0.9900000095367432],"max":[7.75,1.0399999618530273],"type":"VEC2","bufferView":2,"byteOffset":1280},{"name":"WallInside#0_0_2-Mesh_1_indices","componentType":5123,"count":48,"min":[0],"max":[31],"type":"SCALAR","bufferView":3,"byteOffset":624},{"name":"WallOutside#0_0_2-Mesh_0_positions","componentType":5126,"count":32,"min":[37.31999969482422,0,42.074737548828125],"max":[45.06999969482422,2.734999895095825,42.12473678588867],"type":"VEC3","bufferView":0,"byteOffset":2304},{"name":"WallOutside#0_0_2-Mesh_0_normals","componentType":5126,"count":32,"min":[-1,-1,0],"max":[1,1,0],"type":"VEC3","bufferView":1,"byteOffset":2304},{"name":"WallOutside#0_0_2-Mesh_0_texcoords","componentType":5126,"count":32,"min":[0,0.9900000095367432],"max":[7.75,1.0399999618530273],"type":"VEC2","bufferView":2,"byteOffset":1536},{"name":"WallOutside#0_0_2-Mesh_0_indices","componentType":5123,"count":48,"min":[0],"max":[31],"type":"SCALAR","bufferView":3,"byteOffset":720},{"name":"WallOutside#0_0_2-Mesh_1_positions","componentType":5126,"count":16,"min":[37.31999969482422,0,42.074737548828125],"max":[45.06999969482422,2.734999895095825,42.12473678588867],"type":"VEC3","bufferView":0,"byteOffset":2688},{"name":"WallOutside#0_0_2-Mesh_1_normals","componentType":5126,"count":16,"min":[0,0,-1],"max":[0,0,1],"type":"VEC3","bufferView":1,"byteOffset":2688},{"name":"WallOutside#0_0_2-Mesh_1_texcoords","componentType":5126,"count":16,"min":[0,-1.7350000143051147],"max":[7.75,1],"type":"VEC2","bufferView":2,"byteOffset":1792},{"name":"WallOutside#0_0_2-Mesh_1_indices","componentType":5123,"count":48,"min":[0],"max":[15],"type":"SCALAR","bufferView":3,"byteOffset":816},{"name":"WallInside#0_0_3-Mesh_0_positions","componentType":5126,"count":8,"min":[37.36000061035156,0,37.38999938964844],"max":[37.40999984741211,2.734999895095825,42.119998931884766],"type":"VEC3","bufferView":0,"byteOffset":2880},{"name":"WallInside#0_0_3-Mesh_0_normals","componentType":5126,"count":8,"min":[-1,0,-2.220446049250313e-16],"max":[1,0,2.220446049250313e-16],"type":"VEC3","bufferView":1,"byteOffset":2880},{"name":"WallInside#0_0_3-Mesh_0_texcoords","componentType":5126,"count":8,"min":[0,-1.7350000143051147],"max":[4.730000019073486,1],"type":"VEC2","bufferView":2,"byteOffset":1920},{"name":"WallInside#0_0_3-Mesh_0_indices","componentType":5123,"count":12,"min":[0],"max":[7],"type":"SCALAR","bufferView":3,"byteOffset":912},{"name":"WallInside#0_0_3-Mesh_1_positions","componentType":5126,"count":16,"min":[37.36000061035156,0,37.38999938964844],"max":[37.40999984741211,2.734999895095825,42.119998931884766],"type":"VEC3","bufferView":0,"byteOffset":2976},{"name":"WallInside#0_0_3-Mesh_1_normals","componentType":5126,"count":16,"min":[-2.220446049250313e-16,-1,-1],"max":[2.220446049250313e-16,1,1],"type":"VEC3","bufferView":1,"byteOffset":2976},{"name":"WallInside#0_0_3-Mesh_1_texcoords","componentType":5126,"count":16,"min":[0,0.9900000095367432],"max":[4.730000019073486,1.0399999618530273],"type":"VEC2","bufferView":2,"byteOffset":1984},{"name":"WallInside#0_0_3-Mesh_1_indices","componentType":5123,"count":24,"min":[0],"max":[15],"type":"SCALAR","bufferView":3,"byteOffset":936},{"name":"WallOutside#0_0_3-Mesh_0_positions","componentType":5126,"count":16,"min":[37.31526184082031,0,37.38999938964844],"max":[37.36526107788086,2.734999895095825,42.119998931884766],"type":"VEC3","bufferView":0,"byteOffset":3168},{"name":"WallOutside#0_0_3-Mesh_0_normals","componentType":5126,"count":16,"min":[-2.220446049250313e-16,-1,-1],"max":[2.220446049250313e-16,1,1],"type":"VEC3","bufferView":1,"byteOffset":3168},{"name":"WallOutside#0_0_3-Mesh_0_texcoords","componentType":5126,"count":16,"min":[0,0.9900000095367432],"max":[4.730000019073486,1.0399999618530273],"type":"VEC2","bufferView":2,"byteOffset":2112},{"name":"WallOutside#0_0_3-Mesh_0_indices","componentType":5123,"count":24,"min":[0],"max":[15],"type":"SCALAR","bufferView":3,"byteOffset":984},{"name":"WallOutside#0_0_3-Mesh_1_positions","componentType":5126,"count":8,"min":[37.31526184082031,0,37.38999938964844],"max":[37.36526107788086,2.734999895095825,42.119998931884766],"type":"VEC3","bufferView":0,"byteOffset":3360},{"name":"WallOutside#0_0_3-Mesh_1_normals","componentType":5126,"count":8,"min":[-1,0,-2.220446049250313e-16],"max":[1,0,2.220446049250313e-16],"type":"VEC3","bufferView":1,"byteOffset":3360},{"name":"WallOutside#0_0_3-Mesh_1_texcoords","componentType":5126,"count":8,"min":[0,-1.7350000143051147],"max":[4.730000019073486,1],"type":"VEC2","bufferView":2,"byteOffset":2240},{"name":"WallOutside#0_0_3-Mesh_1_indices","componentType":5123,"count":12,"min":[0],"max":[7],"type":"SCALAR","bufferView":3,"byteOffset":1032}],"asset":{"generator":"obj2gltf","version":"2.0"},"buffers":[{"name":"fr_0rm_0w","byteLength":109148,"uri":"data:application/octet-stream;base64,"}],"bufferViews":[{"name":"bufferView_0","buffer":0,"byteLength":3456,"byteOffset":0,"byteStride":12,"target":34962},{"name":"bufferView_1","buffer":0,"byteLength":3456,"byteOffset":3456,"byteStride":12,"target":34962},{"name":"bufferView_2","buffer":0,"byteLength":2304,"byteOffset":6912,"byteStride":8,"target":34962},{"name":"bufferView_3","buffer":0,"byteLength":1056,"byteOffset":9216,"target":34963},{"buffer":0,"byteOffset":10272,"byteLength":23382},{"buffer":0,"byteOffset":33654,"byteLength":75492}],"images":[{"name":"wallp_20_1","mimeType":"image/jpeg","bufferView":4},{"name":"bricks_4_3","mimeType":"image/jpeg","bufferView":5}],"materials":[{"name":"material_0","pbrMetallicRoughness":{"baseColorTexture":{"index":0},"baseColorFactor":[1,1,1,1],"metallicFactor":0,"roughnessFactor":0.9053333333333333},"emissiveFactor":[0,0,0],"alphaMode":"OPAQUE","doubleSided":false},{"name":"material_1","pbrMetallicRoughness":{"baseColorFactor":[0.5019607843137255,0.5019607843137255,0.5019607843137255,1],"metallicFactor":0,"roughnessFactor":1},"emissiveFactor":[0,0,0],"alphaMode":"OPAQUE","doubleSided":false},{"name":"material_2","pbrMetallicRoughness":{"baseColorTexture":{"index":1},"baseColorFactor":[1,1,1,1],"metallicFactor":0,"roughnessFactor":0.9053333333333333},"emissiveFactor":[0,0,0],"alphaMode":"OPAQUE","doubleSided":false},{"name":"material_3","pbrMetallicRoughness":{"baseColorTexture":{"index":0},"baseColorFactor":[1,1,1,1],"metallicFactor":0,"roughnessFactor":0.9053333333333333},"emissiveFactor":[0,0,0],"alphaMode":"OPAQUE","doubleSided":false},{"name":"material_4","pbrMetallicRoughness":{"baseColorFactor":[0.5019607843137255,0.5019607843137255,0.5019607843137255,1],"metallicFactor":0,"roughnessFactor":1},"emissiveFactor":[0,0,0],"alphaMode":"OPAQUE","doubleSided":false},{"name":"material_5","pbrMetallicRoughness":{"baseColorTexture":{"index":1},"baseColorFactor":[1,1,1,1],"metallicFactor":0,"roughnessFactor":0.9053333333333333},"emissiveFactor":[0,0,0],"alphaMode":"OPAQUE","doubleSided":false},{"name":"material_6","pbrMetallicRoughness":{"baseColorTexture":{"index":0},"baseColorFactor":[1,1,1,1],"metallicFactor":0,"roughnessFactor":0.9053333333333333},"emissiveFactor":[0,0,0],"alphaMode":"OPAQUE","doubleSided":false},{"name":"material_7","pbrMetallicRoughness":{"baseColorFactor":[0.5019607843137255,0.5019607843137255,0.5019607843137255,1],"metallicFactor":0,"roughnessFactor":1},"emissiveFactor":[0,0,0],"alphaMode":"OPAQUE","doubleSided":false},{"name":"material_8","pbrMetallicRoughness":{"baseColorTexture":{"index":1},"baseColorFactor":[1,1,1,1],"metallicFactor":0,"roughnessFactor":0.9053333333333333},"emissiveFactor":[0,0,0],"alphaMode":"OPAQUE","doubleSided":false},{"name":"material_9","pbrMetallicRoughness":{"baseColorTexture":{"index":0},"baseColorFactor":[1,1,1,1],"metallicFactor":0,"roughnessFactor":0.9053333333333333},"emissiveFactor":[0,0,0],"alphaMode":"OPAQUE","doubleSided":false},{"name":"material_10","pbrMetallicRoughness":{"baseColorFactor":[0.5019607843137255,0.5019607843137255,0.5019607843137255,1],"metallicFactor":0,"roughnessFactor":1},"emissiveFactor":[0,0,0],"alphaMode":"OPAQUE","doubleSided":false},{"name":"material_11","pbrMetallicRoughness":{"baseColorTexture":{"index":1},"baseColorFactor":[1,1,1,1],"metallicFactor":0,"roughnessFactor":0.9053333333333333},"emissiveFactor":[0,0,0],"alphaMode":"OPAQUE","doubleSided":false}],"meshes":[{"name":"WallInside#0_0_0-Mesh","primitives":[{"attributes":{"POSITION":0,"NORMAL":1,"TEXCOORD_0":2},"indices":3,"material":0,"mode":4},{"attributes":{"POSITION":4,"NORMAL":5,"TEXCOORD_0":6},"indices":7,"material":1,"mode":4}]},{"name":"WallOutside#0_0_0-Mesh","primitives":[{"attributes":{"POSITION":8,"NORMAL":9,"TEXCOORD_0":10},"indices":11,"material":1,"mode":4},{"attributes":{"POSITION":12,"NORMAL":13,"TEXCOORD_0":14},"indices":15,"material":2,"mode":4}]},{"name":"WallInside#0_0_1-Mesh","primitives":[{"attributes":{"POSITION":16,"NORMAL":17,"TEXCOORD_0":18},"indices":19,"material":3,"mode":4},{"attributes":{"POSITION":20,"NORMAL":21,"TEXCOORD_0":22},"indices":23,"material":4,"mode":4}]},{"name":"WallOutside#0_0_1-Mesh","primitives":[{"attributes":{"POSITION":24,"NORMAL":25,"TEXCOORD_0":26},"indices":27,"material":4,"mode":4},{"attributes":{"POSITION":28,"NORMAL":29,"TEXCOORD_0":30},"indices":31,"material":5,"mode":4}]},{"name":"WallInside#0_0_2-Mesh","primitives":[{"attributes":{"POSITION":32,"NORMAL":33,"TEXCOORD_0":34},"indices":35,"material":6,"mode":4},{"attributes":{"POSITION":36,"NORMAL":37,"TEXCOORD_0":38},"indices":39,"material":7,"mode":4}]},{"name":"WallOutside#0_0_2-Mesh","primitives":[{"attributes":{"POSITION":40,"NORMAL":41,"TEXCOORD_0":42},"indices":43,"material":7,"mode":4},{"attributes":{"POSITION":44,"NORMAL":45,"TEXCOORD_0":46},"indices":47,"material":8,"mode":4}]},{"name":"WallInside#0_0_3-Mesh","primitives":[{"attributes":{"POSITION":48,"NORMAL":49,"TEXCOORD_0":50},"indices":51,"material":9,"mode":4},{"attributes":{"POSITION":52,"NORMAL":53,"TEXCOORD_0":54},"indices":55,"material":10,"mode":4}]},{"name":"WallOutside#0_0_3-Mesh","primitives":[{"attributes":{"POSITION":56,"NORMAL":57,"TEXCOORD_0":58},"indices":59,"material":10,"mode":4},{"attributes":{"POSITION":60,"NORMAL":61,"TEXCOORD_0":62},"indices":63,"material":11,"mode":4}]}],"nodes":[{"name":"WallInside#0_0_0","mesh":0},{"name":"WallOutside#0_0_0","mesh":1},{"name":"WallInside#0_0_1","mesh":2},{"name":"WallOutside#0_0_1","mesh":3},{"name":"WallInside#0_0_2","mesh":4},{"name":"WallOutside#0_0_2","mesh":5},{"name":"WallInside#0_0_3","mesh":6},{"name":"WallOutside#0_0_3","mesh":7}],"samplers":[{"magFilter":9729,"minFilter":9986,"wrapS":10497,"wrapT":10497}],"scene":0,"scenes":[{"nodes":[0,1,2,3,4,5,6,7]}],"textures":[{"name":"wallp_20_1","sampler":0,"source":0},{"name":"bricks_4_3","sampler":0,"source":1}]}