{"accessors":[{"name":"Node-Mesh_0_positions","componentType":5126,"count":112,"min":[-0.5149999856948853,0.3857190012931824,-1.0849900245666504],"max":[0.5149999856948853,0.7717540264129639,-0.9753469824790955],"type":"VEC3","bufferView":0,"byteOffset":0},{"name":"Node-Mesh_0_normals","componentType":5126,"count":112,"min":[-0.9737473130226135,-0.9845677018165588,-0.9845629930496216],"max":[0.9737473130226135,0.984565019607544,0.9845726490020752],"type":"VEC3","bufferView":1,"byteOffset":0},{"name":"Node-Mesh_0_texcoords","componentType":5126,"count":112,"min":[0,1],"max":[0,1],"type":"VEC2","bufferView":2,"byteOffset":0},{"name":"Node-Mesh_0_indices","componentType":5123,"count":648,"min":[0],"max":[111],"type":"SCALAR","bufferView":3,"byteOffset":0},{"name":"Node-Mesh_1_positions","componentType":5126,"count":572,"min":[-0.9150000214576721,-4.340349946119204e-8,-1.0847200155258179],"max":[0.9150000214576721,0.8593800067901611,1.0850000381469727],"type":"VEC3","bufferView":0,"byteOffset":1344},{"name":"Node-Mesh_1_normals","componentType":5126,"count":572,"min":[-1,-0.9845677018165588,-1],"max":[1,1,1],"type":"VEC3","bufferView":1,"byteOffset":1344},{"name":"Node-Mesh_1_texcoords","componentType":5126,"count":572,"min":[-28.85569953918457,-22.91080093383789],"max":[15.061800003051758,0.9928010106086731],"type":"VEC2","bufferView":2,"byteOffset":896},{"name":"Node-Mesh_1_indices","componentType":5123,"count":2484,"min":[0],"max":[571],"type":"SCALAR","bufferView":3,"byteOffset":1296},{"name":"Node-Mesh_2_positions","componentType":5126,"count":772,"min":[-0.8100000023841858,0.38999998569488525,-1.0397900342941284],"max":[0.8100000023841858,0.8397259712219238,1.0549999475479126],"type":"VEC3","bufferView":0,"byteOffset":8208},{"name":"Node-Mesh_2_normals","componentType":5126,"count":772,"min":[-0.9999985694885254,-0.9928624033927917,-0.9999812245368958],"max":[0.999995768070221,0.9908809065818787,0.9972623586654663],"type":"VEC3","bufferView":1,"byteOffset":8208},{"name":"Node-Mesh_2_texcoords","componentType":5126,"count":772,"min":[0.007199000101536512,-22.431299209594727],"max":[18.65999984741211,0.9928010106086731],"type":"VEC2","bufferView":2,"byteOffset":5472},{"name":"Node-Mesh_2_indices","componentType":5123,"count":3936,"min":[0],"max":[771],"type":"SCALAR","bufferView":3,"byteOffset":6264}],"asset":{"generator":"obj2gltf","version":"2.0"},"buffers":[{"name":"s__417","byteLength":112648,"uri":"data:application/octet-stream;base64,"}],"bufferViews":[{"name":"bufferView_0","buffer":0,"byteLength":17472,"byteOffset":0,"byteStride":12,"target":34962},{"name":"bufferView_1","buffer":0,"byteLength":17472,"byteOffset":17472,"byteStride":12,"target":34962},{"name":"bufferView_2","buffer":0,"byteLength":11648,"byteOffset":34944,"byteStride":8,"target":34962},{"name":"bufferView_3","buffer":0,"byteLength":14136,"byteOffset":46592,"target":34963},{"buffer":0,"byteOffset":60728,"byteLength":4304},{"buffer":0,"byteOffset":65032,"byteLength":47613}],"images":[{"name":"wood_9","mimeType":"image/jpeg","bufferView":4},{"name":"textile_2_6","mimeType":"image/jpeg","bufferView":5}],"materials":[{"name":"material_0","pbrMetallicRoughness":{"baseColorFactor":[0.52,0.52,0.52,1],"metallicFactor":0,"roughnessFactor":0.95},"emissiveFactor":[0,0,0],"alphaMode":"OPAQUE","doubleSided":false},{"name":"material_1","pbrMetallicRoughness":{"baseColorTexture":{"index":0},"baseColorFactor":[1,1,1,1],"metallicFactor":0,"roughnessFactor":0.96},"emissiveFactor":[0,0,0],"alphaMode":"OPAQUE","doubleSided":false},{"name":"material_2","pbrMetallicRoughness":{"baseColorTexture":{"index":1},"baseColorFactor":[1,1,1,1],"metallicFactor":0,"roughnessFactor":0.99},"emissiveFactor":[0,0,0],"alphaMode":"OPAQUE","doubleSided":false}],"meshes":[{"name":"Node-Mesh","primitives":[{"attributes":{"POSITION":0,"NORMAL":1,"TEXCOORD_0":2},"indices":3,"material":0,"mode":4},{"attributes":{"POSITION":4,"NORMAL":5,"TEXCOORD_0":6},"indices":7,"material":1,"mode":4},{"attributes":{"POSITION":8,"NORMAL":9,"TEXCOORD_0":10},"indices":11,"material":2,"mode":4}]}],"nodes":[{"name":"Node","mesh":0}],"samplers":[{"magFilter":9729,"minFilter":9986,"wrapS":10497,"wrapT":10497}],"scene":0,"scenes":[{"nodes":[0]}],"textures":[{"name":"wood_9","sampler":0,"source":0},{"name":"textile_2_6","sampler":0,"source":1}]}